<svg xmlns="http://www.w3.org/2000/svg" width="64.995" height="50.16" viewBox="0 0 64.995 50.16"><g transform="translate(-290.487 -309.6)"><path d="M20.04-4.16q2.4,0,2.4,2.04Q22.44,0,20.04,0H6.52Q4.08,0,4.08-2.12q0-2.04,2.44-2.04h4.16V-22.4L6.84-20.04a2.068,2.068,0,0,1-1,.32,1.762,1.762,0,0,1-1.42-.72,2.489,2.489,0,0,1-.58-1.6,2.006,2.006,0,0,1,1.04-1.8l6.2-3.84a4.456,4.456,0,0,1,2.28-.72,2.433,2.433,0,0,1,1.8.68,2.541,2.541,0,0,1,.68,1.88V-4.16Z" transform="translate(311 338)" fill="#fff"/><path d="M-23.632-10.335a.574.574,0,0,1,.217-.255.565.565,0,0,1,.308-.09.646.646,0,0,1,.427.157.483.483,0,0,1,.188.382.533.533,0,0,1-.06.24L-26.857-.33a.657.657,0,0,1-.27.3.761.761,0,0,1-.39.105.761.761,0,0,1-.39-.105.657.657,0,0,1-.27-.3l-4.29-9.57a.643.643,0,0,1-.045-.225.49.49,0,0,1,.195-.4.675.675,0,0,1,.435-.157.548.548,0,0,1,.525.345l3.87,8.745Zm7.245,8.64a.369.369,0,0,1,.285.135.5.5,0,0,1,.12.345q0,.375-.525.69a4.541,4.541,0,0,1-1.14.472,4.6,4.6,0,0,1-1.17.158A3.572,3.572,0,0,1-21.495-.9a3.8,3.8,0,0,1-.983-2.775,4.356,4.356,0,0,1,.435-1.988A3.246,3.246,0,0,1-20.82-7.005a3.375,3.375,0,0,1,1.793-.48,2.9,2.9,0,0,1,2.265.93,3.619,3.619,0,0,1,.84,2.52.646.646,0,0,1-.12.435.5.5,0,0,1-.39.135h-4.83q.135,2.58,2.445,2.58a2.866,2.866,0,0,0,1.005-.158,6.534,6.534,0,0,0,.9-.427A1.427,1.427,0,0,1-16.387-1.7ZM-19.012-6.54a2.035,2.035,0,0,0-1.538.6,2.742,2.742,0,0,0-.683,1.7h4.245a2.6,2.6,0,0,0-.555-1.7A1.861,1.861,0,0,0-19.012-6.54Zm8.49-.915q.63-.045.63.51a.533.533,0,0,1-.135.383.717.717,0,0,1-.465.173l-.45.045a2.023,2.023,0,0,0-1.492.713,2.3,2.3,0,0,0-.488,1.462V-.525a.578.578,0,0,1-.165.45.622.622,0,0,1-.435.15.631.631,0,0,1-.443-.158.569.569,0,0,1-.172-.442v-6.33a.557.557,0,0,1,.18-.443.638.638,0,0,1,.435-.157.564.564,0,0,1,.405.157.563.563,0,0,1,.165.428v.84a2.277,2.277,0,0,1,.892-1.005,3.02,3.02,0,0,1,1.328-.405Zm7.395.375A.548.548,0,0,1-2.6-7.44a.616.616,0,0,1,.405.15.469.469,0,0,1,.18.375.475.475,0,0,1-.06.24l-4.215,9.09a.574.574,0,0,1-.218.255.541.541,0,0,1-.293.09.606.606,0,0,1-.4-.143.455.455,0,0,1-.173-.368.533.533,0,0,1,.06-.24l1.05-2.265-2.97-6.42a.446.446,0,0,1-.06-.225.491.491,0,0,1,.2-.39.686.686,0,0,1,.443-.165.541.541,0,0,1,.293.09.574.574,0,0,1,.217.255l2.505,5.625ZM8.843-1.7a.369.369,0,0,1,.285.135.5.5,0,0,1,.12.345q0,.375-.525.69a4.541,4.541,0,0,1-1.14.472,4.6,4.6,0,0,1-1.17.158A3.572,3.572,0,0,1,3.735-.9a3.8,3.8,0,0,1-.983-2.775,4.356,4.356,0,0,1,.435-1.988A3.246,3.246,0,0,1,4.41-7.005,3.375,3.375,0,0,1,6.2-7.485a2.9,2.9,0,0,1,2.265.93,3.619,3.619,0,0,1,.84,2.52.646.646,0,0,1-.12.435.5.5,0,0,1-.39.135H3.968Q4.1-.885,6.413-.885a2.866,2.866,0,0,0,1.005-.158,6.534,6.534,0,0,0,.9-.427A1.427,1.427,0,0,1,8.843-1.7ZM6.218-6.54a2.035,2.035,0,0,0-1.537.6A2.742,2.742,0,0,0,4-4.245H8.243a2.6,2.6,0,0,0-.555-1.7A1.861,1.861,0,0,0,6.218-6.54Zm7.86-.945q2.745,0,2.745,2.88v4.08a.6.6,0,0,1-.157.435.563.563,0,0,1-.427.165A.588.588,0,0,1,15.8-.09a.588.588,0,0,1-.165-.435v-.72a2.146,2.146,0,0,1-.87,1,2.564,2.564,0,0,1-1.35.353,2.954,2.954,0,0,1-1.3-.285,2.318,2.318,0,0,1-.937-.8A1.965,1.965,0,0,1,10.837-2.1a1.827,1.827,0,0,1,.42-1.283,2.548,2.548,0,0,1,1.38-.66,13.635,13.635,0,0,1,2.67-.2h.33V-4.74a1.973,1.973,0,0,0-.368-1.32,1.509,1.509,0,0,0-1.192-.42,4.406,4.406,0,0,0-2.07.555,1.369,1.369,0,0,1-.57.255.385.385,0,0,1-.3-.135.5.5,0,0,1-.12-.345.567.567,0,0,1,.127-.367,1.494,1.494,0,0,1,.413-.323,4.826,4.826,0,0,1,1.193-.472A5.288,5.288,0,0,1,14.077-7.485Zm-.5,6.63a1.949,1.949,0,0,0,1.478-.608,2.182,2.182,0,0,0,.577-1.568v-.435h-.27a13.426,13.426,0,0,0-2.01.112,1.954,1.954,0,0,0-.983.375.985.985,0,0,0-.293.773,1.242,1.242,0,0,0,.427.967A1.549,1.549,0,0,0,13.582-.855Zm7.92.96A5.1,5.1,0,0,1,20.19-.06a4,4,0,0,1-1.1-.465A1.476,1.476,0,0,1,18.7-.863a.641.641,0,0,1-.113-.383.47.47,0,0,1,.113-.322A.372.372,0,0,1,19-1.7a1.119,1.119,0,0,1,.525.225,4.994,4.994,0,0,0,.892.427,3.321,3.321,0,0,0,1.1.158,2.351,2.351,0,0,0,1.26-.285A.918.918,0,0,0,23.227-2a.817.817,0,0,0-.165-.533,1.365,1.365,0,0,0-.57-.36,8.1,8.1,0,0,0-1.185-.323,4.454,4.454,0,0,1-1.89-.765,1.617,1.617,0,0,1-.57-1.305,1.888,1.888,0,0,1,.36-1.14,2.423,2.423,0,0,1,1-.78,3.511,3.511,0,0,1,1.448-.285,4.076,4.076,0,0,1,1.132.157,3.367,3.367,0,0,1,.968.443.975.975,0,0,1,.51.75.479.479,0,0,1-.12.33.369.369,0,0,1-.285.135,1.121,1.121,0,0,1-.54-.255,4.748,4.748,0,0,0-.8-.42,2.516,2.516,0,0,0-.93-.15,1.865,1.865,0,0,0-1.132.315.992.992,0,0,0-.427.84.843.843,0,0,0,.157.532,1.3,1.3,0,0,0,.525.36,6.127,6.127,0,0,0,1.057.307,7.556,7.556,0,0,1,1.583.5,1.839,1.839,0,0,1,.8.66A1.861,1.861,0,0,1,24.4-2a1.8,1.8,0,0,1-.8,1.523A3.494,3.494,0,0,1,21.5.105Zm9.87-7.185a.548.548,0,0,1,.525-.36.616.616,0,0,1,.4.15.469.469,0,0,1,.18.375.475.475,0,0,1-.06.24l-4.215,9.09a.574.574,0,0,1-.218.255.541.541,0,0,1-.292.09.606.606,0,0,1-.4-.143.455.455,0,0,1-.173-.368.533.533,0,0,1,.06-.24l1.05-2.265-2.97-6.42a.446.446,0,0,1-.06-.225.491.491,0,0,1,.2-.39.686.686,0,0,1,.443-.165.541.541,0,0,1,.292.09.574.574,0,0,1,.218.255l2.5,5.625Z" transform="translate(323 357)" fill="#fff"/></g></svg>