<svg xmlns="http://www.w3.org/2000/svg" width="29.94" height="50.32" viewBox="0 0 29.94 50.32"><g transform="translate(-435.305 -309.44)"><path d="M19.92-4.16q2.4,0,2.4,2.04Q22.32,0,19.92,0H4.72A2.176,2.176,0,0,1,3.08-.62a2.128,2.128,0,0,1-.6-1.54A3.046,3.046,0,0,1,3.4-4.32l9.12-9.8a15.789,15.789,0,0,0,2.46-3.38,6.727,6.727,0,0,0,.78-3.06,3.731,3.731,0,0,0-1.08-2.88,4.369,4.369,0,0,0-3.08-1,8.44,8.44,0,0,0-3.18.62,15.906,15.906,0,0,0-3.1,1.7,4.919,4.919,0,0,1-.8.46,1.935,1.935,0,0,1-.8.18,1.467,1.467,0,0,1-1.18-.64,2.4,2.4,0,0,1-.5-1.52,2.3,2.3,0,0,1,.22-1.04,2.671,2.671,0,0,1,.7-.84,13.861,13.861,0,0,1,4.12-2.22,14.3,14.3,0,0,1,4.72-.82,9.855,9.855,0,0,1,6.58,2.08,6.956,6.956,0,0,1,2.46,5.6A10.341,10.341,0,0,1,19.8-16.3a20.3,20.3,0,0,1-3.52,4.78L9.36-4.16Z" transform="translate(438 338)" fill="#46dcd8"/><path d="M1.935,0a.634.634,0,0,1-.458-.165A.574.574,0,0,1,1.305-.6V-9.975a.574.574,0,0,1,.173-.435.634.634,0,0,1,.458-.165h5.61a.606.606,0,0,1,.42.135.479.479,0,0,1,.15.375.479.479,0,0,1-.15.375.606.606,0,0,1-.42.135H2.52V-5.88H7.245a.606.606,0,0,1,.42.135.479.479,0,0,1,.15.375.479.479,0,0,1-.15.375.606.606,0,0,1-.42.135H2.52v3.84H7.545a.629.629,0,0,1,.42.128.474.474,0,0,1,.15.382.479.479,0,0,1-.15.375A.606.606,0,0,1,7.545,0Zm10.9-7.485q2.745,0,2.745,2.88v4.08a.6.6,0,0,1-.158.435A.563.563,0,0,1,15,.075a.588.588,0,0,1-.435-.165A.588.588,0,0,1,14.4-.525v-.72a2.146,2.146,0,0,1-.87,1,2.564,2.564,0,0,1-1.35.353,2.954,2.954,0,0,1-1.3-.285,2.318,2.318,0,0,1-.938-.8A1.965,1.965,0,0,1,9.6-2.1a1.827,1.827,0,0,1,.42-1.283,2.548,2.548,0,0,1,1.38-.66,13.635,13.635,0,0,1,2.67-.2h.33V-4.74a1.973,1.973,0,0,0-.368-1.32,1.509,1.509,0,0,0-1.192-.42,4.406,4.406,0,0,0-2.07.555,1.369,1.369,0,0,1-.57.255.385.385,0,0,1-.3-.135.5.5,0,0,1-.12-.345.567.567,0,0,1,.127-.367,1.494,1.494,0,0,1,.413-.323,4.826,4.826,0,0,1,1.193-.472A5.288,5.288,0,0,1,12.84-7.485Zm-.5,6.63a1.949,1.949,0,0,0,1.478-.608A2.182,2.182,0,0,0,14.4-3.03v-.435h-.27a13.426,13.426,0,0,0-2.01.112,1.954,1.954,0,0,0-.983.375.985.985,0,0,0-.293.773,1.242,1.242,0,0,0,.427.967A1.549,1.549,0,0,0,12.345-.855Zm7.92.96A5.1,5.1,0,0,1,18.952-.06a4,4,0,0,1-1.1-.465,1.476,1.476,0,0,1-.382-.338.641.641,0,0,1-.113-.383.47.47,0,0,1,.113-.322A.372.372,0,0,1,17.76-1.7a1.119,1.119,0,0,1,.525.225,4.994,4.994,0,0,0,.892.427,3.321,3.321,0,0,0,1.1.158,2.351,2.351,0,0,0,1.26-.285A.918.918,0,0,0,21.99-2a.817.817,0,0,0-.165-.533,1.365,1.365,0,0,0-.57-.36A8.1,8.1,0,0,0,20.07-3.21a4.454,4.454,0,0,1-1.89-.765,1.617,1.617,0,0,1-.57-1.305,1.888,1.888,0,0,1,.36-1.14,2.423,2.423,0,0,1,1-.78,3.511,3.511,0,0,1,1.448-.285,4.076,4.076,0,0,1,1.132.157,3.367,3.367,0,0,1,.968.443.975.975,0,0,1,.51.75.479.479,0,0,1-.12.33.369.369,0,0,1-.285.135,1.121,1.121,0,0,1-.54-.255,4.748,4.748,0,0,0-.8-.42,2.516,2.516,0,0,0-.93-.15,1.865,1.865,0,0,0-1.132.315.992.992,0,0,0-.427.84.843.843,0,0,0,.157.532,1.3,1.3,0,0,0,.525.36,6.127,6.127,0,0,0,1.057.307,7.556,7.556,0,0,1,1.583.5,1.839,1.839,0,0,1,.8.66,1.861,1.861,0,0,1,.24.99,1.8,1.8,0,0,1-.8,1.523A3.494,3.494,0,0,1,20.265.105Zm9.87-7.185a.548.548,0,0,1,.525-.36.616.616,0,0,1,.405.15.469.469,0,0,1,.18.375.475.475,0,0,1-.06.24L26.97,2.415a.574.574,0,0,1-.218.255.541.541,0,0,1-.292.09.606.606,0,0,1-.4-.143.455.455,0,0,1-.172-.368.533.533,0,0,1,.06-.24L27-.255l-2.97-6.42a.446.446,0,0,1-.06-.225.491.491,0,0,1,.2-.39.686.686,0,0,1,.443-.165.541.541,0,0,1,.292.09.574.574,0,0,1,.217.255L27.63-1.485Z" transform="translate(434 357)" fill="#46dcd8"/></g></svg>