<svg xmlns="http://www.w3.org/2000/svg" width="51.525" height="47.665" viewBox="0 0 51.525 47.665"><g transform="translate(-551.305 -309.44)"><path d="M16.32-14.48a6.7,6.7,0,0,1,3.86,2.42,7.14,7.14,0,0,1,1.34,4.42,7.064,7.064,0,0,1-2.68,5.8A11.209,11.209,0,0,1,11.6.32a15.707,15.707,0,0,1-5-.8A12.035,12.035,0,0,1,2.52-2.72,2.423,2.423,0,0,1,1.6-4.6a2.314,2.314,0,0,1,.5-1.5,1.481,1.481,0,0,1,1.18-.62A1.779,1.779,0,0,1,4-6.58q.32.14.88.46A17.262,17.262,0,0,0,8.08-4.4a8.964,8.964,0,0,0,3.32.6,6.063,6.063,0,0,0,3.92-1.06A3.94,3.94,0,0,0,16.6-8.08a3.694,3.694,0,0,0-1.34-3.14,6.831,6.831,0,0,0-4.14-1.02H8.84a1.72,1.72,0,0,1-1.42-.62,2.2,2.2,0,0,1-.5-1.42,2.176,2.176,0,0,1,.5-1.44,1.745,1.745,0,0,1,1.42-.6h1.6q5.48,0,5.48-4.12a3.769,3.769,0,0,0-1.16-2.96,4.622,4.622,0,0,0-3.2-1.04,11.061,11.061,0,0,0-6.24,2.32q-.56.32-.88.46a1.779,1.779,0,0,1-.72.14,1.481,1.481,0,0,1-1.18-.62,2.314,2.314,0,0,1-.5-1.5,2.175,2.175,0,0,1,.22-1.02,3.255,3.255,0,0,1,.7-.86,12.844,12.844,0,0,1,4.02-2.22,14.356,14.356,0,0,1,4.78-.82,10.048,10.048,0,0,1,6.62,2.04,6.709,6.709,0,0,1,2.46,5.44,7.292,7.292,0,0,1-1.22,4.06A6.74,6.74,0,0,1,16.32-14.48Z" transform="translate(565 338)" fill="#46dcd8"/><path d="M10.7-10.65a.569.569,0,0,1,.442.172.652.652,0,0,1,.158.458v9.5a.622.622,0,0,1-.15.435.539.539,0,0,1-.42.165.493.493,0,0,1-.4-.165.665.665,0,0,1-.135-.435V-8.19L6.93-1.95a.663.663,0,0,1-.615.435A.683.683,0,0,1,5.7-1.95L2.43-8.115v7.59a.642.642,0,0,1-.142.435.515.515,0,0,1-.413.165.539.539,0,0,1-.42-.165.622.622,0,0,1-.15-.435v-9.5a.634.634,0,0,1,.165-.458.593.593,0,0,1,.45-.172.675.675,0,0,1,.6.435L6.33-2.91,10.1-10.215a.87.87,0,0,1,.262-.337A.583.583,0,0,1,10.7-10.65ZM19.4-1.7a.369.369,0,0,1,.285.135.5.5,0,0,1,.12.345q0,.375-.525.69a4.541,4.541,0,0,1-1.14.472,4.6,4.6,0,0,1-1.17.158A3.572,3.572,0,0,1,14.287-.9a3.8,3.8,0,0,1-.982-2.775,4.356,4.356,0,0,1,.435-1.988,3.246,3.246,0,0,1,1.222-1.342,3.375,3.375,0,0,1,1.793-.48,2.9,2.9,0,0,1,2.265.93,3.619,3.619,0,0,1,.84,2.52.646.646,0,0,1-.12.435.5.5,0,0,1-.39.135H14.52q.135,2.58,2.445,2.58a2.866,2.866,0,0,0,1.005-.158,6.534,6.534,0,0,0,.9-.427A1.427,1.427,0,0,1,19.4-1.7ZM16.77-6.54a2.035,2.035,0,0,0-1.538.6,2.742,2.742,0,0,0-.682,1.7H18.8a2.6,2.6,0,0,0-.555-1.7A1.861,1.861,0,0,0,16.77-6.54Zm10.74-4.11a.608.608,0,0,1,.45.165.569.569,0,0,1,.165.42v9.54a.588.588,0,0,1-.165.435.608.608,0,0,1-.45.165.583.583,0,0,1-.442-.165.6.6,0,0,1-.158-.435v-.81A2.41,2.41,0,0,1,25.943-.27,2.89,2.89,0,0,1,24.45.105a3.03,3.03,0,0,1-1.695-.48,3.168,3.168,0,0,1-1.14-1.343,4.664,4.664,0,0,1-.4-2,4.577,4.577,0,0,1,.4-1.98,3.075,3.075,0,0,1,1.14-1.32,3.1,3.1,0,0,1,1.695-.465,2.89,2.89,0,0,1,1.493.375,2.41,2.41,0,0,1,.967,1.065v-4.02a.578.578,0,0,1,.158-.427A.6.6,0,0,1,27.51-10.65ZM24.69-.9a1.975,1.975,0,0,0,1.642-.728A3.246,3.246,0,0,0,26.91-3.69a3.213,3.213,0,0,0-.577-2.055,1.984,1.984,0,0,0-1.642-.72,2.027,2.027,0,0,0-1.657.72A3.1,3.1,0,0,0,22.44-3.72a3.251,3.251,0,0,0,.593,2.078A2,2,0,0,0,24.69-.9Zm6.3.975a.631.631,0,0,1-.442-.158.569.569,0,0,1-.173-.442v-6.33a.569.569,0,0,1,.173-.443.631.631,0,0,1,.442-.157.6.6,0,0,1,.435.157.583.583,0,0,1,.165.443v6.33a.578.578,0,0,1-.165.45A.622.622,0,0,1,30.99.075Zm0-9.105a.823.823,0,0,1-.585-.21A.723.723,0,0,1,30.18-9.8a.706.706,0,0,1,.225-.54.823.823,0,0,1,.585-.21.823.823,0,0,1,.585.21.706.706,0,0,1,.225.54.723.723,0,0,1-.225.555A.823.823,0,0,1,30.99-9.03ZM39.4-7.455a.583.583,0,0,1,.443.165.6.6,0,0,1,.158.435V-.51a.584.584,0,0,1-.158.42A.583.583,0,0,1,39.4.075a.578.578,0,0,1-.427-.158A.558.558,0,0,1,38.82-.5v-.75A2.378,2.378,0,0,1,37.853-.24a2.844,2.844,0,0,1-1.4.345,2.52,2.52,0,0,1-1.965-.728,3.107,3.107,0,0,1-.66-2.153v-4.08a.588.588,0,0,1,.165-.435.608.608,0,0,1,.45-.165.583.583,0,0,1,.443.165.6.6,0,0,1,.158.435v4.05a2.179,2.179,0,0,0,.39,1.433,1.53,1.53,0,0,0,1.23.457,2.021,2.021,0,0,0,1.545-.623A2.3,2.3,0,0,0,38.79-3.18V-6.855a.588.588,0,0,1,.165-.435A.608.608,0,0,1,39.4-7.455Zm11-.03q2.43,0,2.43,2.895V-.525a.583.583,0,0,1-.165.442.6.6,0,0,1-.435.158.631.631,0,0,1-.443-.158.569.569,0,0,1-.172-.442V-4.56a2.337,2.337,0,0,0-.36-1.455,1.354,1.354,0,0,0-1.125-.45,1.793,1.793,0,0,0-1.44.615,2.48,2.48,0,0,0-.525,1.665v3.66a.569.569,0,0,1-.173.442.631.631,0,0,1-.443.158.6.6,0,0,1-.435-.158.583.583,0,0,1-.165-.442V-4.56a2.337,2.337,0,0,0-.36-1.455,1.373,1.373,0,0,0-1.14-.45,1.8,1.8,0,0,0-1.432.615,2.457,2.457,0,0,0-.533,1.665v3.66a.583.583,0,0,1-.165.442.6.6,0,0,1-.435.158.631.631,0,0,1-.443-.158.569.569,0,0,1-.173-.442v-6.33a.574.574,0,0,1,.173-.435.614.614,0,0,1,.443-.165.584.584,0,0,1,.42.157.563.563,0,0,1,.165.428v.72a2.373,2.373,0,0,1,.915-.99,2.607,2.607,0,0,1,1.35-.345,2.137,2.137,0,0,1,2.235,1.44,2.43,2.43,0,0,1,.96-1.05A2.785,2.785,0,0,1,50.4-7.485Z" transform="translate(550 357)" fill="#46dcd8"/></g></svg>