<svg xmlns="http://www.w3.org/2000/svg" width="30.765" height="47.545" viewBox="0 0 30.765 47.545"><g transform="translate(-688.305 -309.56)"><path d="M21-9.52A2.685,2.685,0,0,1,22.8-9a1.853,1.853,0,0,1,.6,1.48q0,2-2.4,2H18.96v3.16a2.553,2.553,0,0,1-.7,1.92,2.5,2.5,0,0,1-1.82.68,2.5,2.5,0,0,1-1.82-.68,2.553,2.553,0,0,1-.7-1.92V-5.52H3.44a2.229,2.229,0,0,1-1.68-.62,2.128,2.128,0,0,1-.6-1.54A3.084,3.084,0,0,1,1.8-9.52L14.16-27.28a2.7,2.7,0,0,1,1-.86,2.741,2.741,0,0,1,1.24-.3,2.61,2.61,0,0,1,1.8.68,2.443,2.443,0,0,1,.76,1.92V-9.52Zm-7.08,0V-20.28L6.48-9.52Z" transform="translate(692 338)" fill="#46dcd8"/><path d="M9.465-10.65a.569.569,0,0,1,.443.172.652.652,0,0,1,.157.458V-.555A.652.652,0,0,1,9.908-.1a.569.569,0,0,1-.443.173A.593.593,0,0,1,9.015-.1.634.634,0,0,1,8.85-.555v-4.29H2.52v4.29A.634.634,0,0,1,2.355-.1a.593.593,0,0,1-.45.173A.569.569,0,0,1,1.463-.1a.652.652,0,0,1-.158-.458V-10.02a.652.652,0,0,1,.158-.458.569.569,0,0,1,.442-.172.593.593,0,0,1,.45.172.634.634,0,0,1,.165.458v4.125H8.85V-10.02a.634.634,0,0,1,.165-.458A.593.593,0,0,1,9.465-10.65ZM15.48-7.485q2.745,0,2.745,2.88v4.08a.6.6,0,0,1-.157.435.563.563,0,0,1-.428.165A.588.588,0,0,1,17.2-.09a.588.588,0,0,1-.165-.435v-.72a2.146,2.146,0,0,1-.87,1,2.564,2.564,0,0,1-1.35.353,2.954,2.954,0,0,1-1.3-.285,2.318,2.318,0,0,1-.937-.8A1.965,1.965,0,0,1,12.24-2.1a1.827,1.827,0,0,1,.42-1.283,2.548,2.548,0,0,1,1.38-.66,13.635,13.635,0,0,1,2.67-.2h.33V-4.74a1.973,1.973,0,0,0-.368-1.32,1.509,1.509,0,0,0-1.193-.42,4.406,4.406,0,0,0-2.07.555,1.369,1.369,0,0,1-.57.255.385.385,0,0,1-.3-.135.5.5,0,0,1-.12-.345.567.567,0,0,1,.127-.367,1.494,1.494,0,0,1,.413-.323,4.826,4.826,0,0,1,1.193-.472A5.288,5.288,0,0,1,15.48-7.485Zm-.495,6.63a1.949,1.949,0,0,0,1.477-.608A2.182,2.182,0,0,0,17.04-3.03v-.435h-.27a13.426,13.426,0,0,0-2.01.112,1.954,1.954,0,0,0-.983.375.985.985,0,0,0-.293.773,1.242,1.242,0,0,0,.428.967A1.549,1.549,0,0,0,14.985-.855Zm9.075-6.6q.63-.045.63.51a.533.533,0,0,1-.135.383.717.717,0,0,1-.465.173l-.45.045a2.023,2.023,0,0,0-1.493.713A2.3,2.3,0,0,0,21.66-4.17V-.525a.578.578,0,0,1-.165.45.622.622,0,0,1-.435.15.631.631,0,0,1-.442-.158.569.569,0,0,1-.173-.442v-6.33a.557.557,0,0,1,.18-.443.638.638,0,0,1,.435-.157.564.564,0,0,1,.405.157.563.563,0,0,1,.165.428v.84a2.278,2.278,0,0,1,.892-1.005A3.02,3.02,0,0,1,23.85-7.44Zm7.4-3.2a.608.608,0,0,1,.45.165.569.569,0,0,1,.165.42v9.54a.588.588,0,0,1-.165.435.608.608,0,0,1-.45.165.583.583,0,0,1-.442-.165.6.6,0,0,1-.158-.435v-.81A2.41,2.41,0,0,1,29.888-.27,2.89,2.89,0,0,1,28.4.105,3.03,3.03,0,0,1,26.7-.375a3.168,3.168,0,0,1-1.14-1.343,4.664,4.664,0,0,1-.4-2,4.577,4.577,0,0,1,.4-1.98A3.075,3.075,0,0,1,26.7-7.02,3.1,3.1,0,0,1,28.4-7.485a2.89,2.89,0,0,1,1.493.375,2.41,2.41,0,0,1,.967,1.065v-4.02a.578.578,0,0,1,.158-.427A.6.6,0,0,1,31.455-10.65ZM28.635-.9a1.975,1.975,0,0,0,1.642-.728,3.246,3.246,0,0,0,.577-2.062,3.213,3.213,0,0,0-.577-2.055,1.984,1.984,0,0,0-1.642-.72,2.027,2.027,0,0,0-1.657.72,3.1,3.1,0,0,0-.593,2.025,3.251,3.251,0,0,0,.593,2.078A2,2,0,0,0,28.635-.9Z" transform="translate(687 357)" fill="#46dcd8"/></g></svg>