<svg xmlns="http://www.w3.org/2000/svg" width="489" height="17.095" viewBox="0 0 489 17.095">
  <g id="Group_200" data-name="Group 200" transform="translate(44.002 -5.764)">
    <path id="Path_3811" data-name="Path 3811" d="M2.514-4.166a3.528,3.528,0,0,0,.519,1.784A3.437,3.437,0,0,0,6.1-1.1,5.429,5.429,0,0,0,7.893-1.38,1.992,1.992,0,0,0,9.457-3.331a1.684,1.684,0,0,0-.659-1.5A6.656,6.656,0,0,0,6.706-5.6l-1.749-.4a7.92,7.92,0,0,1-2.426-.853A2.7,2.7,0,0,1,1.3-9.264,3.722,3.722,0,0,1,2.5-12.12a4.831,4.831,0,0,1,3.41-1.116,5.923,5.923,0,0,1,3.45.98,3.537,3.537,0,0,1,1.419,3.133H9.141a3.235,3.235,0,0,0-.562-1.591,3.268,3.268,0,0,0-2.716-1.011,3.142,3.142,0,0,0-2.224.65,2.036,2.036,0,0,0-.677,1.512,1.476,1.476,0,0,0,.791,1.389,11.608,11.608,0,0,0,2.347.7l1.811.413a5.547,5.547,0,0,1,2.021.817,3.061,3.061,0,0,1,1.23,2.628A3.28,3.28,0,0,1,9.6-.545,6.987,6.987,0,0,1,5.977.378,5.421,5.421,0,0,1,2.206-.853,4.152,4.152,0,0,1,.87-4.166ZM17.086-9.624a4.294,4.294,0,0,1,1.942.47,3.582,3.582,0,0,1,1.433,1.217,4.2,4.2,0,0,1,.633,1.661A10.868,10.868,0,0,1,21.234-4.2h-6.9a4.026,4.026,0,0,0,.677,2.3,2.266,2.266,0,0,0,1.96.866,2.534,2.534,0,0,0,1.978-.817,2.755,2.755,0,0,0,.6-1.1H21.1A3.276,3.276,0,0,1,20.694-1.8a4.111,4.111,0,0,1-.778,1.042,3.687,3.687,0,0,1-1.784.949A5.42,5.42,0,0,1,16.84.334,3.964,3.964,0,0,1,13.86-.945a4.976,4.976,0,0,1-1.222-3.582,5.41,5.41,0,0,1,1.23-3.683A4.059,4.059,0,0,1,17.086-9.624Zm2.522,4.166A4.1,4.1,0,0,0,19.16-7.1a2.3,2.3,0,0,0-2.171-1.143,2.406,2.406,0,0,0-1.828.787,2.972,2.972,0,0,0-.782,2Zm3.612-7.453H24.8V0H23.221ZM31.1-9.624a4.294,4.294,0,0,1,1.942.47,3.582,3.582,0,0,1,1.433,1.217A4.2,4.2,0,0,1,35.1-6.275,10.868,10.868,0,0,1,35.244-4.2h-6.9a4.026,4.026,0,0,0,.677,2.3,2.266,2.266,0,0,0,1.96.866,2.534,2.534,0,0,0,1.978-.817,2.755,2.755,0,0,0,.6-1.1h1.556A3.276,3.276,0,0,1,34.7-1.8a4.111,4.111,0,0,1-.778,1.042,3.687,3.687,0,0,1-1.784.949A5.42,5.42,0,0,1,30.85.334,3.964,3.964,0,0,1,27.87-.945a4.976,4.976,0,0,1-1.222-3.582,5.41,5.41,0,0,1,1.23-3.683A4.059,4.059,0,0,1,31.1-9.624Zm2.522,4.166A4.1,4.1,0,0,0,33.17-7.1,2.3,2.3,0,0,0,31-8.244a2.406,2.406,0,0,0-1.828.787,2.972,2.972,0,0,0-.782,2Zm7.2-4.228a4.1,4.1,0,0,1,2.588.773,3.705,3.705,0,0,1,1.2,2.663H43.066a2.839,2.839,0,0,0-.642-1.446,2.027,2.027,0,0,0-1.608-.576,2.222,2.222,0,0,0-2.162,1.477,5.865,5.865,0,0,0-.422,2.364,4.449,4.449,0,0,0,.6,2.382,2.05,2.05,0,0,0,1.881.967,2.057,2.057,0,0,0,1.56-.6,3.311,3.311,0,0,0,.8-1.648H44.6A4.129,4.129,0,0,1,43.286-.593a4.113,4.113,0,0,1-2.7.866,3.6,3.6,0,0,1-2.944-1.349,5.164,5.164,0,0,1-1.1-3.371,5.678,5.678,0,0,1,1.2-3.858A3.891,3.891,0,0,1,40.816-9.686ZM46.5-12.041h1.6v2.628h1.5v1.292H48.1v6.144a.665.665,0,0,0,.334.659,1.42,1.42,0,0,0,.615.1q.114,0,.246,0t.308-.022V0a3.532,3.532,0,0,1-.567.114A5.39,5.39,0,0,1,48.4.149a1.717,1.717,0,0,1-1.5-.567,2.519,2.519,0,0,1-.4-1.472V-8.121H45.229V-9.413H46.5ZM62.068-9.413h1.749q-.334.905-1.485,4.131-.861,2.426-1.441,3.955a26.739,26.739,0,0,1-1.934,4.395,2.21,2.21,0,0,1-1.934.791,3.794,3.794,0,0,1-.514-.026,4.062,4.062,0,0,1-.444-.1V2.294a5.458,5.458,0,0,0,.6.141,2.333,2.333,0,0,0,.325.026,1.139,1.139,0,0,0,.646-.145,1.338,1.338,0,0,0,.347-.356q.044-.07.316-.721t.4-.967l-3.48-9.686h1.793l2.522,7.664ZM68.924-1.02A2.182,2.182,0,0,0,71.082-2.21a5.933,5.933,0,0,0,.584-2.65A4.718,4.718,0,0,0,71.244-7a2.373,2.373,0,0,0-2.3-1.3A2.271,2.271,0,0,0,66.832-7.2a5.133,5.133,0,0,0-.659,2.672,4.465,4.465,0,0,0,.659,2.5A2.322,2.322,0,0,0,68.924-1.02Zm.062-8.666a4.262,4.262,0,0,1,3.076,1.213A4.736,4.736,0,0,1,73.318-4.9a6.122,6.122,0,0,1-1.107,3.762A4.006,4.006,0,0,1,68.774.343,3.88,3.88,0,0,1,65.689-.971,5.19,5.19,0,0,1,64.547-4.5a5.615,5.615,0,0,1,1.2-3.779A4.041,4.041,0,0,1,68.985-9.686Zm7.8.272v6.249a2.635,2.635,0,0,0,.229,1.178,1.6,1.6,0,0,0,1.573.844,2.224,2.224,0,0,0,2.25-1.477,5.858,5.858,0,0,0,.325-2.171V-9.413H82.74V0H81.246l.018-1.389a3.191,3.191,0,0,1-.765.905,3.365,3.365,0,0,1-2.2.738A2.834,2.834,0,0,1,75.56-1.09a4,4,0,0,1-.4-1.925v-6.4Zm8.473,0h1.5v1.626a3.592,3.592,0,0,1,.905-1.156,2.347,2.347,0,0,1,1.661-.681q.044,0,.149.009t.36.035v1.67a2.363,2.363,0,0,0-.259-.035q-.119-.009-.259-.009a2.258,2.258,0,0,0-1.837.769,2.684,2.684,0,0,0-.642,1.771V0H85.254Zm11.268-2.628h1.6v2.628h1.5v1.292h-1.5v6.144a.665.665,0,0,0,.334.659,1.42,1.42,0,0,0,.615.1q.114,0,.246,0t.308-.022V0a3.532,3.532,0,0,1-.567.114,5.39,5.39,0,0,1-.637.035,1.717,1.717,0,0,1-1.5-.567,2.519,2.519,0,0,1-.4-1.472V-8.121H95.247V-9.413h1.274Zm4.685-.914h1.582v4.816a4.568,4.568,0,0,1,1.011-1,3.41,3.41,0,0,1,1.907-.5,2.821,2.821,0,0,1,2.777,1.433,4.885,4.885,0,0,1,.4,2.171V0h-1.626V-5.933a3.318,3.318,0,0,0-.264-1.521,1.685,1.685,0,0,0-1.617-.773,2.694,2.694,0,0,0-1.784.677,3.254,3.254,0,0,0-.8,2.558V0h-1.582Zm13.931,3.331a4.294,4.294,0,0,1,1.942.47,3.582,3.582,0,0,1,1.433,1.217,4.2,4.2,0,0,1,.633,1.661,10.868,10.868,0,0,1,.141,2.074h-6.9a4.026,4.026,0,0,0,.677,2.3,2.266,2.266,0,0,0,1.96.866A2.534,2.534,0,0,0,117-1.854a2.755,2.755,0,0,0,.6-1.1h1.556a3.276,3.276,0,0,1-.409,1.156,4.111,4.111,0,0,1-.778,1.042,3.687,3.687,0,0,1-1.784.949,5.42,5.42,0,0,1-1.292.141,3.964,3.964,0,0,1-2.979-1.279,4.976,4.976,0,0,1-1.222-3.582,5.41,5.41,0,0,1,1.23-3.683A4.059,4.059,0,0,1,115.137-9.624Zm2.522,4.166a4.1,4.1,0,0,0-.448-1.644,2.3,2.3,0,0,0-2.171-1.143,2.406,2.406,0,0,0-1.828.787,2.972,2.972,0,0,0-.782,2Zm3.568-3.955h1.564v1.336a5.258,5.258,0,0,1,1.02-1.011,3.066,3.066,0,0,1,1.775-.536,2.794,2.794,0,0,1,1.811.554,2.894,2.894,0,0,1,.7.932,3.419,3.419,0,0,1,1.239-1.121,3.457,3.457,0,0,1,1.6-.365,2.616,2.616,0,0,1,2.584,1.371,4.482,4.482,0,0,1,.369,1.986V0h-1.644V-6.539a1.523,1.523,0,0,0-.47-1.292,1.861,1.861,0,0,0-1.147-.352,2.277,2.277,0,0,0-1.6.624,2.74,2.74,0,0,0-.672,2.083V0h-1.608V-6.144a3.192,3.192,0,0,0-.229-1.4,1.394,1.394,0,0,0-1.345-.659,2.32,2.32,0,0,0-1.63.694,3.4,3.4,0,0,0-.734,2.514V0h-1.582Zm18.914-.211a4.294,4.294,0,0,1,1.942.47,3.582,3.582,0,0,1,1.433,1.217,4.2,4.2,0,0,1,.633,1.661A10.868,10.868,0,0,1,144.29-4.2h-6.9a4.026,4.026,0,0,0,.677,2.3,2.266,2.266,0,0,0,1.96.866A2.534,2.534,0,0,0,142-1.854a2.755,2.755,0,0,0,.6-1.1h1.556A3.276,3.276,0,0,1,143.75-1.8a4.111,4.111,0,0,1-.778,1.042,3.687,3.687,0,0,1-1.784.949A5.42,5.42,0,0,1,139.9.334a3.964,3.964,0,0,1-2.979-1.279,4.976,4.976,0,0,1-1.222-3.582,5.41,5.41,0,0,1,1.23-3.683A4.059,4.059,0,0,1,140.142-9.624Zm2.522,4.166a4.1,4.1,0,0,0-.448-1.644,2.3,2.3,0,0,0-2.171-1.143,2.406,2.406,0,0,0-1.828.787,2.972,2.972,0,0,0-.782,2Z" transform="translate(128.096 19)" fill="#ff6051"/>
    <line id="Line_38" data-name="Line 38" x1="153" transform="translate(-44.002 14.184)" fill="none" stroke="#ff6051" stroke-width="1"/>
    <line id="Line_39" data-name="Line 39" x1="150" transform="translate(294.998 14.184)" fill="none" stroke="#ff6051" stroke-width="1"/>
  </g>
</svg>
