<svg xmlns="http://www.w3.org/2000/svg" width="89.061" height="28.42" viewBox="0 0 89.061 28.42"><path d="M-32.176-10.165h1.938v4.484l4.921-4.484h2.261L-25.83-7.638a3.657,3.657,0,0,1,2.175,1.273,3.975,3.975,0,0,1,.618,2.337V0h-1.938V-3.914a2.745,2.745,0,0,0-.465-1.729,2.7,2.7,0,0,0-1.606-.836l-3.192,2.907V0h-1.938ZM-16.634.285a3.9,3.9,0,0,1-2.9-1.045,3.669,3.669,0,0,1-1.035-2.7v-6.707h1.938v6.631a2.209,2.209,0,0,0,.636,1.72,2.693,2.693,0,0,0,1.872.579,3.482,3.482,0,0,0,3.078-1.748v-7.182h1.938V0h-1.881V-1.368A4.6,4.6,0,0,1-16.634.285Zm1.444-13.148a.481.481,0,0,0-.086-.323.412.412,0,0,0-.313-.1h-.855v-1.368h1.425a1.161,1.161,0,0,1,.884.294,1.03,1.03,0,0,1,.276.732v.665h3.895v1.292h-5.225ZM-5.064-6.574a2.646,2.646,0,0,0-.494-1.777,2.25,2.25,0,0,0-1.748-.56,5.028,5.028,0,0,0-2.28.532V-9.9a5.21,5.21,0,0,1,1.188-.39,6.726,6.726,0,0,1,1.454-.161A3.706,3.706,0,0,1-4.076-9.415a4.246,4.246,0,0,1,.95,2.973V0H-5.064Zm4.408-3.591H1.282v4.484L6.2-10.165H8.464L5.69-7.638A3.657,3.657,0,0,1,7.866-6.365a3.975,3.975,0,0,1,.618,2.337V0H6.545V-3.914A2.745,2.745,0,0,0,6.08-5.643a2.7,2.7,0,0,0-1.606-.836L1.282-3.572V0H-.656ZM14.259.285a4.022,4.022,0,0,1-2.689-.846,2.977,2.977,0,0,1-1-2.4,3.007,3.007,0,0,1,1.112-2.451A4.607,4.607,0,0,1,14.7-6.327a7.88,7.88,0,0,1,3.382.7V-6.4a2.359,2.359,0,0,0-.712-1.91A3.687,3.687,0,0,0,15-8.911a9.28,9.28,0,0,0-1.786.171,6.508,6.508,0,0,0-1.52.475v-1.52A6.541,6.541,0,0,1,13.3-10.26a10.8,10.8,0,0,1,1.986-.19,5.1,5.1,0,0,1,3.553,1.083,3.78,3.78,0,0,1,1.178,2.926V0H18.078V-4.085a6.923,6.923,0,0,0-3.173-.7,2.928,2.928,0,0,0-1.814.456,1.634,1.634,0,0,0-.58,1.368q0,1.729,2.223,1.729a3.44,3.44,0,0,0,1.2-.19v1.5A5.785,5.785,0,0,1,14.259.285Zm2.185-11.951a1.532,1.532,0,0,1-1.188-.408,1.772,1.772,0,0,1-.37-1.226v-.988h1.748v.76a.59.59,0,0,0,.124.437.7.7,0,0,0,.465.114h4.484v1.311Zm6.612,5.339-.95-1.539a6.937,6.937,0,0,1,2.3-1.928,6.684,6.684,0,0,1,3.059-.655,5.247,5.247,0,0,1,3.5,1.035,3.6,3.6,0,0,1,1.216,2.9V0H30.238V-6.365a2.455,2.455,0,0,0-.694-1.928,3.047,3.047,0,0,0-2.08-.618,5.017,5.017,0,0,0-1.843.314,3.983,3.983,0,0,0-1.444,1l.817,1.273V0H23.056Z" transform="translate(56.884 20.478)" fill="#45dfe0"/><path d="M16.149,20.4,26.9,9.655a2.031,2.031,0,1,0-2.877-2.868L11.842,18.962a2.027,2.027,0,0,0-.059,2.8L24.017,34.022a2.031,2.031,0,1,0,2.877-2.868Z" transform="translate(-11.251 -6.194)" fill="#45dfe0"/></svg>