<svg xmlns="http://www.w3.org/2000/svg" width="178.087" height="54.148" viewBox="0 0 178.087 54.148"><path d="M18.049,0H160.038a18.049,18.049,0,0,1,18.049,18.049V36.1a18.049,18.049,0,0,1-18.049,18.049H18.049A18.049,18.049,0,0,1,0,36.1V18.049A18.049,18.049,0,0,1,18.049,0Z" transform="translate(0 0)" fill="#45dfe0"/><path d="M-48.526,0a1.964,1.964,0,0,1-1.51-.561,2.211,2.211,0,0,1-.523-1.567V-6.954a3.349,3.349,0,0,1,.342-1.568,7.778,7.778,0,0,1,.969-1.4,7.7,7.7,0,0,0,.618-.845,1.361,1.361,0,0,0,.2-.713,1.081,1.081,0,0,0-.3-.855A1.632,1.632,0,0,0-49.8-12.6a3.481,3.481,0,0,0-2.071.665v-1.843a4.98,4.98,0,0,1,1.33-.523,6.4,6.4,0,0,1,1.52-.181,3.228,3.228,0,0,1,2.3.722,2.477,2.477,0,0,1,.76,1.881,2.523,2.523,0,0,1-.266,1.178,8.115,8.115,0,0,1-.8,1.2,8.521,8.521,0,0,0-.845,1.245,2.679,2.679,0,0,0-.276,1.263v4.1a.9.9,0,0,0,.209.684,1,1,0,0,0,.684.19h.665V0Zm3.9-10.165h2.413V-6.1l4.389-4.066h2.774L-37.829-7.6a3.55,3.55,0,0,1,2.147,1.292,4.151,4.151,0,0,1,.608,2.375V0h-2.413V-3.762A2.828,2.828,0,0,0-37.876-5.4a2.255,2.255,0,0,0-1.416-.779l-2.926,2.717V0h-2.413Zm5.244-2.584a.447.447,0,0,0-.085-.3.412.412,0,0,0-.313-.1h-.874V-14.82h1.615a1.272,1.272,0,0,1,.95.314,1.063,1.063,0,0,1,.3.769v.608h3.9v1.577h-5.491Zm6.612,6.593a3.882,3.882,0,0,1,1.359-3.173A5.6,5.6,0,0,1-27.74-10.45a5.563,5.563,0,0,1,3.667,1.121,3.9,3.9,0,0,1,1.349,3.173V0h-2.413V-6.251a2.167,2.167,0,0,0-.674-1.738,2.875,2.875,0,0,0-1.929-.58A2.947,2.947,0,0,0-29.678-8a2.146,2.146,0,0,0-.684,1.748v1.672a1.788,1.788,0,0,1,.732-.646A2.457,2.457,0,0,1-28.5-5.472h1.539v2.014h-1.71a1.629,1.629,0,0,0-1.216.484,1.609,1.609,0,0,0-.475,1.169V0h-2.413Zm13.6.1a1.65,1.65,0,0,1-1.282-.418,1.907,1.907,0,0,1-.371-1.292V-8.987h2.166v.779a.528.528,0,0,0,.123.4.629.629,0,0,0,.427.114h2.242v1.634Zm0,5.149a1.65,1.65,0,0,1-1.282-.418,1.907,1.907,0,0,1-.371-1.292V-3.838h2.166v.779a.528.528,0,0,0,.123.4.629.629,0,0,0,.427.114h2.242V-.912ZM-11.932,0a1.964,1.964,0,0,1-1.51-.561,2.211,2.211,0,0,1-.523-1.567v-8.037h2.413v7.277a.9.9,0,0,0,.209.684,1,1,0,0,0,.684.19h.665V0Zm5.111,0a1.964,1.964,0,0,1-1.51-.561,2.211,2.211,0,0,1-.523-1.567v-8.037h2.413v7.277a.9.9,0,0,0,.209.684,1,1,0,0,0,.684.19h.665V0ZM.969.285a4.265,4.265,0,0,1-2.128-.5A3.37,3.37,0,0,1-2.518-1.606a4.153,4.153,0,0,1-.466-1.967v-6.593H-.57v6.479q0,2.09,2.223,2.09A3.081,3.081,0,0,0,4.389-3.154v-7.011H6.8V0H4.484V-1.254A4.864,4.864,0,0,1,2.84-.1,4.767,4.767,0,0,1,.969.285Zm12.065,0a4.265,4.265,0,0,1-2.128-.5A3.37,3.37,0,0,1,9.547-1.606a4.153,4.153,0,0,1-.465-1.967v-6.593h2.413v6.479q0,2.09,2.223,2.09a3.081,3.081,0,0,0,2.736-1.558v-7.011h2.413V0H16.549V-1.254A4.864,4.864,0,0,1,14.905-.1,4.767,4.767,0,0,1,13.034.285Zm11.742,0A10.9,10.9,0,0,1,22.582.057a4.486,4.486,0,0,1-1.739-.684V-2.508a6.751,6.751,0,0,0,1.852.741,7.971,7.971,0,0,0,1.872.247,4.292,4.292,0,0,0,1.643-.228.852.852,0,0,0,.5-.855.918.918,0,0,0-.266-.693,2.077,2.077,0,0,0-.722-.428q-.456-.171-1.71-.551A6.669,6.669,0,0,1,21.575-5.51a2.493,2.493,0,0,1-.808-1.957,2.515,2.515,0,0,1,1.14-2.2,5.377,5.377,0,0,1,3.078-.779,8.664,8.664,0,0,1,1.966.218,5.465,5.465,0,0,1,1.549.58v1.976a5.622,5.622,0,0,0-1.51-.646,6.57,6.57,0,0,0-1.776-.247q-2.033,0-2.033,1.1a.874.874,0,0,0,.247.646,1.888,1.888,0,0,0,.665.409q.418.161,1.273.427l.627.19a7.868,7.868,0,0,1,1.89.817,2.55,2.55,0,0,1,.95,1.007,3.216,3.216,0,0,1,.276,1.406A2.437,2.437,0,0,1,28.025-.5,5.51,5.51,0,0,1,24.776.285Zm-4.5-13.376H26.6v-2.052h2.166v3.591H20.273ZM34.409.285a7.134,7.134,0,0,1-3.781-.817v-1.9a5.606,5.606,0,0,0,3.287.836,3.839,3.839,0,0,0,2.679-.864,3.359,3.359,0,0,0,.95-2.613,3.39,3.39,0,0,0-.95-2.622,3.812,3.812,0,0,0-2.679-.874,5.659,5.659,0,0,0-3.23.836v-1.9a7.062,7.062,0,0,1,3.724-.817,5.734,5.734,0,0,1,4.113,1.415,5.2,5.2,0,0,1,1.492,3.961,5.157,5.157,0,0,1-1.5,3.943A5.741,5.741,0,0,1,34.409.285ZM31.141-13.091h8.493v1.539H31.141ZM45.315.285a7.134,7.134,0,0,1-3.781-.817v-1.9a5.606,5.606,0,0,0,3.287.836A3.839,3.839,0,0,0,47.5-2.461a3.359,3.359,0,0,0,.95-2.613A3.39,3.39,0,0,0,47.5-7.7a3.812,3.812,0,0,0-2.679-.874,5.659,5.659,0,0,0-3.23.836v-1.9a7.062,7.062,0,0,1,3.724-.817,5.734,5.734,0,0,1,4.113,1.415A5.2,5.2,0,0,1,50.92-5.073a5.157,5.157,0,0,1-1.5,3.943A5.741,5.741,0,0,1,45.315.285Z" transform="translate(88.717 33.573)" fill="#fff"/></svg>