<svg xmlns="http://www.w3.org/2000/svg" width="24.742" height="24.716" viewBox="0 0 24.742 24.716"><path d="M15.279,82.473,1.666,96.087a.543.543,0,0,0-.141.249L.015,102.392a.536.536,0,0,0,.52.666.533.533,0,0,0,.13-.016l6.057-1.509a.535.535,0,0,0,.249-.141L20.585,87.778Zm0,0" transform="translate(0 -78.342)" fill="#45dfe0"/><path d="M341.49,2.521l-1.515-1.515a2.744,2.744,0,0,0-3.79,0l-1.856,1.856,5.305,5.305,1.856-1.856a2.681,2.681,0,0,0,0-3.79Zm0,0" transform="translate(-317.532 -0.246)" fill="#45dfe0"/></svg>