<svg xmlns="http://www.w3.org/2000/svg" width="153" height="54" viewBox="0 0 153 54"><g transform="translate(0.221 -0.242)"><rect width="153" height="54" rx="27" transform="translate(-0.221 0.242)" fill="#eeeff3"/><path d="M-32.68.171a9.594,9.594,0,0,1-2.765-.389,6.086,6.086,0,0,1-2.118-1.054A1.068,1.068,0,0,1-38-2.185a1.071,1.071,0,0,1,.238-.694.7.7,0,0,1,.56-.294,1.544,1.544,0,0,1,.779.266,5.7,5.7,0,0,0,1.71.855,6.9,6.9,0,0,0,1.976.266,3.891,3.891,0,0,0,2.128-.485,1.586,1.586,0,0,0,.741-1.416A1.217,1.217,0,0,0-30.562-4.8a9.183,9.183,0,0,0-2.309-.75,13.675,13.675,0,0,1-2.717-.836A3.836,3.836,0,0,1-37.164-7.6,3.146,3.146,0,0,1-37.7-9.481a3.539,3.539,0,0,1,.665-2.109,4.381,4.381,0,0,1,1.853-1.453,6.562,6.562,0,0,1,2.669-.523,6.627,6.627,0,0,1,4.427,1.444,1.427,1.427,0,0,1,.351.408,1.079,1.079,0,0,1,.1.5,1.071,1.071,0,0,1-.238.693.7.7,0,0,1-.56.294,1.049,1.049,0,0,1-.351-.057,2.817,2.817,0,0,1-.428-.209,6.42,6.42,0,0,0-1.51-.845,5.121,5.121,0,0,0-1.8-.276,3.521,3.521,0,0,0-2.042.523,1.673,1.673,0,0,0-.75,1.453,1.334,1.334,0,0,0,.665,1.2,7.794,7.794,0,0,0,2.261.779,15.213,15.213,0,0,1,2.746.845,4.072,4.072,0,0,1,1.615,1.188,2.855,2.855,0,0,1,.561,1.805,3.448,3.448,0,0,1-.655,2.081A4.273,4.273,0,0,1-29.954-.333,6.932,6.932,0,0,1-32.68.171Zm8.455-.057a1.228,1.228,0,0,1-.846-.295,1.07,1.07,0,0,1-.332-.846V-8.36a1.04,1.04,0,0,1,.332-.836,1.253,1.253,0,0,1,.846-.285,1.29,1.29,0,0,1,.855.285,1.026,1.026,0,0,1,.342.836v7.334a1.055,1.055,0,0,1-.342.846A1.264,1.264,0,0,1-24.225.114Zm0-11.286a1.452,1.452,0,0,1-1.026-.352,1.2,1.2,0,0,1-.38-.921,1.167,1.167,0,0,1,.38-.912,1.477,1.477,0,0,1,1.026-.342,1.484,1.484,0,0,1,1.017.342,1.153,1.153,0,0,1,.389.912,1.2,1.2,0,0,1-.38.921A1.452,1.452,0,0,1-24.225-11.172Zm11.514,1.691a1.2,1.2,0,0,1,.855.3,1.068,1.068,0,0,1,.323.817v7.5a4.276,4.276,0,0,1-1.216,3.306A5.127,5.127,0,0,1-16.34,3.572,6.983,6.983,0,0,1-19.8,2.793a1.192,1.192,0,0,1-.7-1.007,1.028,1.028,0,0,1,.2-.665.639.639,0,0,1,.522-.247,1.322,1.322,0,0,1,.418.086q.247.085.513.2a10.892,10.892,0,0,0,1.226.437,4.617,4.617,0,0,0,1.244.152A2.175,2.175,0,0,0-13.889-.684V-1.9A2.9,2.9,0,0,1-15.105-.693a3.8,3.8,0,0,1-1.824.427,4.027,4.027,0,0,1-2.156-.579A3.982,3.982,0,0,1-20.558-2.47a5.248,5.248,0,0,1-.532-2.413,5.387,5.387,0,0,1,.522-2.423A3.885,3.885,0,0,1-19.1-8.939a4.075,4.075,0,0,1,2.166-.58,3.8,3.8,0,0,1,1.824.427,2.9,2.9,0,0,1,1.216,1.207v-.494a1.045,1.045,0,0,1,.323-.8A1.2,1.2,0,0,1-12.711-9.481ZM-16.3-2.109a2.216,2.216,0,0,0,1.776-.741,3.018,3.018,0,0,0,.637-2.033,3.049,3.049,0,0,0-.637-2.052A2.216,2.216,0,0,0-16.3-7.676a2.223,2.223,0,0,0-1.767.741,3.019,3.019,0,0,0-.646,2.052,2.989,2.989,0,0,0,.646,2.033A2.223,2.223,0,0,0-16.3-2.109Zm12.616-7.41a3.105,3.105,0,0,1,2.489.95A4.308,4.308,0,0,1-.38-5.7v4.674A1.11,1.11,0,0,1-.694-.19a1.189,1.189,0,0,1-.865.3,1.224,1.224,0,0,1-.874-.3,1.093,1.093,0,0,1-.323-.836V-5.567a2.463,2.463,0,0,0-.409-1.577,1.57,1.57,0,0,0-1.283-.494,2.168,2.168,0,0,0-1.643.646,2.4,2.4,0,0,0-.618,1.729v4.237A1.093,1.093,0,0,1-7.03-.19a1.224,1.224,0,0,1-.874.3,1.189,1.189,0,0,1-.865-.3,1.11,1.11,0,0,1-.314-.836V-8.379a1.045,1.045,0,0,1,.323-.8,1.224,1.224,0,0,1,.874-.3,1.132,1.132,0,0,1,.807.294,1.007,1.007,0,0,1,.314.77V-7.9A3.213,3.213,0,0,1-5.491-9.1,3.831,3.831,0,0,1-3.686-9.519ZM13.357.171A6.617,6.617,0,0,1,9.965-.665,5.592,5.592,0,0,1,7.752-3.059a8.061,8.061,0,0,1-.779-3.648,8.084,8.084,0,0,1,.769-3.639A5.528,5.528,0,0,1,9.956-12.73a6.669,6.669,0,0,1,3.4-.836,6.617,6.617,0,0,1,3.391.836,5.545,5.545,0,0,1,2.2,2.385,8.084,8.084,0,0,1,.77,3.639,8.061,8.061,0,0,1-.779,3.648A5.592,5.592,0,0,1,16.729-.665,6.579,6.579,0,0,1,13.357.171Zm0-1.957a3.505,3.505,0,0,0,2.878-1.273,5.651,5.651,0,0,0,1.036-3.648,5.61,5.61,0,0,0-1.036-3.639,3.516,3.516,0,0,0-2.878-1.264,3.538,3.538,0,0,0-2.9,1.264A5.61,5.61,0,0,0,9.424-6.707a5.651,5.651,0,0,0,1.035,3.648A3.526,3.526,0,0,0,13.357-1.786Zm15.96-7.7a1.224,1.224,0,0,1,.874.3,1.068,1.068,0,0,1,.323.817V-.988a1.03,1.03,0,0,1-.333.8,1.231,1.231,0,0,1-.864.3A1.146,1.146,0,0,1,28.5-.171a1.016,1.016,0,0,1-.3-.779v-.475A3.027,3.027,0,0,1,27.018-.257a3.4,3.4,0,0,1-1.672.409q-3.42,0-3.42-3.838V-8.36a1.068,1.068,0,0,1,.323-.817,1.2,1.2,0,0,1,.855-.3,1.224,1.224,0,0,1,.874.3,1.068,1.068,0,0,1,.323.817v4.693A2.242,2.242,0,0,0,24.7-2.2a1.548,1.548,0,0,0,1.254.475,2.045,2.045,0,0,0,1.587-.655,2.478,2.478,0,0,0,.6-1.738V-8.36a1.068,1.068,0,0,1,.323-.817A1.2,1.2,0,0,1,29.317-9.481ZM37.81-1.653q.95.057.95.855a.773.773,0,0,1-.371.693,1.768,1.768,0,0,1-1.055.2L36.822.057a3.057,3.057,0,0,1-3.192-3.42V-7.505h-.95a1.206,1.206,0,0,1-.788-.228.814.814,0,0,1-.275-.665.814.814,0,0,1,.275-.665,1.206,1.206,0,0,1,.788-.228h.95v-1.748a1.068,1.068,0,0,1,.323-.817,1.224,1.224,0,0,1,.874-.3,1.2,1.2,0,0,1,.855.3,1.068,1.068,0,0,1,.323.817v1.748H37.62a1.206,1.206,0,0,1,.789.228.814.814,0,0,1,.276.665.814.814,0,0,1-.276.665,1.206,1.206,0,0,1-.789.228H36.005v4.313q0,1.406,1.292,1.5Z" transform="translate(76.779 33.242)" fill="#45dfe0"/></g></svg>