<svg xmlns="http://www.w3.org/2000/svg" width="153" height="54" viewBox="0 0 153 54"><g transform="translate(0.221 -0.242)"><rect width="153" height="54" rx="27" transform="translate(-0.221 0.242)" fill="#eeeff3"/><path d="M4.94.19A11.944,11.944,0,0,1,2.632-.029,9.16,9.16,0,0,1,.7-.608V-6H5.054l.114,1.881H3.135v2.071a4.64,4.64,0,0,0,.855.18,7.554,7.554,0,0,0,.969.067,3.548,3.548,0,0,0,1.653-.323A1.893,1.893,0,0,0,7.5-3.164a5.485,5.485,0,0,0,.275-1.928,4.986,4.986,0,0,0-.332-2.033A1.96,1.96,0,0,0,6.365-8.151a5.561,5.561,0,0,0-2.052-.3,11.664,11.664,0,0,0-3.477.513V-9.861A10.471,10.471,0,0,1,2.774-10.3,15.841,15.841,0,0,1,4.94-10.45,5.256,5.256,0,0,1,8.93-9.1,5.642,5.642,0,0,1,10.2-5.092,5.517,5.517,0,0,1,8.93-1.15,5.279,5.279,0,0,1,4.94.19Zm10.906,0a11.944,11.944,0,0,1-2.309-.219,9.16,9.16,0,0,1-1.929-.58V-6H15.96l.114,1.881H14.041v2.071a4.64,4.64,0,0,0,.855.18,7.554,7.554,0,0,0,.969.067,3.548,3.548,0,0,0,1.653-.323A1.893,1.893,0,0,0,18.4-3.164a5.485,5.485,0,0,0,.275-1.928,4.986,4.986,0,0,0-.333-2.033,1.96,1.96,0,0,0-1.073-1.026,5.561,5.561,0,0,0-2.052-.3,11.664,11.664,0,0,0-3.477.513V-9.861A10.471,10.471,0,0,1,13.68-10.3a15.841,15.841,0,0,1,2.166-.152A5.256,5.256,0,0,1,19.836-9.1a5.642,5.642,0,0,1,1.273,4.009A5.517,5.517,0,0,1,19.836-1.15,5.279,5.279,0,0,1,15.846.19ZM22.99-3.268a3.534,3.534,0,0,1,.323-1.605,1.776,1.776,0,0,1,1.14-.884L22.515-6.27V-8.721a7.664,7.664,0,0,1,2.195-1.235,8,8,0,0,1,2.859-.494,5.78,5.78,0,0,1,3.657.978,3.957,3.957,0,0,1,1.226,3.278V0H29.887V-6.251a2.2,2.2,0,0,0-.56-1.7,2.816,2.816,0,0,0-1.89-.5,4.722,4.722,0,0,0-1.539.247,3.689,3.689,0,0,0-1.178.627v.266l2.109.57v1.558a1.584,1.584,0,0,0-1.007.617,2.561,2.561,0,0,0-.266,1.321V0H22.99ZM38.817.19A6.234,6.234,0,0,1,37.857.1a5.059,5.059,0,0,1-.865-.2L35.549-3.952H34.143l.114-1.824h2.907l1.5,4.009A2.16,2.16,0,0,0,40.508-2.6a4.391,4.391,0,0,0,.627-2.622,4.725,4.725,0,0,0-.323-1.948,1.9,1.9,0,0,0-1.064-.988,5.793,5.793,0,0,0-2.071-.295,11.639,11.639,0,0,0-1.644.124,9.677,9.677,0,0,0-1.625.37v-1.9a12.964,12.964,0,0,1,3.933-.589,5.276,5.276,0,0,1,3.98,1.311,5.49,5.49,0,0,1,1.244,3.914,6.219,6.219,0,0,1-.646,2.935A4.5,4.5,0,0,1,41.192-.437,4.656,4.656,0,0,1,38.817.19Zm10.165-6.5a2.543,2.543,0,0,0-.428-1.624,1.942,1.942,0,0,0-1.568-.523,7.078,7.078,0,0,0-1.311.133,6.862,6.862,0,0,0-1.273.361V-9.842a6.792,6.792,0,0,1,1.425-.437,8.233,8.233,0,0,1,1.653-.171,4.409,4.409,0,0,1,3.107.912,3.8,3.8,0,0,1,.959,2.869V0H48.982ZM53.9-3.268a3.534,3.534,0,0,1,.323-1.605,1.776,1.776,0,0,1,1.14-.884L53.428-6.27V-8.721a7.664,7.664,0,0,1,2.194-1.235,8,8,0,0,1,2.86-.494,5.78,5.78,0,0,1,3.658.978,3.957,3.957,0,0,1,1.225,3.278V0H60.8V-6.251a2.2,2.2,0,0,0-.561-1.7,2.816,2.816,0,0,0-1.89-.5,4.722,4.722,0,0,0-1.539.247,3.689,3.689,0,0,0-1.178.627v.266l2.109.57v1.558a1.584,1.584,0,0,0-1.007.617,2.561,2.561,0,0,0-.266,1.321V0H53.9ZM69.084.19A13.427,13.427,0,0,1,67.022.038a6.893,6.893,0,0,1-1.567-.4V-2.432a8.1,8.1,0,0,0,1.558.456,8.37,8.37,0,0,0,1.6.171A5.79,5.79,0,0,0,70.433-2a.756.756,0,0,0,.532-.77.862.862,0,0,0-.2-.589,1.585,1.585,0,0,0-.57-.39q-.371-.162-1.168-.428l-.817-.266a6.732,6.732,0,0,1-2.252-1.168,2.259,2.259,0,0,1-.712-1.777,2.653,2.653,0,0,1,1.092-2.232,5.211,5.211,0,0,1,3.182-.826,12.051,12.051,0,0,1,1.758.133,9.467,9.467,0,0,1,1.491.323v2.052a6.254,6.254,0,0,0-1.4-.38,9.224,9.224,0,0,0-1.492-.133,4.788,4.788,0,0,0-1.615.219.794.794,0,0,0-.589.789.725.725,0,0,0,.4.665,8.664,8.664,0,0,0,1.482.57q.342.095.874.285a8.659,8.659,0,0,1,1.739.779,2.537,2.537,0,0,1,.931.96A3.026,3.026,0,0,1,73.4-2.774,2.486,2.486,0,0,1,72.267-.561,5.726,5.726,0,0,1,69.084.19ZM74.8-8.93h2.166V-8H79.61l-.076,1.881H74.8Zm0,5.092h2.166v.931H79.61l-.076,1.881H74.8ZM86.2.19A5.387,5.387,0,0,1,82.6-.9,4,4,0,0,1,81.32-4.123V-10.26h2.565v6.175a2.294,2.294,0,0,0,.579,1.719,2.411,2.411,0,0,0,1.739.561,2.411,2.411,0,0,0,1.738-.561,2.294,2.294,0,0,0,.579-1.719V-10.26h2.565v6.137A4,4,0,0,1,89.8-.9,5.387,5.387,0,0,1,86.2.19ZM98.23.19A5.387,5.387,0,0,1,94.63-.9a4,4,0,0,1-1.283-3.221V-10.26h2.565v6.175a2.294,2.294,0,0,0,.579,1.719,2.411,2.411,0,0,0,1.739.561,2.411,2.411,0,0,0,1.738-.561,2.294,2.294,0,0,0,.58-1.719V-10.26h2.565v6.137A4,4,0,0,1,101.83-.9,5.387,5.387,0,0,1,98.23.19Z" transform="translate(24.779 33.242)" fill="#45dfe0"/></g></svg>