<svg xmlns="http://www.w3.org/2000/svg" width="851" height="393" viewBox="0 0 851 393">
  <g id="bgPattern" transform="translate(-9 -26)">
    <path id="Polygon_26" data-name="Polygon 26" d="M7.5,0,15,15H0Z" transform="translate(757 47)" fill="#fff" opacity="0.15"/>
    <path id="Polygon_32" data-name="Polygon 32" d="M7.5,0,15,15H0Z" transform="translate(473 132)" fill="#fff" opacity="0.15"/>
    <path id="Polygon_33" data-name="Polygon 33" d="M7.5,0,15,15H0Z" transform="translate(237 125)" fill="#fff" opacity="0.15"/>
    <path id="Polygon_34" data-name="Polygon 34" d="M7.5,0,15,15H0Z" transform="translate(126 32)" fill="#fff" opacity="0.15"/>
    <path id="Polygon_35" data-name="Polygon 35" d="M7.5,0,15,15H0Z" transform="translate(643 187)" fill="#fff" opacity="0.15"/>
    <path id="Polygon_27" data-name="Polygon 27" d="M4,0,8,8H0Z" transform="translate(670 83) rotate(180)" fill="#fff" opacity="0.15"/>
    <path id="Polygon_38" data-name="Polygon 38" d="M4,0,8,8H0Z" transform="translate(158 112) rotate(180)" fill="#fff" opacity="0.15"/>
    <path id="Polygon_39" data-name="Polygon 39" d="M4,0,8,8H0Z" transform="translate(333 205) rotate(180)" fill="#fff" opacity="0.15"/>
    <path id="Polygon_40" data-name="Polygon 40" d="M4,0,8,8H0Z" transform="translate(141 234) rotate(180)" fill="#fff" opacity="0.15"/>
    <path id="Polygon_31" data-name="Polygon 31" d="M4,0,8,8H0Z" transform="translate(740 190) rotate(180)" fill="#fff" opacity="0.15"/>
    <path id="Polygon_50" data-name="Polygon 50" d="M4,0,8,8H0Z" transform="translate(590 160) rotate(180)" fill="#fff" opacity="0.15"/>
    <path id="Polygon_28" data-name="Polygon 28" d="M4,0,8,8H0Z" transform="translate(408 202) rotate(180)" fill="#fff" opacity="0.15"/>
    <path id="Polygon_51" data-name="Polygon 51" d="M4,0,8,8H0Z" transform="translate(337 53) rotate(180)" fill="#fff" opacity="0.15"/>
    <path id="Polygon_37" data-name="Polygon 37" d="M4,0,8,8H0Z" transform="translate(831 224) rotate(180)" fill="#fff" opacity="0.15"/>
    <path id="Polygon_36" data-name="Polygon 36" d="M4,0,8,8H0Z" transform="translate(17 230) rotate(180)" fill="#fff" opacity="0.15"/>
    <path id="Polygon_29" data-name="Polygon 29" d="M4,0,8,8H0Z" transform="translate(28 86) rotate(180)" fill="#fff" opacity="0.15"/>
    <path id="Polygon_30" data-name="Polygon 30" d="M4,0,8,8H0Z" transform="translate(177 194) rotate(180)" fill="#fff" opacity="0.15"/>
    <g id="Ellipse_79" data-name="Ellipse 79" transform="translate(757 124)" fill="none" stroke="#fff" stroke-width="2" opacity="0.3">
      <circle cx="5" cy="5" r="5" stroke="none"/>
      <circle cx="5" cy="5" r="4" fill="none"/>
    </g>
    <g id="Ellipse_153" data-name="Ellipse 153" transform="translate(850 131)" fill="none" stroke="#fff" stroke-width="2" opacity="0.3">
      <circle cx="5" cy="5" r="5" stroke="none"/>
      <circle cx="5" cy="5" r="4" fill="none"/>
    </g>
    <g id="Ellipse_154" data-name="Ellipse 154" transform="translate(782 26)" fill="none" stroke="#fff" stroke-width="2" opacity="0.3">
      <circle cx="5" cy="5" r="5" stroke="none"/>
      <circle cx="5" cy="5" r="4" fill="none"/>
    </g>
    <g id="Ellipse_80" data-name="Ellipse 80" transform="translate(441 52)" fill="none" stroke="#fff" stroke-width="2" opacity="0.3">
      <circle cx="5" cy="5" r="5" stroke="none"/>
      <circle cx="5" cy="5" r="4" fill="none"/>
    </g>
    <g id="Ellipse_81" data-name="Ellipse 81" transform="translate(50 166)" fill="none" stroke="#fff" stroke-width="2" opacity="0.3">
      <circle cx="5" cy="5" r="5" stroke="none"/>
      <circle cx="5" cy="5" r="4" fill="none"/>
    </g>
    <g id="Ellipse_82" data-name="Ellipse 82" transform="translate(286 122)" fill="none" stroke="#fff" stroke-width="2" opacity="0.15">
      <circle cx="5" cy="5" r="5" stroke="none"/>
      <circle cx="5" cy="5" r="4" fill="none"/>
    </g>
    <g id="Rectangle_46" data-name="Rectangle 46" transform="translate(632.308 103.5) rotate(-45)" fill="none" stroke="#fff" stroke-width="2" opacity="0.23">
      <rect width="13" height="13" stroke="none"/>
      <rect x="1" y="1" width="11" height="11" fill="none"/>
    </g>
    <g id="Rectangle_47" data-name="Rectangle 47" transform="translate(512.308 52.5) rotate(-45)" fill="none" stroke="#fff" stroke-width="2" opacity="0.23">
      <rect width="13" height="13" stroke="none"/>
      <rect x="1" y="1" width="11" height="11" fill="none"/>
    </g>
    <g id="Rectangle_48" data-name="Rectangle 48" transform="translate(572.308 210.5) rotate(-45)" fill="none" stroke="#fff" stroke-width="2" opacity="0.23">
      <rect width="13" height="13" stroke="none"/>
      <rect x="1" y="1" width="11" height="11" fill="none"/>
    </g>
    <g id="Rectangle_49" data-name="Rectangle 49" transform="translate(566.136 92.328) rotate(-45)" fill="none" stroke="#fff" stroke-width="2" opacity="0.15">
      <rect width="9" height="9" stroke="none"/>
      <rect x="1" y="1" width="7" height="7" fill="none"/>
    </g>
    <g id="Rectangle_50" data-name="Rectangle 50" transform="translate(387.136 112.328) rotate(-45)" fill="none" stroke="#fff" stroke-width="2" opacity="0.23">
      <rect width="9" height="9" stroke="none"/>
      <rect x="1" y="1" width="7" height="7" fill="none"/>
    </g>
    <g id="Rectangle_94" data-name="Rectangle 94" transform="translate(218.136 75.328) rotate(-45)" fill="none" stroke="#fff" stroke-width="2" opacity="0.23">
      <rect width="9" height="9" stroke="none"/>
      <rect x="1" y="1" width="7" height="7" fill="none"/>
    </g>
    <g id="Rectangle_95" data-name="Rectangle 95" transform="translate(245.136 207.328) rotate(-45)" fill="none" stroke="#fff" stroke-width="2" opacity="0.23">
      <rect width="9" height="9" stroke="none"/>
      <rect x="1" y="1" width="7" height="7" fill="none"/>
    </g>
    <g id="Rectangle_96" data-name="Rectangle 96" transform="translate(54.136 84.328) rotate(-45)" fill="none" stroke="#fff" stroke-width="2" opacity="0.23">
      <rect width="9" height="9" stroke="none"/>
      <rect x="1" y="1" width="7" height="7" fill="none"/>
    </g>
    <g id="Ellipse_128" data-name="Ellipse 128" transform="translate(483 215)" fill="none" stroke="#fff" stroke-width="2" opacity="0.15">
      <circle cx="5" cy="5" r="5" stroke="none"/>
      <circle cx="5" cy="5" r="4" fill="none"/>
    </g>
    <g id="Group_129" data-name="Group 129" transform="translate(0 185)">
      <path id="Polygon_54" data-name="Polygon 54" d="M7.5,0,15,15H0Z" transform="translate(757 47)" fill="#fff" opacity="0.15"/>
      <path id="Polygon_55" data-name="Polygon 55" d="M7.5,0,15,15H0Z" transform="translate(473 132)" fill="#fff" opacity="0.15"/>
      <path id="Polygon_56" data-name="Polygon 56" d="M7.5,0,15,15H0Z" transform="translate(237 125)" fill="#fff" opacity="0.15"/>
      <path id="Polygon_57" data-name="Polygon 57" d="M7.5,0,15,15H0Z" transform="translate(126 32)" fill="#fff" opacity="0.15"/>
      <path id="Polygon_58" data-name="Polygon 58" d="M7.5,0,15,15H0Z" transform="translate(643 187)" fill="#fff" opacity="0.15"/>
      <path id="Polygon_59" data-name="Polygon 59" d="M4,0,8,8H0Z" transform="translate(670 83) rotate(180)" fill="#fff" opacity="0.15"/>
      <path id="Polygon_60" data-name="Polygon 60" d="M4,0,8,8H0Z" transform="translate(158 112) rotate(180)" fill="#fff" opacity="0.15"/>
      <path id="Polygon_61" data-name="Polygon 61" d="M4,0,8,8H0Z" transform="translate(333 205) rotate(180)" fill="#fff" opacity="0.15"/>
      <path id="Polygon_62" data-name="Polygon 62" d="M4,0,8,8H0Z" transform="translate(141 234) rotate(180)" fill="#fff" opacity="0.15"/>
      <path id="Polygon_63" data-name="Polygon 63" d="M4,0,8,8H0Z" transform="translate(740 190) rotate(180)" fill="#fff" opacity="0.15"/>
      <path id="Polygon_64" data-name="Polygon 64" d="M4,0,8,8H0Z" transform="translate(590 160) rotate(180)" fill="#fff" opacity="0.15"/>
      <path id="Polygon_65" data-name="Polygon 65" d="M4,0,8,8H0Z" transform="translate(408 202) rotate(180)" fill="#fff" opacity="0.15"/>
      <path id="Polygon_66" data-name="Polygon 66" d="M4,0,8,8H0Z" transform="translate(337 53) rotate(180)" fill="#fff" opacity="0.15"/>
      <path id="Polygon_67" data-name="Polygon 67" d="M4,0,8,8H0Z" transform="translate(831 224) rotate(180)" fill="#fff" opacity="0.15"/>
      <path id="Polygon_68" data-name="Polygon 68" d="M4,0,8,8H0Z" transform="translate(17 230) rotate(180)" fill="#fff" opacity="0.15"/>
      <path id="Polygon_69" data-name="Polygon 69" d="M4,0,8,8H0Z" transform="translate(28 86) rotate(180)" fill="#fff" opacity="0.15"/>
      <path id="Polygon_70" data-name="Polygon 70" d="M4,0,8,8H0Z" transform="translate(177 194) rotate(180)" fill="#fff" opacity="0.15"/>
      <g id="Ellipse_155" data-name="Ellipse 155" transform="translate(757 124)" fill="none" stroke="#fff" stroke-width="2" opacity="0.3">
        <circle cx="5" cy="5" r="5" stroke="none"/>
        <circle cx="5" cy="5" r="4" fill="none"/>
      </g>
      <g id="Ellipse_156" data-name="Ellipse 156" transform="translate(850 131)" fill="none" stroke="#fff" stroke-width="2" opacity="0.3">
        <circle cx="5" cy="5" r="5" stroke="none"/>
        <circle cx="5" cy="5" r="4" fill="none"/>
      </g>
      <g id="Ellipse_157" data-name="Ellipse 157" transform="translate(782 26)" fill="none" stroke="#fff" stroke-width="2" opacity="0.3">
        <circle cx="5" cy="5" r="5" stroke="none"/>
        <circle cx="5" cy="5" r="4" fill="none"/>
      </g>
      <g id="Ellipse_158" data-name="Ellipse 158" transform="translate(441 52)" fill="none" stroke="#fff" stroke-width="2" opacity="0.3">
        <circle cx="5" cy="5" r="5" stroke="none"/>
        <circle cx="5" cy="5" r="4" fill="none"/>
      </g>
      <g id="Ellipse_159" data-name="Ellipse 159" transform="translate(50 166)" fill="none" stroke="#fff" stroke-width="2" opacity="0.3">
        <circle cx="5" cy="5" r="5" stroke="none"/>
        <circle cx="5" cy="5" r="4" fill="none"/>
      </g>
      <g id="Ellipse_160" data-name="Ellipse 160" transform="translate(286 122)" fill="none" stroke="#fff" stroke-width="2" opacity="0.15">
        <circle cx="5" cy="5" r="5" stroke="none"/>
        <circle cx="5" cy="5" r="4" fill="none"/>
      </g>
      <g id="Rectangle_125" data-name="Rectangle 125" transform="translate(632.308 103.5) rotate(-45)" fill="none" stroke="#fff" stroke-width="2" opacity="0.23">
        <rect width="13" height="13" stroke="none"/>
        <rect x="1" y="1" width="11" height="11" fill="none"/>
      </g>
      <g id="Rectangle_126" data-name="Rectangle 126" transform="translate(512.308 52.5) rotate(-45)" fill="none" stroke="#fff" stroke-width="2" opacity="0.23">
        <rect width="13" height="13" stroke="none"/>
        <rect x="1" y="1" width="11" height="11" fill="none"/>
      </g>
      <g id="Rectangle_127" data-name="Rectangle 127" transform="translate(572.308 210.5) rotate(-45)" fill="none" stroke="#fff" stroke-width="2" opacity="0.23">
        <rect width="13" height="13" stroke="none"/>
        <rect x="1" y="1" width="11" height="11" fill="none"/>
      </g>
      <g id="Rectangle_128" data-name="Rectangle 128" transform="translate(566.136 92.328) rotate(-45)" fill="none" stroke="#fff" stroke-width="2" opacity="0.15">
        <rect width="9" height="9" stroke="none"/>
        <rect x="1" y="1" width="7" height="7" fill="none"/>
      </g>
      <g id="Rectangle_129" data-name="Rectangle 129" transform="translate(387.136 112.328) rotate(-45)" fill="none" stroke="#fff" stroke-width="2" opacity="0.23">
        <rect width="9" height="9" stroke="none"/>
        <rect x="1" y="1" width="7" height="7" fill="none"/>
      </g>
      <g id="Rectangle_130" data-name="Rectangle 130" transform="translate(218.136 75.328) rotate(-45)" fill="none" stroke="#fff" stroke-width="2" opacity="0.23">
        <rect width="9" height="9" stroke="none"/>
        <rect x="1" y="1" width="7" height="7" fill="none"/>
      </g>
      <g id="Rectangle_131" data-name="Rectangle 131" transform="translate(245.136 207.328) rotate(-45)" fill="none" stroke="#fff" stroke-width="2" opacity="0.23">
        <rect width="9" height="9" stroke="none"/>
        <rect x="1" y="1" width="7" height="7" fill="none"/>
      </g>
      <g id="Rectangle_132" data-name="Rectangle 132" transform="translate(54.136 84.328) rotate(-45)" fill="none" stroke="#fff" stroke-width="2" opacity="0.23">
        <rect width="9" height="9" stroke="none"/>
        <rect x="1" y="1" width="7" height="7" fill="none"/>
      </g>
      <g id="Ellipse_161" data-name="Ellipse 161" transform="translate(483 215)" fill="none" stroke="#fff" stroke-width="2" opacity="0.15">
        <circle cx="5" cy="5" r="5" stroke="none"/>
        <circle cx="5" cy="5" r="4" fill="none"/>
      </g>
    </g>
  </g>
</svg>
