<svg xmlns="http://www.w3.org/2000/svg" xmlns:xlink="http://www.w3.org/1999/xlink" width="69" height="69" viewBox="0 0 69 69"><defs><linearGradient id="a" x1="0.273" y1="0.273" x2="1.038" y2="1.038" gradientUnits="objectBoundingBox"><stop offset="0" stop-color="#fff"/><stop offset="1" stop-color="#d1d1d1"/></linearGradient><filter id="b" x="0" y="0" width="69" height="69" filterUnits="userSpaceOnUse"><feOffset dy="3" input="SourceAlpha"/><feGaussianBlur stdDeviation="3" result="c"/><feFlood flood-opacity="0.161"/><feComposite operator="in" in2="c"/><feComposite in="SourceGraphic"/></filter><linearGradient id="d" x1="0.5" x2="0.5" y2="0.986" gradientUnits="objectBoundingBox"><stop offset="0" stop-color="#f1f1f1"/><stop offset="1" stop-color="#fff"/></linearGradient><filter id="e" x="15.429" y="18.803" width="37.718" height="25.456" filterUnits="userSpaceOnUse"><feOffset input="SourceAlpha"/><feGaussianBlur stdDeviation="1.5" result="f"/><feFlood flood-opacity="0.161"/><feComposite operator="in" in2="f"/><feComposite in="SourceGraphic"/></filter></defs><g transform="translate(-10519 -2801)"><g transform="translate(10528 2807)"><g transform="matrix(1, 0, 0, 1, -9, -6)" filter="url(#b)"><path d="M51,25.5A25.5,25.5,0,1,1,25.5,0,25.5,25.5,0,0,1,51,25.5Zm0,0" transform="translate(9 6)" fill="url(#a)"/></g><path d="M93.391,73.164A20.227,20.227,0,1,1,73.164,52.937,20.227,20.227,0,0,1,93.391,73.164Zm0,0" transform="translate(-74.444 -1.28) rotate(-30)" fill="url(#d)"/></g><g transform="matrix(1, 0, 0, 1, 10519, 2801)" filter="url(#e)"><path d="M9.187-6.257a3.82,3.82,0,0,1,2.2,1.379A4.068,4.068,0,0,1,12.15-2.36a4.025,4.025,0,0,1-1.527,3.3A6.387,6.387,0,0,1,6.5,2.176,8.949,8.949,0,0,1,3.649,1.72,6.858,6.858,0,0,1,1.324.443,1.381,1.381,0,0,1,.8-.628a1.318,1.318,0,0,1,.285-.855.844.844,0,0,1,.672-.353,1.013,1.013,0,0,1,.41.08q.182.08.5.262a9.836,9.836,0,0,0,1.823.98,5.108,5.108,0,0,0,1.892.342,3.454,3.454,0,0,0,2.234-.6,2.245,2.245,0,0,0,.729-1.835A2.1,2.1,0,0,0,8.583-4.4a3.892,3.892,0,0,0-2.359-.581h-1.3a.98.98,0,0,1-.809-.353,1.253,1.253,0,0,1-.285-.809,1.24,1.24,0,0,1,.285-.821.994.994,0,0,1,.809-.342h.912q3.122,0,3.122-2.348A2.148,2.148,0,0,0,8.3-11.34a2.634,2.634,0,0,0-1.823-.593A6.3,6.3,0,0,0,2.92-10.611q-.319.182-.5.262a1.013,1.013,0,0,1-.41.08.844.844,0,0,1-.672-.353,1.318,1.318,0,0,1-.285-.855,1.239,1.239,0,0,1,.125-.581,1.855,1.855,0,0,1,.4-.49,7.318,7.318,0,0,1,2.291-1.265,8.18,8.18,0,0,1,2.724-.467,5.726,5.726,0,0,1,3.772,1.162,3.823,3.823,0,0,1,1.4,3.1,4.155,4.155,0,0,1-.7,2.313A3.84,3.84,0,0,1,9.187-6.257Zm7.521,8.251a1.427,1.427,0,0,1-1.037-.365A1.362,1.362,0,0,1,15.3.6V-12.685a1.362,1.362,0,0,1,.376-1.026,1.427,1.427,0,0,1,1.037-.365h4.513a8.433,8.433,0,0,1,6.12,2.108,7.851,7.851,0,0,1,2.177,5.914A7.882,7.882,0,0,1,27.341-.115a8.433,8.433,0,0,1-6.12,2.108ZM21.039-.4q5.538,0,5.538-5.652,0-5.63-5.538-5.63h-2.8V-.4Z" transform="translate(19.13 37.58)" fill="#45dfe0"/></g></g></svg>