<svg xmlns="http://www.w3.org/2000/svg" xmlns:xlink="http://www.w3.org/1999/xlink" width="90" height="92" viewBox="0 0 90 92"><defs><filter id="a" x="0" y="0" width="90" height="92" filterUnits="userSpaceOnUse"><feOffset dy="3" input="SourceAlpha"/><feGaussianBlur stdDeviation="5" result="b"/><feFlood flood-opacity="0.161"/><feComposite operator="in" in2="b"/><feComposite in="SourceGraphic"/></filter><linearGradient id="c" x1="0.5" x2="0.5" y2="1" gradientUnits="objectBoundingBox"><stop offset="0" stop-color="#45dfe0"/><stop offset="1" stop-color="#84cf4d"/></linearGradient><linearGradient id="d" x1="0.5" x2="0.5" y2="1" gradientUnits="objectBoundingBox"><stop offset="0" stop-color="#fff" stop-opacity="0.369"/><stop offset="1" stop-color="#fff" stop-opacity="0"/></linearGradient></defs><g transform="translate(14.667 12)"><g transform="matrix(1, 0, 0, 1, -14.67, -12)" filter="url(#a)"><path d="M15,0H60a0,0,0,0,1,0,0V62a0,0,0,0,1,0,0H15A15,15,0,0,1,0,47V15A15,15,0,0,1,15,0Z" transform="translate(15 12)" fill="#fff"/></g><path d="M10,0H54a0,0,0,0,1,0,0V52a0,0,0,0,1,0,0H10A10,10,0,0,1,0,42V10A10,10,0,0,1,10,0Z" transform="translate(6.333 5)" fill="url(#c)"/><path d="M20.683,18,11.746,9.07a1.688,1.688,0,0,1,2.391-2.384L24.262,16.8a1.685,1.685,0,0,1,.049,2.327L14.144,29.32a1.688,1.688,0,0,1-2.391-2.384Z" transform="translate(15.582 12.806)" fill="#fff" stroke="#fff" stroke-width="1"/><path d="M8,0H52a0,0,0,0,1,0,0V8a0,0,0,0,1,0,0H0A0,0,0,0,1,0,8V8A8,8,0,0,1,8,0Z" transform="translate(8.333 6)" fill="url(#d)"/></g></svg>