<svg xmlns="http://www.w3.org/2000/svg" xmlns:xlink="http://www.w3.org/1999/xlink" width="90" height="92" viewBox="0 0 90 92"><defs><filter id="a" x="0" y="0" width="90" height="92" filterUnits="userSpaceOnUse"><feOffset dy="3" input="SourceAlpha"/><feGaussianBlur stdDeviation="5" result="b"/><feFlood flood-opacity="0.161"/><feComposite operator="in" in2="b"/><feComposite in="SourceGraphic"/></filter><linearGradient id="c" x1="0.5" x2="0.5" y2="1" gradientUnits="objectBoundingBox"><stop offset="0" stop-color="#45dfe0"/><stop offset="1" stop-color="#84cf4d"/></linearGradient><linearGradient id="d" x1="0.5" x2="0.5" y2="1" gradientUnits="objectBoundingBox"><stop offset="0" stop-color="#fff" stop-opacity="0.369"/><stop offset="1" stop-color="#fff" stop-opacity="0"/></linearGradient></defs><g transform="translate(15 -311)"><g transform="matrix(1, 0, 0, 1, -15, 311)" filter="url(#a)"><path d="M0,0H45A15,15,0,0,1,60,15V47A15,15,0,0,1,45,62H0a0,0,0,0,1,0,0V0A0,0,0,0,1,0,0Z" transform="translate(15 12)" fill="#fff"/></g><path d="M0,0H44A10,10,0,0,1,54,10V42A10,10,0,0,1,44,52H0a0,0,0,0,1,0,0V0A0,0,0,0,1,0,0Z" transform="translate(0 328)" fill="url(#c)"/><path d="M15.321,18l8.937-8.93a1.688,1.688,0,0,0-2.391-2.384L11.742,16.8a1.685,1.685,0,0,0-.049,2.327L21.86,29.32a1.688,1.688,0,0,0,2.391-2.384Z" transform="translate(9.249 335.806)" fill="#fff" stroke="#fff" stroke-width="1"/><path d="M0,0H44a8,8,0,0,1,8,8V8a0,0,0,0,1,0,0H0A0,0,0,0,1,0,8V0A0,0,0,0,1,0,0Z" transform="translate(0 329)" fill="url(#d)"/></g></svg>