<svg xmlns="http://www.w3.org/2000/svg" width="58.973" height="60" viewBox="0 0 58.973 60"><g transform="translate(-382.808 -87.649)"><g transform="translate(387.925 107.047) rotate(-16)"><g transform="translate(0 0)"><path d="M15.2,14.017,21.956,0l6.637,14.017,15.321,2.047L32.81,26.856,35.6,42.238,21.956,34.671,8.311,42.238l2.855-15.382L0,16.064Z" fill="#f8e237"/></g><path d="M27.292,28.265h0L13.645,20.7,0,28.265l1.673-9.016L20.261,0l.021.045L35.6,2.091,24.5,12.884l2.793,15.381Z" transform="translate(8.311 13.973)" fill="#ffd500"/></g><g transform="translate(388.817 88.859) rotate(22)"><g transform="translate(0 0)"><path d="M5.771,5.324,8.34,0,10.86,5.324l5.82.777-4.218,4.1,1.06,5.842L8.34,13.168,3.156,16.042,4.241,10.2,0,6.1Z" fill="#f8e237"/></g><path d="M10.366,10.736h0L5.183,7.862,0,10.735.635,7.311,7.7,0,7.7.017l5.819.777L9.3,4.893l1.061,5.842Z" transform="translate(3.157 5.307)" fill="#ffd500"/></g><g transform="matrix(0.966, -0.259, 0.259, 0.966, 420.136, 90.751)"><g transform="translate(0 0)"><path d="M4.146,3.825,5.993,0,7.8,3.825l4.181.558L8.952,7.328l.762,4.2L5.993,9.461,2.269,11.525l.778-4.2L0,4.383Z" fill="#f8e237"/></g><path d="M7.447,7.713h0L3.723,5.648,0,7.713l.456-2.46L5.529,0l.006.012L9.715.571,6.685,3.516l.762,4.2Z" transform="translate(2.268 3.813)" fill="#ffd500"/></g></g></svg>