<svg xmlns="http://www.w3.org/2000/svg" xmlns:xlink="http://www.w3.org/1999/xlink" width="69" height="69" viewBox="0 0 69 69"><defs><linearGradient id="a" x1="0.273" y1="0.273" x2="1.038" y2="1.038" gradientUnits="objectBoundingBox"><stop offset="0" stop-color="#fff"/><stop offset="1" stop-color="#d1d1d1"/></linearGradient><filter id="b" x="0" y="0" width="69" height="69" filterUnits="userSpaceOnUse"><feOffset dy="3" input="SourceAlpha"/><feGaussianBlur stdDeviation="3" result="c"/><feFlood flood-opacity="0.161"/><feComposite operator="in" in2="c"/><feComposite in="SourceGraphic"/></filter><linearGradient id="d" x1="0.5" x2="0.5" y2="0.986" gradientUnits="objectBoundingBox"><stop offset="0" stop-color="#f1f1f1"/><stop offset="1" stop-color="#fff"/></linearGradient><linearGradient id="e" x1="0.5" x2="0.5" y2="1" gradientUnits="objectBoundingBox"><stop offset="0" stop-color="#f8e237"/><stop offset="0.46" stop-color="#f9c93b"/><stop offset="1" stop-color="#ff5f4a"/></linearGradient><linearGradient id="f" x1="0.215" y1="-6.139" x2="0.83" y2="-7.039" gradientUnits="objectBoundingBox"><stop offset="0" stop-color="#9eb644"/><stop offset="1" stop-color="#738611"/></linearGradient><linearGradient id="g" x1="0.211" y1="-9.114" x2="0.826" y2="-10.014" xlink:href="#f"/><linearGradient id="h" x1="0.5" x2="0.5" y2="1" gradientUnits="objectBoundingBox"><stop offset="0" stop-color="#fff" stop-opacity="0.239"/><stop offset="1" stop-color="#fff" stop-opacity="0"/></linearGradient></defs><g transform="translate(-11481.131 -2854.131)"><g transform="translate(962.131 53.131)"><g transform="translate(10528 2807)"><g transform="matrix(1, 0, 0, 1, -9, -6)" filter="url(#b)"><path d="M51,25.5A25.5,25.5,0,1,1,25.5,0,25.5,25.5,0,0,1,51,25.5Zm0,0" transform="translate(9 6)" fill="url(#a)"/></g><path d="M93.391,73.164A20.227,20.227,0,1,1,73.164,52.937,20.227,20.227,0,0,1,93.391,73.164Zm0,0" transform="translate(-74.444 -1.28) rotate(-30)" fill="url(#d)"/></g></g><g transform="translate(11501 2870)"><rect width="3.38" height="5.9" transform="translate(22.064 4.241)" fill="#f05540"/><rect width="5.961" height="3.196" transform="translate(20.773 1.229)" fill="#bc35eb"/><path d="M44.8,79.246V92.828H68.892V79.246L56.846,67.2h0C52.175,71.932,49.532,74.575,44.8,79.246Z" transform="translate(-42.219 -63.328)" fill="url(#e)"/><path d="M10468.029,2716.969l8.008,9.983-12.037.158Z" transform="translate(-10457.257 -2697.609)" fill="#ff5f4a" opacity="0.26"/><path d="M4.742,13.47h0L0,7.649,4.02,0A1.433,1.433,0,0,0,5.268,1.408a1.261,1.261,0,0,0,1.1-.844L11.7,5.674V12L4.742,13.47Z" transform="translate(14.961 15.871)" fill="#ff5f4a" opacity="0.25"/><path d="M68.953,79.246,56.907,67.2c-2.4,2.335-4.241,4.179-6.084,6.023L44.8,79.246v2.766L56.846,69.966,68.892,82.011v.369h0V79.246h.061Z" transform="translate(-42.219 -63.328)" fill="#ffb74a"/><path d="M97.919,336.089H90.667V328.96a3.633,3.633,0,0,1,3.626-3.626h0a3.633,3.633,0,0,1,3.626,3.626Z" transform="translate(-85.443 -306.589)" fill="#f8e237"/><path d="M28.947,13.4,16.1.553a2.005,2.005,0,0,0-2.766,0L.553,13.4a2.005,2.005,0,0,0,0,2.766,2.005,2.005,0,0,0,2.766,0L14.75,4.732,26.181,16.164A1.956,1.956,0,0,0,28.947,13.4Z" fill="#bc35eb"/><path d="M6.387,448.547a3.181,3.181,0,0,1-.221,1.169H.221a3.194,3.194,0,1,1,6.166-1.169Z" transform="translate(20.229 -419.858)" fill="url(#f)"/><path d="M60.446,465.206a2.309,2.309,0,0,1-.16.848H55.973a2.317,2.317,0,1,1,4.473-.848Z" transform="translate(-31.771 -436.195)" fill="url(#g)"/><path d="M.843,10.756H0V3.627A3.63,3.63,0,0,1,3.626,0a3.684,3.684,0,0,1,.423.024,3.626,3.626,0,0,0-3.206,3.6v7.128Z" transform="translate(5.224 18.744)" fill="#ff5f4a"/><rect width="10.114" height="1.686" rx="0.843" transform="translate(3.218 11.43) rotate(-45)" fill="url(#h)"/><rect width="1.686" height="1.686" rx="0.843" transform="translate(1.141 13.507) rotate(-45)" fill="url(#h)"/><g transform="translate(1.686 15.685)"><path d="M5.215,447.962a2.6,2.6,0,0,1-.18.955H.18a2.608,2.608,0,1,1,5.035-.955Z" transform="translate(0 -434.743)" fill="url(#f)"/><path d="M218.566,112.746h-6.053a.432.432,0,0,1-.432-.432v-3.027a3.459,3.459,0,0,1,3.459-3.459h0A3.459,3.459,0,0,1,219,109.288v3.027A.432.432,0,0,1,218.566,112.746Z" transform="translate(-198.307 -105.172)" fill="#45dfe0"/><path d="M207.856,97.49a4.12,4.12,0,0,0-4.115,4.115v3.026a1.09,1.09,0,0,0,1.089,1.089h6.053a1.09,1.09,0,0,0,1.089-1.089v-3.026A4.12,4.12,0,0,0,207.856,97.49Zm2.779,3.765h-2.122V98.882A2.808,2.808,0,0,1,210.635,101.255ZM207.2,98.882v2.373h-2.122A2.808,2.808,0,0,1,207.2,98.882Zm-2.145,3.687H207.2v1.839h-2.145Zm3.459,1.839v-1.839h2.145v1.839Z" transform="translate(-190.623 -97.49)" fill="#fff"/><circle cx="0.457" cy="0.457" r="0.457" transform="translate(8.555 8.776)" fill="#fff"/></g></g></g></svg>