<svg xmlns="http://www.w3.org/2000/svg" width="32.438" height="32.438" viewBox="0 0 32.438 32.438"><path d="M7.189,149.111,6.06,153.326l-4.127.087a16.248,16.248,0,0,1-.119-15.145h0l3.674.674L7.1,142.594a9.68,9.68,0,0,0,.091,6.517Z" transform="translate(0 -129.508)" fill="#fbbb00"/><path d="M277.207,208.176a16.213,16.213,0,0,1-5.782,15.678h0l-4.628-.236-.655-4.089a9.666,9.666,0,0,0,4.159-4.936h-8.673v-6.416h15.579Z" transform="translate(-245.053 -194.987)" fill="#518ef8"/><path d="M54.948,318.673h0a16.224,16.224,0,0,1-24.44-4.962l5.256-4.3a9.646,9.646,0,0,0,13.9,4.939Z" transform="translate(-28.576 -289.806)" fill="#28b446"/><path d="M53.382,3.734l-5.254,4.3a9.645,9.645,0,0,0-14.219,5.05L28.625,8.76h0A16.222,16.222,0,0,1,53.382,3.734Z" transform="translate(-26.811)" fill="#f14336"/></svg>