<svg xmlns="http://www.w3.org/2000/svg" xmlns:xlink="http://www.w3.org/1999/xlink" width="68.322" height="66" viewBox="0 0 68.322 66"><defs><linearGradient id="a" x1="0.146" y1="0.245" x2="0.79" y2="0.82" gradientUnits="objectBoundingBox"><stop offset="0" stop-color="#fb4795"/><stop offset="1" stop-color="#fb4795"/></linearGradient></defs><g transform="translate(-10730 -2310)"><path d="M85.961,261.406l19.159,8.067,19.159-8.067V240.23L105.12,248.3,85.961,240.23Zm0,0" transform="translate(10659.393 2106.527)" fill="#f8e237"/><path d="M257.12,261.406V240.23L237.961,248.3v21.176Zm0,0" transform="translate(10526.552 2106.527)" fill="#f8c537"/><path d="M5.957,248.3l19.159,9.075L35.2,248.3,15.032,240.23Zm0,0" transform="translate(10729.313 2106.527)" fill="url(#a)"/><path d="M248.041,257.372,267.2,248.3l-9.075-8.067L237.957,248.3Zm0,0" transform="translate(10526.555 2106.527)" fill="#eb3885"/><path d="M98.124,184.23l-20.167,7.059,20.167,8.067,20.167-8.067Zm0,0" transform="translate(10666.388 2155.469)" fill="#ff5f4a"/><path d="M29.784,155.451a20.87,20.87,0,0,0-5.316-7.149,13,13,0,0,0-7.957-3.167,6.865,6.865,0,0,0-5.784,2.44,4.289,4.289,0,0,0-.693,3.183,3.043,3.043,0,0,0,1.25,2.044l-1.116,1.68a5.036,5.036,0,0,1-2.119-3.366,6.284,6.284,0,0,1,1.045-4.725,8.9,8.9,0,0,1,7.454-3.272,15.017,15.017,0,0,1,9.211,3.635,22.858,22.858,0,0,1,5.844,7.828Zm0,0" transform="translate(10727.569 2191.399)" fill="#83cf4e"/><path d="M103.472,33.1a4.5,4.5,0,0,1-.809-2.642c-.015-.183-.029-.365-.051-.544-.076-.634-.384-1.138-.6-1.149a1.258,1.258,0,0,0-.495.13c-.173.061-.347.12-.522.163a1.951,1.951,0,0,1-2.355-1.008,2.105,2.105,0,0,1-.026-1.289l.776-3.371a9.706,9.706,0,0,0-1.556.262,10.776,10.776,0,0,1-2.121.327,1.662,1.662,0,0,1-1.492-.617A1.742,1.742,0,0,1,93.958,22a9.482,9.482,0,0,1,.484-1.66,3.842,3.842,0,0,0,.381-1.977s0,0,0,0l-.078,0a3.66,3.66,0,0,0-3.064,2.028l-1.82-.87a5.653,5.653,0,0,1,4.8-3.173,2.134,2.134,0,0,1,1.432.379,2,2,0,0,1,.71,1.206,5.487,5.487,0,0,1-.454,3.09c-.112.312-.221.613-.3.9a11.267,11.267,0,0,0,1.354-.247,9.508,9.508,0,0,1,2.413-.325,1.65,1.65,0,0,1,1.57.875,1.747,1.747,0,0,1,.075,1.2l-.839,3.638c.081-.025.161-.053.24-.081a3.252,3.252,0,0,1,1.26-.241c1.494.073,2.333,1.521,2.5,2.923.025.2.042.413.059.621a2.986,2.986,0,0,0,.364,1.532Zm0,0" transform="translate(10657.988 2306.189)" fill="#bc35eb"/><path d="M213.992,51.061l1.849-.8,2.435,5.6-1.849.8Zm0,0" transform="translate(10545.993 2272.554)" fill="#83cf4e"/><path d="M259.178,69.512l-1.815-.879a20.844,20.844,0,0,1,3.487-5.1l1.478,1.372a18.841,18.841,0,0,0-3.15,4.609Zm0,0" transform="translate(10509.595 2260.954)" fill="#f8e237"/><path d="M452.87,153.36l-.366-1.983a26.545,26.545,0,0,1,3.145-.392l.126,2.013A24.569,24.569,0,0,0,452.87,153.36Zm0,0" transform="translate(10339.052 2184.524)" fill="#83cf4e"/><path d="M341.957,16.23h2.017v2.017h-2.017Zm0,0" transform="translate(10434.158 2303.799)" fill="#bc35eb"/><path d="M157.961,144.23h2.017v2.017h-2.017Zm0,0" transform="translate(10607.012 2191.18)" fill="#ff5f4a"/><path d="M69.961,192.23h2.017v2.017H69.961Zm0,0" transform="translate(10673.376 2148.477)" fill="#f8e237"/><path d="M10775.827,2362.911l20.158-8.03-20.158-7.131Z" transform="translate(-11.315 -8.086)" fill="#f3503a"/><g transform="matrix(0.966, -0.259, 0.259, 0.966, 10766.115, 2312.336)"><g transform="translate(0 0)"><path d="M3.123,2.881,4.513,0,5.876,2.881,9.024,3.3,6.742,5.519,7.316,8.68l-2.8-1.555L1.709,8.68l.586-3.161L0,3.3Z" fill="#f8e237"/></g><path d="M5.608,5.808h0L2.8,4.253,0,5.808.344,3.956,4.164,0l0,.009L7.316.43,5.034,2.648l.574,3.161Z" transform="translate(1.708 2.871)" fill="#ffd500"/></g><g transform="matrix(0.695, 0.719, -0.719, 0.695, 10792.053, 2321.63)"><g transform="translate(0 0)"><path d="M3.123,2.881,4.513,0,5.876,2.881,9.024,3.3,6.742,5.519,7.316,8.68l-2.8-1.555L1.709,8.68l.586-3.161L0,3.3Z" fill="#f8e237"/></g><path d="M5.608,5.808h0L2.8,4.253,0,5.808.344,3.956,4.164,0l0,.009L7.316.43,5.034,2.648l.574,3.161Z" transform="translate(1.708 2.871)" fill="#ffd500"/></g><circle cx="2" cy="2" r="2" transform="translate(10758 2316)" fill="#fb4795"/><ellipse cx="2.5" cy="2" rx="2.5" ry="2" transform="translate(10730 2347)" fill="#45dfe0"/><ellipse cx="2" cy="2.5" rx="2" ry="2.5" transform="translate(10789 2342)" fill="#ff5f4a"/><path d="M10777.777,2326.008s1.549-2.707.67-4.841" transform="translate(-11.797 -1.523)" fill="none" stroke="#45dfe0" stroke-width="2"/><ellipse cx="0.753" cy="0.377" rx="0.753" ry="0.377" transform="translate(10736.166 2340.054) rotate(-70)" fill="#fff"/><ellipse cx="0.753" cy="0.377" rx="0.753" ry="0.377" transform="translate(10730.413 2349.017) rotate(-70)" fill="#fff"/><ellipse cx="0.753" cy="0.377" rx="0.753" ry="0.377" transform="translate(10757.7 2328.078) rotate(16)" fill="#fff"/><ellipse cx="0.753" cy="0.377" rx="0.753" ry="0.377" transform="translate(10752.049 2323.159) rotate(-9)" fill="#fff"/><g transform="translate(6 8.891)"><path d="M.308,10.065C.629,9.6,6.9,3.515,9.916,3.378S15.051,4.573,13.326,6.4s-5.035,1.027-4.732-.92S12.7.881,18.244.485" transform="translate(10764.445 2329.553) rotate(-11)" fill="none" stroke="#45dfe0" stroke-width="3"/><ellipse cx="0.753" cy="0.377" rx="0.753" ry="0.377" transform="matrix(0.891, 0.454, -0.454, 0.891, 10777.541, 2330.072)" fill="#fff"/></g><ellipse cx="0.753" cy="0.377" rx="0.753" ry="0.377" transform="matrix(0.848, -0.53, 0.53, 0.848, 10758.532, 2316.962)" fill="#fff"/><ellipse cx="0.753" cy="0.377" rx="0.753" ry="0.377" transform="matrix(0.848, -0.53, 0.53, 0.848, 10789.408, 2343.321)" fill="#fff"/><path d="M69.961,192.23H70.7v.941h-.741Zm0,0" transform="translate(10673.376 2148.94)" fill="#fff"/><path d="M69.961,192.23H70.7v.941h-.741Zm0,0" transform="translate(10706.512 2127.853)" fill="#fff"/><path d="M69.961,192.23H70.7v.941h-.741Zm0,0" transform="translate(10695.216 2143.668)" fill="#fff"/><g transform="matrix(0.574, -0.819, 0.819, 0.574, 10169.459, 2635.579)"><g transform="translate(589 320.24)"><path d="M2.292,1.367a.5.5,0,0,1,.945,0L5.3,7.337A.5.5,0,0,1,4.828,8H.7a.5.5,0,0,1-.473-.663Z" transform="translate(1 5.529) rotate(-90)" fill="#f8e237"/><rect width="14.572" height="5.529" transform="translate(8)" fill="#172d82"/><path d="M.5,0,1,3H0Z" transform="translate(0 3.265) rotate(-90)" fill="#172d82"/></g><g transform="translate(578.616 284.22) rotate(9)"><path d="M156.688,477.164a1.379,1.379,0,0,0,2.748,0Zm0,0" transform="translate(-154.025 -464.523)" fill="#bc35eb"/><path d="M87.037,94.127a4.037,4.037,0,0,0-3.315,6.3A7.339,7.339,0,0,1,85,104.316h4.128a7.536,7.536,0,0,1,1.291-3.908,4.037,4.037,0,0,0-3.384-6.281Zm0,0" transform="translate(-83.029 -94.126)" fill="#f8e237"/><path d="M5.921,5.354H1.793A7.33,7.33,0,0,0,.512,1.462,4.014,4.014,0,0,1,0,.4,4.571,4.571,0,0,0,3.789,2.41h.033A4.582,4.582,0,0,0,7.814,0a4,4,0,0,1-.6,1.446,7.537,7.537,0,0,0-1.29,3.907Z" transform="translate(0.195 4.835)" fill="#f8cb37"/><path d="M27.486,52.992,26.4,49.645" transform="translate(-24.093 -42.863)" fill="none" stroke="#ff5f4a" stroke-width="1"/><path d="M26.4,52.992l1.086-3.347" transform="translate(-21.479 -42.863)" fill="none" stroke="#ff5f4a" stroke-width="1"/><path d="M130.165,368.922v1.628c0,.482-.589.872-1.315.872h-2.4c-.726,0-1.315-.391-1.315-.872v-1.628c0-.11.134-.2.3-.2h4.429c.165,0,.3.089.3.2Zm0,0" transform="translate(-123.614 -358.796)" fill="#fb4795"/><path d="M10547.4,2206.881a3.043,3.043,0,0,1,.973-2.715" transform="translate(-10546.684 -2202.5)" fill="none" stroke="#fff" stroke-width="0.5"/><path d="M10557.2,2226.691l.644-.691.6.691.724-.691.563.691.643-.691.523.691" transform="translate(-10554.934 -2219.741)" fill="none" stroke="#fb4795" stroke-width="0.5"/></g></g></g></svg>