<svg xmlns="http://www.w3.org/2000/svg" width="20" height="20" viewBox="0 0 20 20"><path d="M17.07,2.931a10,10,0,1,0,0,14.139,9.992,9.992,0,0,0,0-14.139ZM10.4,14.172a.822.822,0,0,1-1.3.668L6.4,12.908H5a.821.821,0,0,1-.821-.821V7.915A.821.821,0,0,1,5,7.094H6.4L9.106,5.162a.822.822,0,0,1,1.3.668Zm1.538-.99a.822.822,0,0,1-.581-1.4,2.514,2.514,0,0,0,0-3.558.821.821,0,1,1,1.161-1.161,4.156,4.156,0,0,1,0,5.88A.819.819,0,0,1,11.943,13.182Zm2.35,1.529a.821.821,0,0,1-1.161-1.161,5.024,5.024,0,0,0,0-7.1.821.821,0,0,1,1.161-1.161A6.668,6.668,0,0,1,14.293,14.711Z" transform="translate(0 -0.001)" fill="#9a9ab1"/></svg>