<svg xmlns="http://www.w3.org/2000/svg" xmlns:xlink="http://www.w3.org/1999/xlink" width="63.859" height="65.431" viewBox="0 0 63.859 65.431"><defs><linearGradient id="a" x1="0.868" y1="0.073" x2="0.103" y2="0.897" gradientUnits="objectBoundingBox"><stop offset="0" stop-color="#f8e237"/><stop offset="1" stop-color="#ff5f4a"/></linearGradient><radialGradient id="b" cx="0.425" cy="0.26" r="0.622" gradientTransform="matrix(0.277, 0.961, -0.961, 0.277, 0.528, -0.128)" gradientUnits="objectBoundingBox"><stop offset="0" stop-color="#f8e237"/><stop offset="0.247" stop-color="#f9952d"/><stop offset="0.431" stop-color="#fa7629"/><stop offset="0.682" stop-color="#fb5f26"/><stop offset="1" stop-color="#fc3c22"/></radialGradient><linearGradient id="c" x1="0.688" y1="0.272" x2="0.347" y2="0.624" gradientUnits="objectBoundingBox"><stop offset="0" stop-color="#bc35eb"/><stop offset="1" stop-color="#9e22c9"/></linearGradient><linearGradient id="d" x1="0.113" y1="0.109" x2="0.867" y2="0.867" gradientUnits="objectBoundingBox"><stop offset="0" stop-color="#fb4795"/><stop offset="1" stop-color="#e93181"/></linearGradient><linearGradient id="e" x1="0.106" y1="0.114" x2="0.871" y2="0.897" xlink:href="#d"/><linearGradient id="f" x1="0.349" y1="0.702" x2="0.64" y2="0.386" xlink:href="#c"/><linearGradient id="g" x1="1" y1="0.586" x2="0" y2="0.586" gradientUnits="objectBoundingBox"><stop offset="0" stop-color="#fff" stop-opacity="0.278"/><stop offset="1" stop-color="#fff" stop-opacity="0"/></linearGradient><linearGradient id="h" x1="1" y1="0.586" x2="0" y2="0.586" gradientUnits="objectBoundingBox"><stop offset="0" stop-color="#fff" stop-opacity="0.259"/><stop offset="1" stop-color="#fff" stop-opacity="0"/></linearGradient></defs><g transform="translate(-526.515 -220.2)"><g transform="translate(544.58 239.862)"><g transform="translate(0 0)"><g transform="translate(14.232 0.982)"><path d="M22.521,101.744a.474.474,0,0,0,.67,0L45.472,79.463a.474.474,0,1,0-.67-.67L22.521,101.074A.474.474,0,0,0,22.521,101.744Z" transform="translate(-15.971 -72.243)" fill="#f9eed7"/><path d="M120.113,35.57a.474.474,0,0,0,.67,0l18.7-18.7a.474.474,0,1,0-.67-.67l-18.7,18.7A.474.474,0,0,0,120.113,35.57Z" transform="translate(-119.974 -16.065)" fill="#f9eed7"/><path d="M13.324,142.358a.474.474,0,0,0,.67,0l18.7-18.7a.474.474,0,1,0-.67-.67l-18.7,18.7A.474.474,0,0,0,13.324,142.358Z" transform="translate(-2.248 -111.916)" fill="#f9eed7"/><path d="M75.915,48.35a.474.474,0,0,0,.67,0L98.866,26.069a.474.474,0,0,0-.67-.67L75.915,47.68A.474.474,0,0,0,75.915,48.35Z" transform="translate(-74.834 -24.318)" fill="#f9eed7"/><path d="M39.893,67.634a.474.474,0,0,0,.67,0L64.755,43.443a.474.474,0,0,0-.67-.67L39.894,66.964A.474.474,0,0,0,39.893,67.634Z" transform="translate(-37.033 -39.913)" fill="#f9eed7"/><path d="M45.656,49.2,63.2,66.745a.474.474,0,0,0,.67-.67L46.326,48.533a.474.474,0,0,0-.67.67Z" transform="translate(-36.737 -45.083)" fill="#f9eed7"/><path d="M135.437,138.986l15.558,15.558a.474.474,0,1,0,.67-.67l-15.558-15.558a.474.474,0,0,0-.67.67Z" transform="translate(-133.728 -125.67)" fill="#f9eed7"/><path d="M28.649,32.2,44.206,47.753a.474.474,0,0,0,.67-.67L29.319,31.526a.474.474,0,0,0-.67.67Z" transform="translate(-16.003 -29.817)" fill="#f9eed7"/><path d="M18.986,22.534,31.379,34.927a.474.474,0,0,0,.67-.67L19.656,21.864a.474.474,0,0,0-.67.67Z" transform="translate(-2.186 -21.145)" fill="#f9eed7"/><path d="M176,179.549l12.393,12.393a.474.474,0,0,0,.67-.67l-12.393-12.393a.474.474,0,0,0-.67.67Z" transform="translate(-175.282 -162.079)" fill="#f9eed7"/><path d="M99.05,102.6l17.543,17.543a.474.474,0,0,0,.67-.67L99.72,101.927a.474.474,0,0,0-.67.67Z" transform="translate(-95.599 -93.008)" fill="#f9eed7"/><path d="M72.631,76.18,90.116,93.665a.474.474,0,0,0,.67-.67L73.3,75.51a.474.474,0,0,0-.67.67Z" transform="translate(-66.418 -69.297)" fill="#f9eed7"/></g><path d="M215.191,238.275l.8.8a.853.853,0,0,0,1.192.013l.734-.7a20.48,20.48,0,0,1,11.579-5.48l2.548-.312-.207-1.693-2.548.312a22.214,22.214,0,0,0-10.127,3.941,22.032,22.032,0,0,0,4.124-10.907l.129-1.359a.855.855,0,0,0,0-.1l-.861.015-.841-.08-.129,1.36a20.33,20.33,0,0,1-6.373,12.964.853.853,0,0,0-.021,1.226Z" transform="translate(-207.892 -200.577)" fill="#ff5f4a"/><path d="M353.846,363.421l.074.086q.58.674,1.205,1.307c.224.227.452.451.684.668q.621.587,1.281,1.131l6.263-6.263a1.42,1.42,0,0,0,.322-1.513,1.4,1.4,0,0,0-.322-.5l-1.206-1.206a1.423,1.423,0,0,0-2.012,0l-1.981,1.982Z" transform="translate(-353.846 -320.844)" fill="#45d0e0"/><path d="M365.618,363.421l.074.086q.58.674,1.205,1.307c.224.227.452.451.684.668l6.139-6.139.2-.2a1.423,1.423,0,1,0-2.012-2.012l-1.981,1.982Z" transform="translate(-365.618 -320.844)" fill="#45dfe0"/><path d="M3.8,24.82a21.816,21.816,0,0,1,6.311-11.834,22.815,22.815,0,0,1,9-5.632,18.507,18.507,0,0,1,2.836-.679C26.3,6,30.169,7.088,32.824,9.743s3.744,6.52,3.067,10.882a18.564,18.564,0,0,1-.773,3.118,22.9,22.9,0,0,1-5.538,8.716,21.821,21.821,0,0,1-11.833,6.311,14.753,14.753,0,0,1-5.111-.055,11.549,11.549,0,0,1-3.313-1.178,10.677,10.677,0,0,1-4.2-4.121,11.407,11.407,0,0,1-1.18-3.045A14.527,14.527,0,0,1,3.8,24.82ZM8.35,33.547c.1.119.212.233.324.346s.227.22.346.324A8.237,8.237,0,0,0,11.6,35.765a8.9,8.9,0,0,0,1.02.321,11.439,11.439,0,0,0,3.867.262c.052-.005.106-.01.159-.016.234-.025.471-.055.71-.092.153-.024.306-.05.459-.079q.124-.022.247-.048a16.418,16.418,0,0,0,2.706-.8c.316-.122.63-.256.942-.4a19.439,19.439,0,0,0,2.654-1.475c.268-.174.531-.358.792-.548A21.738,21.738,0,0,0,27.4,31.008q.186-.177.369-.36c.1-.1.2-.205.3-.309a21.722,21.722,0,0,0,1.888-2.24q.287-.39.552-.789A19.69,19.69,0,0,0,32,24.668q.215-.467.4-.939a16.461,16.461,0,0,0,.836-2.792c.011-.048.02-.1.029-.147.037-.186.07-.371.1-.558q.035-.225.061-.446c.007-.053.014-.106.019-.158.011-.09.019-.178.028-.266a11.464,11.464,0,0,0-.263-3.866,9.126,9.126,0,0,0-.32-1.02A8.276,8.276,0,0,0,31.34,11.9c-.1-.119-.213-.233-.325-.346s-.227-.22-.346-.324a8.24,8.24,0,0,0-2.579-1.55,9.1,9.1,0,0,0-1.02-.32A11.439,11.439,0,0,0,23.2,9.1q-.109.01-.218.022l-.047.005c-.2.021-.4.049-.6.08-.186.029-.371.061-.558.1-.049.009-.1.018-.149.029a16.572,16.572,0,0,0-2.791.836q-.472.186-.937.4a19.645,19.645,0,0,0-2.644,1.484q-.4.265-.789.551a22.019,22.019,0,0,0-2.24,1.889c-.1.1-.208.2-.309.3-.122.122-.242.244-.36.368a21.847,21.847,0,0,0-1.88,2.248q-.286.392-.548.792a19.222,19.222,0,0,0-1.475,2.654q-.215.467-.4.942a16.453,16.453,0,0,0-.8,2.708c-.017.081-.033.164-.048.245-.029.153-.056.306-.079.459-.037.239-.067.475-.092.71-.005.055-.011.108-.016.162a11.459,11.459,0,0,0,.263,3.864,9.077,9.077,0,0,0,.32,1.021A8.259,8.259,0,0,0,8.35,33.547Z" transform="translate(9.707 -6.479)" fill="url(#a)"/><path d="M391.659,381.9q.579.674,1.205,1.307a1.024,1.024,0,0,0,.487-.273l3.985-3.984a1.02,1.02,0,1,0-1.444-1.443l-3.984,3.984A1,1,0,0,0,391.659,381.9Z" transform="translate(-391.585 -339.238)" fill="#7cf4f5"/></g><g transform="translate(10.947 4.389)"><g transform="translate(0 0)"><path d="M216.8,127.038l1.4,1.4a3.1,3.1,0,0,1,.493.642h0a3.081,3.081,0,0,1-4.85,3.716l-1.4-1.4Z" transform="translate(-202.453 -117.047)" fill="#bc35eb"/><path d="M221.38,127.038l1.4,1.4a3.1,3.1,0,0,1,.493.642h0a3.081,3.081,0,0,1-5.257,2.03l-.357-.357Z" transform="translate(-207.03 -117.047)" fill="#ff5f4a"/><path d="M256.117,9.993l-4.038-9.2a1.326,1.326,0,0,0-2.151-.4l-7.771,7.771a1.326,1.326,0,0,0,.4,2.151l9.2,4.038" transform="translate(-241.767 -0.001)" fill="#f9eed7"/><ellipse cx="0.904" cy="0.904" rx="0.904" ry="0.904" transform="translate(12.967 11.239)" fill="#ff8e80"/><path d="M284.679,82.052l9.044,6.794-1.148,1.1-9.2-4.038a1.326,1.326,0,0,1-.4-2.151Z" transform="translate(-282.584 -75.599)" fill="#e8dbc4"/><path d="M266.464,31.4h0a.74.74,0,0,0-.377.976l2.23,5.035a.74.74,0,0,0,.976.377h0a.74.74,0,0,0,.377-.976l-2.23-5.035A.74.74,0,0,0,266.464,31.4Z" transform="translate(-257.291 -28.87)" fill="#fcf8f2"/></g></g></g><g transform="translate(527.04 245.271)"><path d="M14.351,0A14.351,14.351,0,1,1,0,14.351,14.351,14.351,0,0,1,14.351,0Z" transform="translate(0)" fill="url(#b)"/><path d="M12.12,28.551a21.211,21.211,0,0,0,4.465-9.185c.728-3.678.013-8.661-.869-12.671-.562-.026-1.149-.039-1.763-.026a25.727,25.727,0,0,0-3.155.5,18.618,18.618,0,0,1-2.427,5.071,22.444,22.444,0,0,0-2.938,6.311,30.07,30.07,0,0,0-.419,6.826,14.441,14.441,0,0,1-1.31-1.24,31.751,31.751,0,0,1,.477-5.841,23.446,23.446,0,0,1,3.091-6.706,21.554,21.554,0,0,0,2.1-4.05A26.671,26.671,0,0,0,0,12.279a14.276,14.276,0,0,1,.407-1.9,27.838,27.838,0,0,1,9.254-4.25c0-.153,0-.293-.014-.434C9.41,3.49,6.651,3.079,5.42,3a14.368,14.368,0,0,1,1.6-1.075c1.795.4,3.666,1.428,3.895,3.633a2.058,2.058,0,0,1,.014.282A28.647,28.647,0,0,1,13.889,5.4c.537-.013,1.048-.013,1.546,0C14.788,2.7,14.142.624,13.94,0L14.2,0q.546,0,1.082.04c.309.977.908,2.966,1.479,5.429a16.181,16.181,0,0,1,5.8,1.392V6.848a3.643,3.643,0,0,1,2.064-2.362q.463.489.879,1.02a2.521,2.521,0,0,0-1.716,1.7.844.844,0,0,0-.051.256,22.243,22.243,0,0,1,4.363,3.3,14.3,14.3,0,0,1,.354,1.9l-.117.117A25.806,25.806,0,0,0,23.725,8.93a21.283,21.283,0,0,0,1.38,4.484,23.709,23.709,0,0,1,1.877,7.115q0,.18,0,.359A14.354,14.354,0,0,1,25.6,23.069q.1-1.245.1-2.5a21.949,21.949,0,0,0-1.8-6.693,17.19,17.19,0,0,1-1.52-5.684,14.631,14.631,0,0,0-5.314-1.4c.856,4.062,1.507,9.031.767,12.838a22.544,22.544,0,0,1-4.193,9.069A14.434,14.434,0,0,1,12.12,28.551Z" transform="translate(0.149 0.001)" fill="#172d82" stroke="rgba(0,0,0,0)" stroke-miterlimit="10" stroke-width="1"/></g><g transform="translate(539.981 220.2)"><g transform="translate(0 0)"><g transform="translate(15.032 0) rotate(39)"><path d="M23.455,7.964a1.225,1.225,0,0,1,0,1.732l-1.8,1.8a1.225,1.225,0,0,1-1.732,0L17.546,9.12,9.12,17.546,11.5,19.923a1.225,1.225,0,0,1,0,1.732l-1.8,1.8a1.225,1.225,0,0,1-1.732,0L6.572,22.063,5.107,23.527a1.224,1.224,0,0,1-1.732,0L.359,20.511a1.224,1.224,0,0,1,0-1.732l1.465-1.465L.431,15.922a1.225,1.225,0,0,1,0-1.732l1.8-1.8a1.225,1.225,0,0,1,1.732,0l2.377,2.377,8.426-8.426L12.389,3.963a1.225,1.225,0,0,1,0-1.732l1.8-1.8a1.225,1.225,0,0,1,1.732,0l1.393,1.393L18.779.359a1.224,1.224,0,0,1,1.732,0l3.016,3.016a1.224,1.224,0,0,1,0,1.732L22.063,6.572Z" transform="translate(0 0)" fill="#f8e237"/><path d="M3,3.964A1.225,1.225,0,0,1,3,2.231L4.8.431a1.225,1.225,0,0,1,1.732,0L7.927,1.824,9.392.359a1.224,1.224,0,0,1,1.732,0L14.14,3.375a1.224,1.224,0,0,1,0,1.732L12.675,6.572l1.393,1.393a1.225,1.225,0,0,1,0,1.732l-1.8,1.8a1.225,1.225,0,0,1-1.732,0L8.158,9.12,6.5,10.777,0,11.719,5.379,6.341Z" transform="translate(9.387 0)" fill="#f8d837"/><path d="M6.213,3.375a1.224,1.224,0,0,1,0,1.732L4.748,6.572,0,1.824,1.465.359A1.224,1.224,0,0,1,3.2.359Z" transform="translate(17.314 0)" fill="url(#c)"/><g transform="translate(0 0.072)"><path d="M11.425,7.892a1.225,1.225,0,0,1,0,1.732l-1.8,1.8a1.225,1.225,0,0,1-1.732,0L.359,3.891a1.225,1.225,0,0,1,0-1.732l1.8-1.8a1.225,1.225,0,0,1,1.732,0Z" transform="translate(12.031 0)" fill="url(#d)"/><path d="M11.425,7.892a1.225,1.225,0,0,1,0,1.732l-1.8,1.8a1.225,1.225,0,0,1-1.732,0L.359,3.891a1.225,1.225,0,0,1,0-1.732l1.8-1.8a1.225,1.225,0,0,1,1.732,0Z" transform="translate(0.072 11.958)" fill="url(#e)"/><path d="M6.572,4.748,5.107,6.213a1.224,1.224,0,0,1-1.732,0L.359,3.2a1.224,1.224,0,0,1,0-1.732L1.824,0Z" transform="translate(0 17.242)" fill="url(#f)"/></g></g></g><rect width="1.277" height="11.496" rx="0.639" transform="matrix(-0.995, 0.105, -0.105, -0.995, 8.257, 23.167)" fill="url(#g)"/><rect width="1.277" height="11.496" rx="0.639" transform="matrix(0.995, -0.105, 0.105, 0.995, 25.479, 10.044)" fill="url(#h)"/></g></g></svg>