<svg xmlns="http://www.w3.org/2000/svg" xmlns:xlink="http://www.w3.org/1999/xlink" width="852.417" height="355" viewBox="0 0 852.417 355"><defs><filter id="a" x="782.25" y="78" width="69" height="46" filterUnits="userSpaceOnUse"><feOffset dy="3" input="SourceAlpha"/><feGaussianBlur stdDeviation="3" result="b"/><feFlood flood-opacity="0.161"/><feComposite operator="in" in2="b"/><feComposite in="SourceGraphic"/></filter><filter id="c" x="2.777" y="117.119" width="69.946" height="47.763" filterUnits="userSpaceOnUse"><feOffset dy="3" input="SourceAlpha"/><feGaussianBlur stdDeviation="3" result="d"/><feFlood flood-opacity="0.161"/><feComposite operator="in" in2="d"/><feComposite in="SourceGraphic"/></filter><filter id="e" x="4.495" y="250.877" width="74.509" height="58.246" filterUnits="userSpaceOnUse"><feOffset dy="3" input="SourceAlpha"/><feGaussianBlur stdDeviation="3" result="f"/><feFlood flood-opacity="0.161"/><feComposite operator="in" in2="f"/><feComposite in="SourceGraphic"/></filter><filter id="g" x="775.333" y="241.507" width="77.084" height="47.985" filterUnits="userSpaceOnUse"><feOffset dy="3" input="SourceAlpha"/><feGaussianBlur stdDeviation="3" result="h"/><feFlood flood-opacity="0.161"/><feComposite operator="in" in2="h"/><feComposite in="SourceGraphic"/></filter><filter id="i" x="0" y="38" width="75.75" height="45" filterUnits="userSpaceOnUse"><feOffset dy="3" input="SourceAlpha"/><feGaussianBlur stdDeviation="3" result="j"/><feFlood flood-opacity="0.161"/><feComposite operator="in" in2="j"/><feComposite in="SourceGraphic"/></filter><filter id="k" x="33.25" y="8.5" width="787" height="338" filterUnits="userSpaceOnUse"><feOffset input="SourceAlpha"/><feGaussianBlur stdDeviation="2" result="l"/><feFlood flood-opacity="0.161"/><feComposite operator="in" in2="l"/><feComposite in="SourceGraphic"/></filter></defs><g transform="translate(1.25 -19)"><rect width="811" height="353" rx="20" transform="translate(20 20)" fill="#ff5f4a"/><rect width="104" height="355" rx="1" transform="translate(374 19)" fill="#d84a37"/><rect width="795" height="336" rx="15" transform="translate(28 28.5)" fill="#f8e237"/><g transform="matrix(1, 0, 0, 1, -1.25, 19)" filter="url(#a)"><rect width="51" height="28" rx="5" transform="translate(791.25 84)" fill="#fb64a6"/></g><g transform="matrix(1, 0, 0, 1, -1.25, 19)" filter="url(#c)"><rect width="51" height="28" rx="5" transform="matrix(1, 0.03, -0.03, 1, 12.75, 123.12)" fill="#bc35eb"/></g><g transform="matrix(1, 0, 0, 1, -1.25, 19)" filter="url(#e)"><rect width="51" height="28" rx="5" transform="matrix(0.97, -0.26, 0.26, 0.97, 13.5, 270.08)" fill="#fb4795"/></g><g transform="matrix(1, 0, 0, 1, -1.25, 19)" filter="url(#g)"><path d="M5424.75,1427h56.75l-13.25,14.75L5482.5,1454h-57.75Z" transform="translate(-4707.67 -890.61) rotate(-3)" fill="#ff5f4a"/></g><g transform="matrix(1, 0, 0, 1, -1.25, 19)" filter="url(#i)"><path d="M5424.75,1427h56.75l-13.25,14.75L5482.5,1454h-57.75Z" transform="translate(5491.5 1498) rotate(180)" fill="#45dfe0"/></g><g transform="matrix(1, 0, 0, 1, -1.25, 19)" filter="url(#k)"><rect width="775" height="326" rx="5" transform="translate(39.25 14.5)" fill="#f4f4f8"/></g></g></svg>