<svg xmlns="http://www.w3.org/2000/svg" width="213.667" height="86.318" viewBox="0 0 213.667 86.318"><g transform="translate(-318.333 -91)"><g transform="translate(318.333 132.396)"><path d="M73.537,103.272c-.372,3.524-.721,7.051-1.125,10.57a36.087,36.087,0,0,1-.8,5.252,5.623,5.623,0,0,1-7.416,3.871,6.069,6.069,0,0,1-2.736-2.632c-2.68-5.174-5.2-10.439-7.736-15.694-1.431-2.966-2.89-5.927-4.131-8.981-1.078-2.653-.1-5.12,2.145-6.131,2.272-1.025,4.751,0,5.92,2.575,2.153,4.751,4.234,9.538,6.346,14.309.179.405.364.809.723,1.607.188-1.715.339-3.046.48-4.379.477-4.51.844-9.04,1.461-13.524.453-3.292,2.8-5.053,5.488-4.167a5.673,5.673,0,0,1,2.853,2.264c1.945,3.224,3.651,6.609,5.439,9.937,1.05,1.954,2.081,3.92,3.3,6.221.1-3.06.176-5.755.276-8.449.117-3.162.136-6.338.416-9.479.256-2.87,2.193-4.422,4.694-4.106A4.721,4.721,0,0,1,93.216,87.6c-.36,6.9-.782,13.791-1.224,20.682a62.534,62.534,0,0,1-.676,6.763c-.73,4.172-5.979,5.972-8.852,2.9a33.009,33.009,0,0,1-4.023-6.2c-1.615-2.805-3.095-5.7-4.633-8.552Z" transform="translate(-49.16 -82.296)" fill="#fff"/><path d="M278.77,103.178q3.07-2.729,6.141-5.457c1.566-1.386,3.095-2.819,4.721-4.13a4.1,4.1,0,0,1,6.022.438,3.991,3.991,0,0,1-.535,5.9c-2.6,2.3-5.329,4.449-8,6.663-.321.265-.641.532-1.068.886.355.564.692,1.122,1.049,1.666,2.2,3.359,4.482,6.671,6.566,10.1a5.815,5.815,0,0,1,.887,3.507,4.085,4.085,0,0,1-6.79,2.367,14.953,14.953,0,0,1-2.724-3.405c-2.452-3.885-4.814-7.827-7.341-11.959-.131.509-.233.794-.275,1.088-.424,2.942-.82,5.888-1.26,8.828a4.332,4.332,0,0,1-8.6-1.038q1.691-12.508,3.543-25c.39-2.628,2.356-3.89,5.01-3.478a4.024,4.024,0,0,1,3.534,4.86c-.295,2.284-.637,4.561-.959,6.841l-.167,1.182Z" transform="translate(-157.823 -86.173)" fill="#fff"/><path d="M377.842,101.573a7.354,7.354,0,0,0-.158-.99,4.161,4.161,0,0,0-7.94-.514,7.1,7.1,0,0,0-.2,2.473c.139,2.229.366,4.456.572,6.846-.436-.172-.663-.258-.887-.35a10.415,10.415,0,0,0-11.7,2.671c-4.059,4.5-4.576,12.086-1.135,17.444,2.437,3.8,5.759,6.019,10.472,5.5a8.229,8.229,0,0,0,5.409-3,13.107,13.107,0,0,0,3.169,1.525c2.9.491,4.959-1.667,4.7-4.811C379.4,119.432,378.613,110.5,377.842,101.573Zm-10.779,24.84a4.42,4.42,0,0,1-1.927-.154,4.828,4.828,0,0,1-3.186-4.654c-.112-2.391.872-4.159,2.725-4.9a4.236,4.236,0,0,1,1.486-.309c2.5-.366,4.731,1.655,4.96,4.764C371.343,124.151,369.505,126.349,367.063,126.413Z" transform="translate(-200.923 -89.807)" fill="#fff"/><path d="M234,122.811a9.642,9.642,0,0,0,1.859-.208,2.393,2.393,0,0,0,2.158-2.386,12.322,12.322,0,0,0-11.363-13.259,13,13,0,0,0-13.922,12.963,12.821,12.821,0,0,0,8.181,12.624,16.413,16.413,0,0,0,11.082-.118,14.912,14.912,0,0,0,4.622-2.61,3.487,3.487,0,0,0,.4-4.694c-.98-1.4-2.524-1.781-4.345-1.06-.389.153-.776.311-1.165.46a11.962,11.962,0,0,1-6.757.809,3.487,3.487,0,0,1-3-2.512h1.326C226.719,122.819,230.361,122.829,234,122.811ZM221.347,117c.49-1.992,2.077-3.047,4.323-2.966.183-.008.372-.005.565,0A3.375,3.375,0,0,1,229.628,117Z" transform="translate(-130.558 -94.563)" fill="#fff"/><g transform="translate(45.752 6.716)"><path d="M149.766,131.341c-.424,2.732-.832,5.468-1.277,8.2a4.152,4.152,0,1,1-8.192-1.311q1.249-8.2,2.547-16.394a4.117,4.117,0,0,1,4.858-3.594,4.051,4.051,0,0,1,3.334,4.9C150.628,125.878,150.19,128.608,149.766,131.341Z" transform="translate(-140.237 -106.866)" fill="#fff"/><path d="M152.984,95.755a4.706,4.706,0,0,1,3.849,5.645,4.8,4.8,0,0,1-5.7,3.984,5.007,5.007,0,0,1-3.956-5.773A4.878,4.878,0,0,1,152.984,95.755Z" transform="translate(-143.653 -95.666)" fill="#fff"/></g><g transform="translate(139.181 7.705)"><path d="M335.758,133.352c-.4,2.688-.792,5.379-1.213,8.064a4.218,4.218,0,0,1-4.74,3.775,4.145,4.145,0,0,1-3.53-4.917q1.163-8.2,2.454-16.377a4.178,4.178,0,1,1,8.252,1.266C336.593,127.9,336.168,130.623,335.758,133.352Z" transform="translate(-326.222 -108.847)" fill="#fff"/><path d="M337.126,107.4a4.988,4.988,0,0,1-4.246-5.558,4.84,4.84,0,0,1,5.58-4.153,4.713,4.713,0,0,1,4.126,5.555A4.8,4.8,0,0,1,337.126,107.4Z" transform="translate(-329.513 -97.633)" fill="#fff"/></g><g transform="translate(59.862 15.298)"><path d="M188.883,130.7a7.234,7.234,0,0,1-2.861,5.993,11.747,11.747,0,0,1-7.395,2.178,21.167,21.167,0,0,1-4.9-.5,10.9,10.9,0,0,1-3.753-1.653,3.524,3.524,0,0,1-1.233-1.4,4.37,4.37,0,0,1-.422-1.931,3.609,3.609,0,0,1,.713-2.258,2.386,2.386,0,0,1,1.929-1,3.955,3.955,0,0,1,1.386.256c.407.153.826.332,1.253.53a14.706,14.706,0,0,0,2.379.967,10.009,10.009,0,0,0,2.821.339,4.107,4.107,0,0,0,2.112-.445,1.019,1.019,0,0,0,.573-.924.945.945,0,0,0-.216-.671,2.771,2.771,0,0,0-1.145-.583c-.661-.218-1.741-.49-3.2-.809a12.288,12.288,0,0,1-6.031-2.64,6.687,6.687,0,0,1-1.942-5.079,7.325,7.325,0,0,1,1.346-4.3,8.957,8.957,0,0,1,3.629-2.959,12.041,12.041,0,0,1,5.1-1.055,14.092,14.092,0,0,1,3.938.56,12.219,12.219,0,0,1,3.446,1.592,3.666,3.666,0,0,1,1.663,3.245,3.777,3.777,0,0,1-.708,2.321,2.362,2.362,0,0,1-1.934,1.03,5.506,5.506,0,0,1-2.793-.967,12.032,12.032,0,0,0-1.914-.892,6.13,6.13,0,0,0-1.967-.281,3.213,3.213,0,0,0-1.836.447,1.14,1.14,0,0,0-.538,1.017,1.079,1.079,0,0,0,.623,1.012,12.746,12.746,0,0,0,3.441,1,19.172,19.172,0,0,1,4.873,1.595,6.47,6.47,0,0,1,2.718,2.512A7.667,7.667,0,0,1,188.883,130.7Z" transform="translate(-168.325 -112.75)" fill="#fff"/></g><g transform="translate(180.794 14.459)"><path d="M430.418,127.351a7.234,7.234,0,0,1-1.832,6.383,11.748,11.748,0,0,1-6.933,3.369,21.171,21.171,0,0,1-4.912.311,11.679,11.679,0,0,1-2.087-.331,10.109,10.109,0,0,1-1.886-.68,3.494,3.494,0,0,1-1.449-1.184,4.346,4.346,0,0,1-.735-1.833,3.6,3.6,0,0,1,.331-2.344,2.384,2.384,0,0,1,1.738-1.3,3.954,3.954,0,0,1,1.41.024c.427.086.87.19,1.324.315a14.73,14.73,0,0,0,2.506.561,10,10,0,0,0,2.838-.132,4.1,4.1,0,0,0,2.01-.787,1.018,1.018,0,0,0,.412-1.006.944.944,0,0,0-.324-.626,2.772,2.772,0,0,0-1.226-.385c-.688-.106-1.795-.2-3.294-.268a12.288,12.288,0,0,1-6.384-1.607,6.687,6.687,0,0,1-2.754-4.688,7.32,7.32,0,0,1,.617-4.466,8.956,8.956,0,0,1,3.091-3.518,12.038,12.038,0,0,1,4.857-1.883,14.091,14.091,0,0,1,3.977-.1,12.213,12.213,0,0,1,3.662,1,3.672,3.672,0,0,1,2.176,2.926,3.777,3.777,0,0,1-.315,2.406,2.363,2.363,0,0,1-1.737,1.335,5.5,5.5,0,0,1-2.912-.493,12.16,12.16,0,0,0-2.038-.563,6.14,6.14,0,0,0-1.986.048,3.214,3.214,0,0,0-1.737.744,1.141,1.141,0,0,0-.362,1.092,1.08,1.08,0,0,0,.782.9,12.753,12.753,0,0,0,3.559.417,19.158,19.158,0,0,1,5.069.768,6.472,6.472,0,0,1,3.1,2.028A7.671,7.671,0,0,1,430.418,127.351Z" transform="translate(-409.06 -111.08)" fill="#fff"/></g><ellipse cx="4.144" cy="4.144" rx="4.144" ry="4.144" transform="translate(205.378 33.759)" fill="#f8e237"/></g><text transform="translate(372 114)" fill="#fff" font-size="23" font-family="Nunito-ExtraBold, Nunito" font-weight="800"><tspan x="0" y="0">Welcome</tspan></text><text transform="translate(418 132)" fill="#fff" font-size="13" font-family="Nunito-ExtraBold, Nunito" font-weight="800"><tspan x="0" y="0">To</tspan></text><line x2="41.277" transform="translate(373.571 128.028)" fill="none" stroke="#fff" stroke-width="1"/><line x2="41.277" transform="translate(436.7 128.028)" fill="none" stroke="#fff" stroke-width="1"/></g></svg>