<svg xmlns="http://www.w3.org/2000/svg" xmlns:xlink="http://www.w3.org/1999/xlink" width="216" height="93" viewBox="0 0 216 93"><defs><linearGradient id="a" x1="0.5" x2="0.5" y2="1" gradientUnits="objectBoundingBox"><stop offset="0" stop-color="#fff072"/><stop offset="0.054" stop-color="#fad126"/><stop offset="0.87" stop-color="#fdb60d"/><stop offset="1" stop-color="#fd9c0b"/></linearGradient></defs><g transform="translate(-404 -625)"><rect width="216" height="93" rx="46.5" transform="translate(404 625)" fill="#fff"/><g transform="translate(324 1784)"><path d="M40,0H161a40,40,0,0,1,0,80H40A40,40,0,0,1,40,0Z" transform="translate(88 -1153)" fill="url(#a)"/><ellipse cx="10.181" cy="7.272" rx="10.181" ry="7.272" transform="matrix(0.914, -0.407, 0.407, 0.914, 100.466, -1139.504)" fill="#fff362" opacity="0.53"/><path d="M200.7,29.292a39.966,39.966,0,0,1-40,40H40a40,40,0,0,1-40-40c0-.727,0-1.454.073-2.182A39.966,39.966,0,0,0,40,64.924H160.709A39.952,39.952,0,0,0,200.632,27.11C200.7,27.837,200.7,28.564,200.7,29.292Z" transform="translate(88 -1142.267)" fill="#f98c13"/></g></g></svg>