<svg xmlns="http://www.w3.org/2000/svg" xmlns:xlink="http://www.w3.org/1999/xlink" width="78" height="60" viewBox="0 0 78 60"><defs><linearGradient id="a" x1="0.5" x2="0.5" y2="1" gradientUnits="objectBoundingBox"><stop offset="0" stop-color="#f8e237"/><stop offset="1" stop-color="#f8c537"/></linearGradient><linearGradient id="b" x1="0.5" x2="0.5" y2="1" gradientUnits="objectBoundingBox"><stop offset="0" stop-color="#bc35eb"/><stop offset="1" stop-color="#6b35eb"/></linearGradient><linearGradient id="c" x1="0.5" x2="0.5" y2="1" gradientUnits="objectBoundingBox"><stop offset="0" stop-color="#45dfe0"/><stop offset="1" stop-color="#45b6e0"/></linearGradient><linearGradient id="d" x1="0.5" x2="0.5" y2="1" gradientUnits="objectBoundingBox"><stop offset="0" stop-color="#fb4795"/><stop offset="1" stop-color="#ee3686"/></linearGradient><linearGradient id="e" x1="0.5" x2="0.5" y2="1" gradientUnits="objectBoundingBox"><stop offset="0" stop-color="#f8e237"/><stop offset="1" stop-color="#e0f837"/></linearGradient><linearGradient id="f" x1="0.5" x2="0.5" y2="1" gradientUnits="objectBoundingBox"><stop offset="0" stop-color="#fff"/><stop offset="1" stop-color="#e4f1ff"/></linearGradient><linearGradient id="i" y1="0.57" x2="1" y2="0.57" gradientUnits="objectBoundingBox"><stop offset="0" stop-color="#fff" stop-opacity="0.631"/><stop offset="1" stop-color="#fff" stop-opacity="0"/></linearGradient><linearGradient id="j" y1="0.57" x2="1" y2="0.57" gradientUnits="objectBoundingBox"><stop offset="0" stop-color="#fff" stop-opacity="0.38"/><stop offset="1" stop-color="#fff" stop-opacity="0"/></linearGradient><linearGradient id="k" y1="0.57" x2="1" y2="0.57" gradientUnits="objectBoundingBox"><stop offset="0" stop-color="#fff" stop-opacity="0.439"/><stop offset="1" stop-color="#fff" stop-opacity="0"/></linearGradient><linearGradient id="l" y1="0.57" x2="1" y2="0.57" gradientUnits="objectBoundingBox"><stop offset="0" stop-color="#fff" stop-opacity="0.349"/><stop offset="1" stop-color="#fff" stop-opacity="0"/></linearGradient><linearGradient id="n" x1="0.5" x2="0.5" y2="1" gradientUnits="objectBoundingBox"><stop offset="0" stop-color="#e94b36"/><stop offset="1" stop-color="#ff5f4a" stop-opacity="0"/></linearGradient><linearGradient id="p" x1="0.5" x2="0.5" y2="1" gradientUnits="objectBoundingBox"><stop offset="0" stop-color="#fff" stop-opacity="0.2"/><stop offset="1" stop-color="#ff5f4a" stop-opacity="0"/></linearGradient></defs><g transform="translate(-10092 -1986)"><rect width="78" height="12" transform="translate(10092 2034)" fill="#ff5f4a"/><rect width="12" height="35" rx="2" transform="translate(10096 1999)" fill="url(#a)"/><rect width="12" height="29" rx="2" transform="translate(10136 2005)" fill="url(#b)"/><rect width="15" height="42" rx="2" transform="translate(10108 1992)" fill="url(#c)"/><rect width="13" height="47" rx="2" transform="translate(10123 1987)" fill="url(#d)"/><rect width="11.128" height="47.691" rx="2" transform="matrix(0.985, -0.174, 0.174, 0.985, 10144.484, 1987.933)" fill="url(#e)"/><rect width="12" height="3" transform="translate(10096 2002)" fill="#ff5f4a"/><rect width="10.847" height="2.034" transform="matrix(0.985, -0.174, 0.174, 0.985, 10145.807, 1994.445)" fill="#8635eb"/><rect width="10.847" height="4.746" transform="matrix(0.985, -0.174, 0.174, 0.985, 10152.116, 2030.079)" fill="#8635eb"/><rect width="11" height="4" rx="1" transform="translate(10110 1998)" fill="url(#f)"/><rect width="7" height="2" rx="1" transform="translate(10139 2009)" fill="url(#f)"/><rect width="7" height="2" rx="1" transform="translate(10139 2012)" fill="url(#f)"/><rect width="13" height="1" transform="translate(10123 1992)" fill="#f8e237"/><rect width="13" transform="translate(10123 1996)" fill="#f8e237"/><rect width="13" height="3" transform="translate(10123 2031)" fill="#bc35eb"/><rect width="12" height="3" transform="translate(10096 2030)" fill="#ff5f4a"/><g transform="translate(10097.854 1987.464)"><rect width="3" height="33" rx="1" transform="translate(0.146 13.537)" fill="url(#i)"/><rect width="3" height="29" rx="1" transform="translate(39.146 17.537)" fill="url(#j)"/><rect width="2" height="41" rx="1" transform="translate(12.146 5.537)" fill="url(#k)"/><rect width="4" height="47" rx="1" transform="translate(25.146 -0.463)" fill="url(#l)"/><rect width="3.39" height="46.78" rx="1" transform="matrix(0.985, -0.174, 0.174, 0.985, 47.398, 0.881)" fill="url(#l)"/></g><rect width="78" height="3" transform="translate(10092 2034)" fill="#e94b36"/><rect width="78" height="4" transform="translate(10092 2039)" fill="url(#n)"/><rect width="78" height="4" transform="translate(10170 2046) rotate(180)" fill="url(#n)"/><rect width="78" transform="translate(10092 2037)" fill="url(#p)"/></g></svg>