<svg xmlns="http://www.w3.org/2000/svg" xmlns:xlink="http://www.w3.org/1999/xlink" width="93" height="85.663" viewBox="0 0 93 85.663"><defs><linearGradient id="a" x1="0.5" x2="0.5" y2="1" gradientUnits="objectBoundingBox"><stop offset="0" stop-color="#ff5f4a"/><stop offset="1" stop-color="#ef4029"/></linearGradient><filter id="b" x="0" y="10" width="56" height="73" filterUnits="userSpaceOnUse"><feOffset dy="-3" input="SourceAlpha"/><feGaussianBlur stdDeviation="3" result="c"/><feFlood flood-opacity="0.141"/><feComposite operator="in" in2="c"/><feComposite in="SourceGraphic"/></filter><linearGradient id="d" y1="0.583" x2="0.759" y2="0.583" gradientUnits="objectBoundingBox"><stop offset="0" stop-color="#fff" stop-opacity="0.259"/><stop offset="1" stop-color="#fff" stop-opacity="0"/></linearGradient><filter id="f" x="38" y="10" width="55" height="73" filterUnits="userSpaceOnUse"><feOffset dy="-3" input="SourceAlpha"/><feGaussianBlur stdDeviation="3" result="g"/><feFlood flood-opacity="0.129"/><feComposite operator="in" in2="g"/><feComposite in="SourceGraphic"/></filter><linearGradient id="h" x1="0.5" x2="0.5" y2="1" gradientUnits="objectBoundingBox"><stop offset="0" stop-color="#e84f3b"/><stop offset="1" stop-color="#d83621"/></linearGradient><linearGradient id="i" y1="0.581" x2="1" y2="0.587" gradientUnits="objectBoundingBox"><stop offset="0" stop-color="#fff"/><stop offset="0.393" stop-color="#fdfdfd"/><stop offset="1" stop-color="#eee"/></linearGradient><filter id="j" x="5.667" y="12.366" width="50.919" height="73.296" filterUnits="userSpaceOnUse"><feOffset dy="3" input="SourceAlpha"/><feGaussianBlur stdDeviation="3" result="k"/><feFlood flood-opacity="0.161"/><feComposite operator="in" in2="k"/><feComposite in="SourceGraphic"/></filter><linearGradient id="l" x1="1" y1="0.581" x2="0" y2="0.587" xlink:href="#i"/><linearGradient id="m" x1="1.004" y1="0.519" x2="-0.004" y2="0.481" gradientUnits="objectBoundingBox"><stop offset="0" stop-color="#fb4795"/><stop offset="1" stop-color="#f11e1e"/></linearGradient><linearGradient id="n" x1="1.004" y1="0.519" x2="-0.004" y2="0.481" gradientUnits="objectBoundingBox"><stop offset="0" stop-color="#bc35eb"/><stop offset="1" stop-color="#bc35eb"/></linearGradient><filter id="p" x="38.215" y="12.366" width="48.951" height="73.296" filterUnits="userSpaceOnUse"><feOffset dy="3" input="SourceAlpha"/><feGaussianBlur stdDeviation="3" result="q"/><feFlood flood-opacity="0.161"/><feComposite operator="in" in2="q"/><feComposite in="SourceGraphic"/></filter><linearGradient id="r" x1="1" y1="0.452" x2="0" y2="0.567" gradientUnits="objectBoundingBox"><stop offset="0" stop-color="#fff"/><stop offset="0.51" stop-color="#fcfcfc"/><stop offset="1" stop-color="#eee"/></linearGradient><filter id="s" x="43.216" y="0" width="45.27" height="79.663" filterUnits="userSpaceOnUse"><feOffset dx="5" dy="-3" input="SourceAlpha"/><feGaussianBlur stdDeviation="3" result="t"/><feFlood flood-opacity="0.051"/><feComposite operator="in" in2="t"/><feComposite in="SourceGraphic"/></filter><filter id="v" x="43.216" y="6" width="45.27" height="79.663" filterUnits="userSpaceOnUse"><feOffset dx="5" dy="3" input="SourceAlpha"/><feGaussianBlur stdDeviation="3" result="w"/><feFlood flood-opacity="0.051"/><feComposite operator="in" in2="w"/><feComposite in="SourceGraphic"/></filter><linearGradient id="x" x1="1.004" y1="0.519" x2="-0.004" y2="0.481" gradientUnits="objectBoundingBox"><stop offset="0" stop-color="#45dfe0"/><stop offset="1" stop-color="#35bacf"/></linearGradient><linearGradient id="y" x1="0.978" y1="0.087" x2="0" y2="0.832" gradientUnits="objectBoundingBox"><stop offset="0" stop-color="#f3f3f3"/><stop offset="1" stop-color="#d8d8d8"/></linearGradient></defs><g transform="translate(-10133 -2119.81)"><g transform="matrix(1, 0, 0, 1, 10133, 2119.81)" filter="url(#b)"><path d="M2,0H38a0,0,0,0,1,0,0V55a0,0,0,0,1,0,0H2a2,2,0,0,1-2-2V2A2,2,0,0,1,2,0Z" transform="translate(9 22)" fill="url(#a)"/></g><path d="M1,0H7A0,0,0,0,1,7,0V53a0,0,0,0,1,0,0H1a1,1,0,0,1-1-1V1A1,1,0,0,1,1,0Z" transform="translate(10143 2142.81)" fill="url(#d)"/><path d="M1,0H37a0,0,0,0,1,0,0V52a0,0,0,0,1,0,0H1a1,1,0,0,1-1-1V1A1,1,0,0,1,1,0Z" transform="translate(10144 2142.81)" fill="#f8e237"/><g transform="matrix(1, 0, 0, 1, 10133, 2119.81)" filter="url(#f)"><path d="M0,0H35a2,2,0,0,1,2,2V53a2,2,0,0,1-2,2H0a0,0,0,0,1,0,0V0A0,0,0,0,1,0,0Z" transform="translate(47 22)" fill="url(#a)"/></g><path d="M1,0H38a0,0,0,0,1,0,0V52a0,0,0,0,1,0,0H1a1,1,0,0,1-1-1V1A1,1,0,0,1,1,0Z" transform="translate(10216 2194.81) rotate(180)" fill="#f8e237"/><rect width="5" height="56" transform="translate(10178 2140.81)" fill="url(#h)"/><g transform="matrix(1, 0, 0, 1, 10133, 2119.81)" filter="url(#j)"><path d="M10153.856,2204.263c-.18.371,0-53.057,0-53.057s11.244-2.424,16.955-2.226,15.884,2.226,15.884,2.226v53.057s-8.924-2.041-15.884-1.855S10154.035,2203.892,10153.856,2204.263Z" transform="translate(-10139.11 -2130.6)" fill="url(#i)"/></g><path d="M10186.194,2204.263c.176.371,0-53.057,0-53.057s-11.1-2.424-16.737-2.226-15.681,2.226-15.681,2.226v53.057s8.809-2.041,15.681-1.855S10186.019,2203.892,10186.194,2204.263Z" transform="translate(26.728 -10.793)" fill="url(#l)"/><rect width="9.647" height="4.452" rx="1" transform="translate(10205.106 2180.109)" fill="url(#m)"/><rect width="9.647" height="4.452" rx="1" transform="translate(10206.106 2159.109)" fill="url(#n)"/><g transform="matrix(1, 0, 0, 1, 10133, 2119.81)" filter="url(#p)"><path d="M10184.652,2204.263c.168.371,0-53.057,0-53.057s-10.572-2.424-15.941-2.226-14.936,2.226-14.936,2.226v53.057s8.391-2.041,14.936-1.855S10184.484,2203.892,10184.652,2204.263Z" transform="translate(-10106.56 -2130.6)" fill="url(#l)"/></g><g transform="matrix(1, 0, 0, 1, 10133, 2119.81)" filter="url(#s)"><path d="M10244,2193.472s6.742-5.938,13.783-7.423a57.453,57.453,0,0,1,13.486-1.113v-52.686s-5.094-1.669-13.486,1.484a77.317,77.317,0,0,0-13.783,6.678Z" transform="translate(-10196.78 -2119.81)" fill="url(#r)"/></g><g transform="matrix(1, 0, 0, 1, 10133, 2119.81)" filter="url(#v)"><path d="M10244,2193.472s6.742-5.938,13.783-7.423a57.453,57.453,0,0,1,13.486-1.113v-52.686s-5.094-1.669-13.486,1.484a77.317,77.317,0,0,0-13.783,6.678Z" transform="translate(-10196.78 -2119.81)" fill="url(#r)"/></g><rect width="9.647" height="4.452" rx="1" transform="matrix(-0.017, -1, 1, -0.017, 10150.788, 2146.197)" fill="url(#x)"/><path d="M10160,2278.129s8.961-1.657,13.676-1.608a108.441,108.441,0,0,1,13.325,1.608v-1.608a64.929,64.929,0,0,0-13.325-1.855,70.5,70.5,0,0,0-13.676,1.855Z" transform="translate(-9.999 -91.708)" fill="#e9e9e9" opacity="0.52"/><path d="M10160,2278.129s8.961-1.657,13.676-1.608a108.441,108.441,0,0,1,13.325,1.608v-1.608a64.929,64.929,0,0,0-13.325-1.855,70.5,70.5,0,0,0-13.676,1.855Z" transform="translate(-9.999 -95.789)" fill="#e9e9e9" opacity="0.52"/><path d="M10160,2278.129s8.961-1.657,13.676-1.608a108.441,108.441,0,0,1,13.325,1.608v-1.608a64.929,64.929,0,0,0-13.325-1.855,70.5,70.5,0,0,0-13.676,1.855Z" transform="translate(-9.999 -99.871)" fill="#e9e9e9" opacity="0.52"/><path d="M10160,2278.129s8.961-1.657,13.676-1.608a108.441,108.441,0,0,1,13.325,1.608v-1.608a64.929,64.929,0,0,0-13.325-1.855,70.5,70.5,0,0,0-13.676,1.855Z" transform="translate(-9.999 -103.952)" fill="#e9e9e9" opacity="0.52"/><path d="M10160,2278.129s8.961-1.657,13.676-1.608a108.441,108.441,0,0,1,13.325,1.608v-1.608a64.929,64.929,0,0,0-13.325-1.855,70.5,70.5,0,0,0-13.676,1.855Z" transform="translate(-9.999 -108.033)" fill="#e9e9e9" opacity="0.52"/><path d="M10160,2278.129s8.961-1.657,13.676-1.608a108.441,108.441,0,0,1,13.325,1.608v-1.608a64.929,64.929,0,0,0-13.325-1.855,70.5,70.5,0,0,0-13.676,1.855Z" transform="translate(-9.999 -112.115)" fill="#e9e9e9" opacity="0.52"/><path d="M6.5,0,13,10H0Z" transform="translate(10152 2145.81)" fill="#f3f3f3"/><path d="M3.5,0,7,5H0Z" transform="translate(10186 2162.81)" fill="#f3f3f3"/><ellipse cx="5.5" cy="4" rx="5.5" ry="4" transform="translate(10161 2150.81)" fill="#f2f2f2"/><ellipse cx="4" cy="4.5" rx="4" ry="4.5" transform="translate(10192 2157.81)" fill="#f2f2f2"/><rect width="6" height="4" transform="translate(10165 2145.81)" fill="#ebebeb"/><rect width="5" height="5" transform="translate(10188 2156.81)" fill="#f2f2f2"/><path d="M10250,2267.176a27.908,27.908,0,0,1,8.657-5.008c5.069-1.758,13.357-1.918,13.357-1.918v-1.917s-8.163.213-13.357,1.917a26.84,26.84,0,0,0-8.657,4.794v2.131" transform="translate(-67.186 -80.384)" opacity="0.36" fill="url(#y)"/><path d="M10250,2267.176a27.908,27.908,0,0,1,8.657-5.008c5.069-1.758,13.357-1.918,13.357-1.918v-1.917s-8.163.213-13.357,1.917a26.84,26.84,0,0,0-8.657,4.794v2.131" transform="translate(-67.928 -108.582)" opacity="0.36" fill="url(#y)"/><path d="M10250,2267.176a27.908,27.908,0,0,1,8.657-5.008c5.069-1.758,13.357-1.918,13.357-1.918v-1.917s-8.163.213-13.357,1.917a26.84,26.84,0,0,0-8.657,4.794v2.131" transform="translate(-67.186 -84.465)" opacity="0.36" fill="url(#y)"/><path d="M10250,2267.176a27.908,27.908,0,0,1,8.657-5.008c5.069-1.758,13.357-1.918,13.357-1.918v-1.917s-8.163.213-13.357,1.917a26.84,26.84,0,0,0-8.657,4.794v2.131" transform="translate(-67.928 -112.663)" opacity="0.36" fill="url(#y)"/><path d="M10250,2267.176a27.908,27.908,0,0,1,8.657-5.008c5.069-1.758,13.357-1.918,13.357-1.918v-1.917s-8.163.213-13.357,1.917a26.84,26.84,0,0,0-8.657,4.794v2.131" transform="translate(-67.186 -88.546)" opacity="0.36" fill="url(#y)"/><path d="M10250,2267.176a27.908,27.908,0,0,1,8.657-5.008c5.069-1.758,13.357-1.918,13.357-1.918v-1.917s-8.163.213-13.357,1.917a26.84,26.84,0,0,0-8.657,4.794v2.131" transform="translate(-67.928 -116.744)" opacity="0.36" fill="url(#y)"/></g></svg>