<svg xmlns="http://www.w3.org/2000/svg" xmlns:xlink="http://www.w3.org/1999/xlink" width="216" height="93" viewBox="0 0 216 93"><defs><linearGradient id="a" x1="0.5" x2="0.5" y2="1" gradientUnits="objectBoundingBox"><stop offset="0" stop-color="#fff072"/><stop offset="0.054" stop-color="#fad126"/><stop offset="0.87" stop-color="#fdb60d"/><stop offset="1" stop-color="#fd9c0b"/></linearGradient></defs><rect width="216" height="93" rx="46.5" fill="#fff"/><g transform="translate(8 6)"><path d="M40,0H161a40,40,0,0,1,0,80H40A40,40,0,0,1,40,0Z" fill="url(#a)"/><ellipse cx="10.181" cy="7.272" rx="10.181" ry="7.272" transform="matrix(0.914, -0.407, 0.407, 0.914, 12.466, 13.496)" fill="#fff362" opacity="0.53"/><path d="M200.7,29.292a39.966,39.966,0,0,1-40,40H40a40,40,0,0,1-40-40c0-.727,0-1.454.073-2.182A39.966,39.966,0,0,0,40,64.924H160.709A39.952,39.952,0,0,0,200.632,27.11C200.7,27.837,200.7,28.564,200.7,29.292Z" transform="translate(0 10.733)" fill="#f98c13"/></g><path d="M9.72.27A16.75,16.75,0,0,1,5.31-.285,9.211,9.211,0,0,1,1.98-1.86a2.106,2.106,0,0,1-.645-.7A2.037,2.037,0,0,1,1.14-3.51a2.027,2.027,0,0,1,.465-1.32A1.355,1.355,0,0,1,2.67-5.4a2.027,2.027,0,0,1,.645.105,4.048,4.048,0,0,1,.765.375A10.1,10.1,0,0,0,6.69-3.735,10.627,10.627,0,0,0,9.6-3.36a5.726,5.726,0,0,0,3.03-.66,2.106,2.106,0,0,0,1.05-1.89,1.7,1.7,0,0,0-.975-1.5A12.529,12.529,0,0,0,9.24-8.49,19.2,19.2,0,0,1,4.785-9.87a5.77,5.77,0,0,1-2.43-2.01,5.3,5.3,0,0,1-.765-2.91,5.672,5.672,0,0,1,1.1-3.405,7.254,7.254,0,0,1,3.03-2.37,10.692,10.692,0,0,1,4.365-.855,11.155,11.155,0,0,1,7.02,2.13,2.382,2.382,0,0,1,.645.735,1.964,1.964,0,0,1,.2.915,2.027,2.027,0,0,1-.465,1.32,1.355,1.355,0,0,1-1.065.57,2.032,2.032,0,0,1-.615-.09,4.274,4.274,0,0,1-.8-.39,12.616,12.616,0,0,0-2.265-1.17,7.53,7.53,0,0,0-2.625-.39,5.112,5.112,0,0,0-2.88.7A2.212,2.212,0,0,0,6.18-15.15a1.739,1.739,0,0,0,.4,1.185,3.364,3.364,0,0,0,1.35.825,20.625,20.625,0,0,0,2.685.75,14.913,14.913,0,0,1,5.865,2.31A4.662,4.662,0,0,1,18.27-6.21a5.628,5.628,0,0,1-1.065,3.39,6.871,6.871,0,0,1-3,2.28A11.543,11.543,0,0,1,9.72.27ZM23.82,0A2.191,2.191,0,0,1,22.2-.57a2.191,2.191,0,0,1-.57-1.62V-18.96a2.191,2.191,0,0,1,.57-1.62,2.191,2.191,0,0,1,1.62-.57H34.44q2.22,0,2.22,1.8,0,1.83-2.22,1.83H26.19v4.95h7.65q2.22,0,2.22,1.83,0,1.8-2.22,1.8H26.19v5.31h8.25q2.22,0,2.22,1.83,0,1.8-2.22,1.8ZM41.61,0a2.191,2.191,0,0,1-1.62-.57,2.191,2.191,0,0,1-.57-1.62v-16.8a2.271,2.271,0,0,1,.63-1.68,2.311,2.311,0,0,1,1.71-.63,2.311,2.311,0,0,1,1.71.63,2.271,2.271,0,0,1,.63,1.68V-3.81h7.68q2.19,0,2.19,1.92Q53.97,0,51.78,0ZM58.5,0a2.191,2.191,0,0,1-1.62-.57,2.191,2.191,0,0,1-.57-1.62V-18.96a2.191,2.191,0,0,1,.57-1.62,2.191,2.191,0,0,1,1.62-.57H69.12q2.22,0,2.22,1.8,0,1.83-2.22,1.83H60.87v4.95h7.65q2.22,0,2.22,1.83,0,1.8-2.22,1.8H60.87v5.31h8.25q2.22,0,2.22,1.83,0,1.8-2.22,1.8ZM83.82.27a10.926,10.926,0,0,1-5.46-1.32,8.883,8.883,0,0,1-3.6-3.78,12.475,12.475,0,0,1-1.26-5.76,12.382,12.382,0,0,1,1.26-5.745,8.9,8.9,0,0,1,3.6-3.765,10.926,10.926,0,0,1,5.46-1.32,10.9,10.9,0,0,1,6.78,2.16,2.259,2.259,0,0,1,.63.72,2,2,0,0,1,.18.9,2.1,2.1,0,0,1-.435,1.335,1.31,1.31,0,0,1-1.065.555,2.327,2.327,0,0,1-.735-.1,2.877,2.877,0,0,1-.705-.375,10.086,10.086,0,0,0-2.22-1.125,6.791,6.791,0,0,0-2.19-.345,5.264,5.264,0,0,0-4.335,1.785A8.29,8.29,0,0,0,78.27-10.59q0,7.14,5.79,7.14a6.336,6.336,0,0,0,2.1-.345A13.3,13.3,0,0,0,88.47-4.92a4.31,4.31,0,0,1,.75-.375,2.085,2.085,0,0,1,.69-.105,1.31,1.31,0,0,1,1.065.555A2.1,2.1,0,0,1,91.41-3.51a1.964,1.964,0,0,1-.2.915,2.215,2.215,0,0,1-.615.705A10.9,10.9,0,0,1,83.82.27ZM101.37.15a2.322,2.322,0,0,1-1.695-.63,2.241,2.241,0,0,1-.645-1.68V-17.34H94.17q-2.22,0-2.22-1.92,0-1.89,2.22-1.89h14.4q2.22,0,2.22,1.89,0,1.92-2.22,1.92h-4.86V-2.16a2.271,2.271,0,0,1-.63,1.68A2.311,2.311,0,0,1,101.37.15Z" transform="translate(52 56)" fill="#fff"/></svg>