<svg xmlns="http://www.w3.org/2000/svg" width="172.728" height="10.8" viewBox="0 0 172.728 10.8"><path d="M3.7.1a5.233,5.233,0,0,1-1.71-.282A3.231,3.231,0,0,1,.7-.948.434.434,0,0,1,.54-1.3a.35.35,0,0,1,.078-.228.223.223,0,0,1,.174-.1.477.477,0,0,1,.276.12A3.992,3.992,0,0,0,3.7-.564,2.8,2.8,0,0,0,5.382-1a1.452,1.452,0,0,0,.594-1.242A1.022,1.022,0,0,0,5.688-3a1.974,1.974,0,0,0-.732-.45,10.069,10.069,0,0,0-1.188-.33,11.905,11.905,0,0,1-1.59-.444,2.6,2.6,0,0,1-1.026-.69,1.776,1.776,0,0,1-.42-1.242A2.149,2.149,0,0,1,1.11-7.41a2.452,2.452,0,0,1,1.062-.846,3.881,3.881,0,0,1,1.572-.3,4.472,4.472,0,0,1,1.56.27,3.145,3.145,0,0,1,1.212.774.482.482,0,0,1,.156.348.35.35,0,0,1-.078.228.223.223,0,0,1-.174.1.477.477,0,0,1-.276-.12,4.562,4.562,0,0,0-1.17-.732,3.372,3.372,0,0,0-1.23-.2,2.7,2.7,0,0,0-1.668.456,1.507,1.507,0,0,0-.6,1.272,1.178,1.178,0,0,0,.264.8,1.837,1.837,0,0,0,.69.486,7.668,7.668,0,0,0,1.1.348l.312.072q.972.24,1.536.444a2.359,2.359,0,0,1,.954.63,1.632,1.632,0,0,1,.39,1.146,2.056,2.056,0,0,1-.378,1.218A2.442,2.442,0,0,1,5.274-.2,3.994,3.994,0,0,1,3.7.1ZM8.616.06a.378.378,0,0,1-.27-.1.361.361,0,0,1-.1-.276V-5.568a.361.361,0,0,1,.1-.276.378.378,0,0,1,.27-.1.357.357,0,0,1,.264.1.374.374,0,0,1,.1.276V-.312a.374.374,0,0,1-.1.276A.357.357,0,0,1,8.616.06Zm0-7.356a.54.54,0,0,1-.39-.144.493.493,0,0,1-.15-.372.508.508,0,0,1,.15-.384.54.54,0,0,1,.39-.144.54.54,0,0,1,.39.144.508.508,0,0,1,.15.384.493.493,0,0,1-.15.372A.54.54,0,0,1,8.616-7.3ZM15.54-5.94a.365.365,0,0,1,.27.1.365.365,0,0,1,.1.27V-.336a2.672,2.672,0,0,1-.63,1.926,2.475,2.475,0,0,1-1.866.654,4.843,4.843,0,0,1-1.158-.126,3.5,3.5,0,0,1-.954-.39q-.432-.264-.432-.516A.3.3,0,0,1,10.95,1a.258.258,0,0,1,.2-.084.47.47,0,0,1,.2.066l.174.09a5.249,5.249,0,0,0,.84.378,3.286,3.286,0,0,0,1.068.15,1.736,1.736,0,0,0,1.32-.468,1.952,1.952,0,0,0,.444-1.392V-1.4a1.912,1.912,0,0,1-.774.906,2.389,2.389,0,0,1-1.266.318A2.575,2.575,0,0,1,11.79-.54a2.434,2.434,0,0,1-.924-1.02,3.337,3.337,0,0,1-.33-1.512,3.337,3.337,0,0,1,.33-1.512A2.434,2.434,0,0,1,11.79-5.6a2.575,2.575,0,0,1,1.362-.36,2.4,2.4,0,0,1,1.248.306,1.922,1.922,0,0,1,.78.894v-.8a.378.378,0,0,1,.1-.27A.345.345,0,0,1,15.54-5.94ZM13.248-.828a1.765,1.765,0,0,0,1.422-.6,2.458,2.458,0,0,0,.51-1.644,2.463,2.463,0,0,0-.516-1.65,1.761,1.761,0,0,0-1.416-.606,1.783,1.783,0,0,0-1.428.6A2.458,2.458,0,0,0,11.3-3.072a2.434,2.434,0,0,0,.516,1.65A1.792,1.792,0,0,0,13.248-.828Zm7.308-5.136q2.1,0,2.1,2.256v3.4a.378.378,0,0,1-.1.27.345.345,0,0,1-.264.1.365.365,0,0,1-.27-.1.365.365,0,0,1-.1-.27V-3.66a1.882,1.882,0,0,0-.348-1.26,1.4,1.4,0,0,0-1.1-.4,1.862,1.862,0,0,0-1.386.528,1.926,1.926,0,0,0-.522,1.416v3.06a.378.378,0,0,1-.1.27.345.345,0,0,1-.264.1.365.365,0,0,1-.27-.1.365.365,0,0,1-.1-.27V-5.568a.365.365,0,0,1,.1-.27.365.365,0,0,1,.27-.1.341.341,0,0,1,.252.1.357.357,0,0,1,.1.264v.756a1.944,1.944,0,0,1,.8-.846A2.415,2.415,0,0,1,20.556-5.964ZM27.96.06a.378.378,0,0,1-.27-.1.361.361,0,0,1-.1-.276V-5.568a.361.361,0,0,1,.1-.276.378.378,0,0,1,.27-.1.357.357,0,0,1,.264.1.374.374,0,0,1,.1.276V-.312a.374.374,0,0,1-.1.276A.357.357,0,0,1,27.96.06Zm0-7.356a.54.54,0,0,1-.39-.144.493.493,0,0,1-.15-.372.508.508,0,0,1,.15-.384.54.54,0,0,1,.39-.144.54.54,0,0,1,.39.144.508.508,0,0,1,.15.384.493.493,0,0,1-.15.372A.54.54,0,0,1,27.96-7.3Zm5.016,1.332q2.1,0,2.1,2.256v3.4a.378.378,0,0,1-.1.27.345.345,0,0,1-.264.1.365.365,0,0,1-.27-.1.365.365,0,0,1-.1-.27V-3.66A1.882,1.882,0,0,0,34-4.92a1.4,1.4,0,0,0-1.1-.4,1.862,1.862,0,0,0-1.386.528,1.926,1.926,0,0,0-.522,1.416v3.06a.378.378,0,0,1-.1.27.345.345,0,0,1-.264.1.365.365,0,0,1-.27-.1.365.365,0,0,1-.1-.27V-5.568a.365.365,0,0,1,.1-.27.365.365,0,0,1,.27-.1.341.341,0,0,1,.252.1.357.357,0,0,1,.1.264v.756a1.944,1.944,0,0,1,.8-.846A2.415,2.415,0,0,1,32.976-5.964ZM42.54-.552q.336.036.336.312a.273.273,0,0,1-.108.228A.526.526,0,0,1,42.42.06L42.084.036a1.88,1.88,0,0,1-1.35-.558A2.248,2.248,0,0,1,40.3-2.04V-5.232h-.912a.322.322,0,0,1-.228-.078.273.273,0,0,1-.084-.21.292.292,0,0,1,.084-.216.308.308,0,0,1,.228-.084H40.3V-7.308a.374.374,0,0,1,.1-.276.357.357,0,0,1,.264-.1.378.378,0,0,1,.27.1.361.361,0,0,1,.1.276V-5.82H42.48a.325.325,0,0,1,.24.084.292.292,0,0,1,.084.216.273.273,0,0,1-.084.21.34.34,0,0,1-.24.078H41.028V-2a1.569,1.569,0,0,0,.288,1.062,1.3,1.3,0,0,0,.9.366Zm3.708.636a2.641,2.641,0,0,1-1.41-.372A2.5,2.5,0,0,1,43.9-1.344a3.579,3.579,0,0,1-.336-1.6,3.579,3.579,0,0,1,.336-1.6,2.5,2.5,0,0,1,.942-1.056,2.641,2.641,0,0,1,1.41-.372,2.649,2.649,0,0,1,1.4.372,2.446,2.446,0,0,1,.942,1.056,3.634,3.634,0,0,1,.33,1.6,3.634,3.634,0,0,1-.33,1.6,2.446,2.446,0,0,1-.942,1.056A2.649,2.649,0,0,1,46.248.084Zm-.012-.648a1.746,1.746,0,0,0,1.428-.612,2.711,2.711,0,0,0,.5-1.764,2.723,2.723,0,0,0-.51-1.758,1.714,1.714,0,0,0-1.41-.63,1.71,1.71,0,0,0-1.416.63,2.746,2.746,0,0,0-.5,1.758,2.758,2.758,0,0,0,.492,1.764A1.711,1.711,0,0,0,46.236-.564ZM55.38.084a3.607,3.607,0,0,1-.99-.138,3.169,3.169,0,0,1-.858-.378,1.488,1.488,0,0,1-.318-.27.405.405,0,0,1-.09-.258.289.289,0,0,1,.078-.2.245.245,0,0,1,.186-.084.858.858,0,0,1,.372.18,3.923,3.923,0,0,0,.714.372,2.526,2.526,0,0,0,.918.144A2.012,2.012,0,0,0,56.5-.81a.829.829,0,0,0,.4-.738.752.752,0,0,0-.144-.474,1.143,1.143,0,0,0-.48-.324,5.835,5.835,0,0,0-.96-.27,3.676,3.676,0,0,1-1.518-.618,1.256,1.256,0,0,1-.45-1.014,1.507,1.507,0,0,1,.6-1.242,2.442,2.442,0,0,1,1.56-.474,3.282,3.282,0,0,1,.894.12,2.291,2.291,0,0,1,.738.348q.42.288.42.564a.311.311,0,0,1-.078.21.238.238,0,0,1-.186.09.764.764,0,0,1-.372-.192,3.636,3.636,0,0,0-.642-.366,2.047,2.047,0,0,0-.81-.138,1.609,1.609,0,0,0-1,.282.906.906,0,0,0-.372.762.777.777,0,0,0,.126.456,1.029,1.029,0,0,0,.432.318,4.932,4.932,0,0,0,.882.27,6.271,6.271,0,0,1,1.272.408,1.514,1.514,0,0,1,.636.516,1.4,1.4,0,0,1,.192.768,1.4,1.4,0,0,1-.618,1.182A2.721,2.721,0,0,1,55.38.084ZM63.7-1.248a.238.238,0,0,1,.186.09.311.311,0,0,1,.078.21q0,.264-.408.516a3.5,3.5,0,0,1-1.824.516,2.766,2.766,0,0,1-2.1-.8,3.065,3.065,0,0,1-.768-2.208,3.536,3.536,0,0,1,.342-1.59,2.543,2.543,0,0,1,.96-1.068,2.67,2.67,0,0,1,1.422-.378,2.278,2.278,0,0,1,1.782.726,2.877,2.877,0,0,1,.654,2,.451.451,0,0,1-.1.318.412.412,0,0,1-.312.1h-4a2.494,2.494,0,0,0,.576,1.68,1.987,1.987,0,0,0,1.524.576A2.356,2.356,0,0,0,62.58-.7a5.764,5.764,0,0,0,.744-.366A.858.858,0,0,1,63.7-1.248ZM61.584-5.364a1.771,1.771,0,0,0-1.344.528,2.422,2.422,0,0,0-.6,1.476h3.708a2.273,2.273,0,0,0-.48-1.482A1.614,1.614,0,0,0,61.584-5.364Zm6.48,4.812q.336.036.336.312a.273.273,0,0,1-.108.228.526.526,0,0,1-.348.072L67.608.036a1.88,1.88,0,0,1-1.35-.558A2.248,2.248,0,0,1,65.82-2.04V-5.232h-.912a.322.322,0,0,1-.228-.078.273.273,0,0,1-.084-.21.292.292,0,0,1,.084-.216.308.308,0,0,1,.228-.084h.912V-7.308a.374.374,0,0,1,.1-.276.357.357,0,0,1,.264-.1.378.378,0,0,1,.27.1.361.361,0,0,1,.1.276V-5.82H68a.325.325,0,0,1,.24.084.292.292,0,0,1,.084.216.273.273,0,0,1-.084.21.34.34,0,0,1-.24.078H66.552V-2A1.569,1.569,0,0,0,66.84-.942a1.3,1.3,0,0,0,.9.366Zm8.76-5.388a.365.365,0,0,1,.27.1.365.365,0,0,1,.1.27V-.312a.365.365,0,0,1-.1.27.365.365,0,0,1-.27.1.33.33,0,0,1-.252-.1.378.378,0,0,1-.1-.27v-.732a1.927,1.927,0,0,1-.786.84,2.314,2.314,0,0,1-1.158.288,2,2,0,0,1-1.554-.57,2.418,2.418,0,0,1-.522-1.686v-3.4a.365.365,0,0,1,.1-.27.365.365,0,0,1,.27-.1.345.345,0,0,1,.264.1.378.378,0,0,1,.1.27V-2.22A1.909,1.909,0,0,0,73.53-.966a1.334,1.334,0,0,0,1.074.4,1.78,1.78,0,0,0,1.35-.534,1.973,1.973,0,0,0,.51-1.422V-5.568a.378.378,0,0,1,.1-.27A.345.345,0,0,1,76.824-5.94Zm5.028-.024a2.452,2.452,0,0,1,1.356.378,2.494,2.494,0,0,1,.912,1.068,3.731,3.731,0,0,1,.324,1.6,3.621,3.621,0,0,1-.324,1.578,2.467,2.467,0,0,1-.912,1.05,2.482,2.482,0,0,1-1.356.372,2.356,2.356,0,0,1-1.224-.306,1.922,1.922,0,0,1-.78-.894V1.848a.378.378,0,0,1-.1.27.345.345,0,0,1-.264.1.351.351,0,0,1-.372-.372V-5.568a.365.365,0,0,1,.1-.27.365.365,0,0,1,.27-.1.345.345,0,0,1,.264.1.378.378,0,0,1,.1.27v.8a1.922,1.922,0,0,1,.78-.894A2.356,2.356,0,0,1,81.852-5.964Zm-.108,5.4a1.756,1.756,0,0,0,1.434-.618,2.652,2.652,0,0,0,.51-1.734,2.769,2.769,0,0,0-.51-1.776,1.721,1.721,0,0,0-1.422-.636,1.7,1.7,0,0,0-1.41.624,2.764,2.764,0,0,0-.5,1.764,2.762,2.762,0,0,0,.492,1.758A1.69,1.69,0,0,0,81.744-.564Zm13.56-5.4q1.932,0,1.932,2.256v3.4a.378.378,0,0,1-.1.27.345.345,0,0,1-.264.1.365.365,0,0,1-.27-.1.365.365,0,0,1-.1-.27V-3.66a2.035,2.035,0,0,0-.312-1.266,1.2,1.2,0,0,0-1-.39,1.567,1.567,0,0,0-1.242.528,2.074,2.074,0,0,0-.462,1.416v3.06a.378.378,0,0,1-.1.27.345.345,0,0,1-.264.1.365.365,0,0,1-.27-.1.365.365,0,0,1-.1-.27V-3.66a2.035,2.035,0,0,0-.312-1.266,1.2,1.2,0,0,0-1-.39,1.567,1.567,0,0,0-1.242.528,2.074,2.074,0,0,0-.462,1.416v3.06a.378.378,0,0,1-.1.27.345.345,0,0,1-.264.1.365.365,0,0,1-.27-.1.365.365,0,0,1-.1-.27V-5.568a.361.361,0,0,1,.1-.276.378.378,0,0,1,.27-.1.336.336,0,0,1,.258.1.371.371,0,0,1,.09.264v.72a1.825,1.825,0,0,1,.726-.822,2.106,2.106,0,0,1,1.1-.282,1.7,1.7,0,0,1,1.788,1.152,1.9,1.9,0,0,1,.768-.846A2.285,2.285,0,0,1,95.3-5.964Zm8.172.024a.365.365,0,0,1,.27.1.365.365,0,0,1,.1.27V-.312a.365.365,0,0,1-.1.27.365.365,0,0,1-.27.1.33.33,0,0,1-.252-.1.378.378,0,0,1-.1-.27v-.732a1.927,1.927,0,0,1-.786.84,2.314,2.314,0,0,1-1.158.288,2,2,0,0,1-1.554-.57,2.418,2.418,0,0,1-.522-1.686v-3.4a.365.365,0,0,1,.1-.27.365.365,0,0,1,.27-.1.345.345,0,0,1,.264.1.378.378,0,0,1,.1.27V-2.22a1.909,1.909,0,0,0,.342,1.254,1.334,1.334,0,0,0,1.074.4,1.78,1.78,0,0,0,1.35-.534,1.973,1.973,0,0,0,.51-1.422V-5.568a.378.378,0,0,1,.1-.27A.345.345,0,0,1,103.476-5.94Zm2.664,6a.378.378,0,0,1-.27-.1.361.361,0,0,1-.1-.276V-8.148a.361.361,0,0,1,.1-.276.378.378,0,0,1,.27-.1.362.362,0,0,1,.258.1.361.361,0,0,1,.1.276V-.312a.361.361,0,0,1-.1.276A.362.362,0,0,1,106.14.06Zm4.848-.612q.336.036.336.312a.273.273,0,0,1-.108.228.526.526,0,0,1-.348.072l-.336-.024a1.88,1.88,0,0,1-1.35-.558,2.248,2.248,0,0,1-.438-1.518V-5.232h-.912a.322.322,0,0,1-.228-.078.273.273,0,0,1-.084-.21.292.292,0,0,1,.084-.216.308.308,0,0,1,.228-.084h.912V-7.308a.374.374,0,0,1,.1-.276.357.357,0,0,1,.264-.1.378.378,0,0,1,.27.1.361.361,0,0,1,.1.276V-5.82h1.452a.325.325,0,0,1,.24.084.292.292,0,0,1,.084.216.273.273,0,0,1-.084.21.34.34,0,0,1-.24.078h-1.452V-2a1.569,1.569,0,0,0,.288,1.062,1.3,1.3,0,0,0,.9.366Zm1.764.612a.378.378,0,0,1-.27-.1.361.361,0,0,1-.1-.276V-5.568a.361.361,0,0,1,.1-.276.378.378,0,0,1,.27-.1.357.357,0,0,1,.264.1.374.374,0,0,1,.1.276V-.312a.374.374,0,0,1-.1.276A.357.357,0,0,1,112.752.06Zm0-7.356a.54.54,0,0,1-.39-.144.493.493,0,0,1-.15-.372.508.508,0,0,1,.15-.384.54.54,0,0,1,.39-.144.54.54,0,0,1,.39.144.508.508,0,0,1,.15.384.493.493,0,0,1-.15.372A.54.54,0,0,1,112.752-7.3Zm5.028,1.332a2.452,2.452,0,0,1,1.356.378,2.494,2.494,0,0,1,.912,1.068,3.731,3.731,0,0,1,.324,1.6,3.621,3.621,0,0,1-.324,1.578,2.467,2.467,0,0,1-.912,1.05,2.482,2.482,0,0,1-1.356.372,2.356,2.356,0,0,1-1.224-.306,1.922,1.922,0,0,1-.78-.894V1.848a.378.378,0,0,1-.1.27.345.345,0,0,1-.264.1.351.351,0,0,1-.372-.372V-5.568a.365.365,0,0,1,.1-.27.365.365,0,0,1,.27-.1.345.345,0,0,1,.264.1.378.378,0,0,1,.1.27v.8a1.922,1.922,0,0,1,.78-.894A2.356,2.356,0,0,1,117.78-5.964Zm-.108,5.4a1.756,1.756,0,0,0,1.434-.618,2.652,2.652,0,0,0,.51-1.734,2.769,2.769,0,0,0-.51-1.776,1.721,1.721,0,0,0-1.422-.636,1.7,1.7,0,0,0-1.41.624,2.764,2.764,0,0,0-.5,1.764,2.762,2.762,0,0,0,.492,1.758A1.69,1.69,0,0,0,117.672-.564Zm4.62.624a.378.378,0,0,1-.27-.1.361.361,0,0,1-.1-.276V-8.148a.361.361,0,0,1,.1-.276.378.378,0,0,1,.27-.1.362.362,0,0,1,.258.1.361.361,0,0,1,.1.276V-.312a.361.361,0,0,1-.1.276A.362.362,0,0,1,122.292.06Zm6.756-1.308a.238.238,0,0,1,.186.09.311.311,0,0,1,.078.21q0,.264-.408.516a3.5,3.5,0,0,1-1.824.516,2.766,2.766,0,0,1-2.1-.8,3.065,3.065,0,0,1-.768-2.208,3.536,3.536,0,0,1,.342-1.59,2.543,2.543,0,0,1,.96-1.068,2.67,2.67,0,0,1,1.422-.378,2.278,2.278,0,0,1,1.782.726,2.877,2.877,0,0,1,.654,2,.451.451,0,0,1-.1.318.412.412,0,0,1-.312.1h-4a2.494,2.494,0,0,0,.576,1.68,1.987,1.987,0,0,0,1.524.576,2.356,2.356,0,0,0,.864-.138,5.763,5.763,0,0,0,.744-.366A.858.858,0,0,1,129.048-1.248Zm-2.112-4.116a1.771,1.771,0,0,0-1.344.528,2.422,2.422,0,0,0-.6,1.476H128.7a2.273,2.273,0,0,0-.48-1.482A1.614,1.614,0,0,0,126.936-5.364Zm9.72-.6a2.452,2.452,0,0,1,1.356.378,2.494,2.494,0,0,1,.912,1.068,3.731,3.731,0,0,1,.324,1.6,3.622,3.622,0,0,1-.324,1.578,2.467,2.467,0,0,1-.912,1.05,2.482,2.482,0,0,1-1.356.372,2.356,2.356,0,0,1-1.224-.306,1.922,1.922,0,0,1-.78-.894V1.848a.378.378,0,0,1-.1.27.345.345,0,0,1-.264.1.351.351,0,0,1-.372-.372V-5.568a.365.365,0,0,1,.1-.27.365.365,0,0,1,.27-.1.345.345,0,0,1,.264.1.378.378,0,0,1,.1.27v.8a1.922,1.922,0,0,1,.78-.894A2.356,2.356,0,0,1,136.656-5.964Zm-.108,5.4a1.756,1.756,0,0,0,1.434-.618,2.652,2.652,0,0,0,.51-1.734,2.769,2.769,0,0,0-.51-1.776,1.721,1.721,0,0,0-1.422-.636,1.7,1.7,0,0,0-1.41.624,2.764,2.764,0,0,0-.5,1.764,2.762,2.762,0,0,0,.492,1.758A1.69,1.69,0,0,0,136.548-.564Zm6.96-5.376a.508.508,0,0,1,.324.06.281.281,0,0,1,.1.24q0,.3-.36.336l-.36.036a1.741,1.741,0,0,0-1.266.612,1.945,1.945,0,0,0-.414,1.236V-.312a.374.374,0,0,1-.1.276.357.357,0,0,1-.264.1.378.378,0,0,1-.27-.1.361.361,0,0,1-.1-.276V-5.568a.361.361,0,0,1,.1-.276.378.378,0,0,1,.27-.1.341.341,0,0,1,.252.1.357.357,0,0,1,.1.264v.78a2.008,2.008,0,0,1,1.824-1.128ZM147.06.084a2.641,2.641,0,0,1-1.41-.372,2.5,2.5,0,0,1-.942-1.056,3.579,3.579,0,0,1-.336-1.6,3.579,3.579,0,0,1,.336-1.6,2.5,2.5,0,0,1,.942-1.056,2.641,2.641,0,0,1,1.41-.372,2.649,2.649,0,0,1,1.4.372,2.446,2.446,0,0,1,.942,1.056,3.634,3.634,0,0,1,.33,1.6,3.634,3.634,0,0,1-.33,1.6,2.446,2.446,0,0,1-.942,1.056A2.649,2.649,0,0,1,147.06.084Zm-.012-.648a1.746,1.746,0,0,0,1.428-.612,2.711,2.711,0,0,0,.5-1.764,2.723,2.723,0,0,0-.51-1.758,1.714,1.714,0,0,0-1.41-.63,1.71,1.71,0,0,0-1.416.63,2.746,2.746,0,0,0-.5,1.758,2.758,2.758,0,0,0,.492,1.764A1.711,1.711,0,0,0,147.048-.564ZM155.46-5.82a.308.308,0,0,1,.228.084.292.292,0,0,1,.084.216V-.312a.361.361,0,0,1-.1.276.361.361,0,0,1-.258.1.378.378,0,0,1-.27-.1.361.361,0,0,1-.1-.276v-4.92H152.3v4.92a.354.354,0,0,1-.108.27.37.37,0,0,1-.264.1.357.357,0,0,1-.264-.1.374.374,0,0,1-.1-.276v-4.92h-.912a.322.322,0,0,1-.228-.078.273.273,0,0,1-.084-.21.292.292,0,0,1,.084-.216.308.308,0,0,1,.228-.084h.912v-.288a2.5,2.5,0,0,1,.51-1.662,2.037,2.037,0,0,1,1.482-.678l.312-.024q.456-.036.456.276,0,.288-.348.324l-.3.024a1.526,1.526,0,0,0-1.032.438,1.643,1.643,0,0,0-.348,1.146v.444Zm-.048-2.52a.54.54,0,0,1,.39.144.508.508,0,0,1,.15.384.493.493,0,0,1-.15.372.54.54,0,0,1-.39.144.54.54,0,0,1-.39-.144.493.493,0,0,1-.15-.372.508.508,0,0,1,.15-.384A.54.54,0,0,1,155.412-8.34Zm2.652,8.4a.378.378,0,0,1-.27-.1.361.361,0,0,1-.1-.276V-8.148a.361.361,0,0,1,.1-.276.378.378,0,0,1,.27-.1.361.361,0,0,1,.258.1.361.361,0,0,1,.1.276V-.312a.361.361,0,0,1-.1.276A.361.361,0,0,1,158.064.06Zm6.756-1.308a.238.238,0,0,1,.186.09.311.311,0,0,1,.078.21q0,.264-.408.516a3.5,3.5,0,0,1-1.824.516,2.766,2.766,0,0,1-2.1-.8,3.065,3.065,0,0,1-.768-2.208,3.536,3.536,0,0,1,.342-1.59,2.543,2.543,0,0,1,.96-1.068,2.67,2.67,0,0,1,1.422-.378,2.278,2.278,0,0,1,1.782.726,2.877,2.877,0,0,1,.654,2,.451.451,0,0,1-.1.318.412.412,0,0,1-.312.1h-4a2.494,2.494,0,0,0,.576,1.68,1.987,1.987,0,0,0,1.524.576A2.356,2.356,0,0,0,163.7-.7a5.763,5.763,0,0,0,.744-.366A.857.857,0,0,1,164.82-1.248Zm-2.112-4.116a1.771,1.771,0,0,0-1.344.528,2.422,2.422,0,0,0-.6,1.476h3.708a2.273,2.273,0,0,0-.48-1.482A1.614,1.614,0,0,0,162.708-5.364ZM168.552.084a3.607,3.607,0,0,1-.99-.138,3.169,3.169,0,0,1-.858-.378,1.488,1.488,0,0,1-.318-.27.405.405,0,0,1-.09-.258.289.289,0,0,1,.078-.2.245.245,0,0,1,.186-.084.857.857,0,0,1,.372.18,3.923,3.923,0,0,0,.714.372,2.526,2.526,0,0,0,.918.144,2.012,2.012,0,0,0,1.1-.258.829.829,0,0,0,.4-.738.752.752,0,0,0-.144-.474,1.143,1.143,0,0,0-.48-.324,5.835,5.835,0,0,0-.96-.27,3.676,3.676,0,0,1-1.518-.618,1.256,1.256,0,0,1-.45-1.014,1.507,1.507,0,0,1,.6-1.242,2.442,2.442,0,0,1,1.56-.474,3.282,3.282,0,0,1,.894.12,2.291,2.291,0,0,1,.738.348q.42.288.42.564a.311.311,0,0,1-.078.21.238.238,0,0,1-.186.09.764.764,0,0,1-.372-.192,3.636,3.636,0,0,0-.642-.366,2.047,2.047,0,0,0-.81-.138,1.609,1.609,0,0,0-1,.282.906.906,0,0,0-.372.762.777.777,0,0,0,.126.456,1.029,1.029,0,0,0,.432.318,4.932,4.932,0,0,0,.882.27,6.271,6.271,0,0,1,1.272.408,1.514,1.514,0,0,1,.636.516,1.4,1.4,0,0,1,.192.768,1.4,1.4,0,0,1-.618,1.182A2.721,2.721,0,0,1,168.552.084ZM172.716.06a.546.546,0,0,1-.4-.162.561.561,0,0,1-.162-.414.561.561,0,0,1,.162-.414.546.546,0,0,1,.4-.162.532.532,0,0,1,.39.162.561.561,0,0,1,.162.414.561.561,0,0,1-.162.414A.532.532,0,0,1,172.716.06Z" transform="translate(-0.54 8.556)" fill="#fff"/></svg>