<svg xmlns="http://www.w3.org/2000/svg" width="155.353" height="259.536" viewBox="0 0 155.353 259.536">
  <defs>
    <style>
      .cls-1 {
        fill: #faf9fc;
      }

      .cls-2 {
        fill: #9a9ab1;
      }

      .cls-3 {
        fill: #5b5880;
      }

      .cls-4 {
        fill: #cfcfe1;
      }
    </style>
  </defs>
  <g id="snowman" transform="translate(-3378.797 439.894)">
    <circle id="Ellipse_1" data-name="Ellipse 1" class="cls-1" cx="56.561" cy="56.561" r="56.561" transform="translate(3393.814 -432.839)"/>
    <circle id="Ellipse_2" data-name="Ellipse 2" class="cls-1" cx="77.677" cy="77.677" r="77.677" transform="translate(3378.797 -335.711)"/>
    <path id="Path_7" data-name="Path 7" class="cls-2" d="M921.066,606.076l-93.455,4.82a2.607,2.607,0,0,0-2.469,2.738l.275,5.337a2.607,2.607,0,0,0,2.738,2.469l15.883-.819,1.724,1.484L835.1,694.951l9.941,11.7,10.794-75.878,48.618,41.853,13.44-2.959-57.731-49.883,61.446-3.169a2.607,2.607,0,0,0,2.469-2.738l-.275-5.337A2.607,2.607,0,0,0,921.066,606.076Z" transform="translate(2579.342 -942.646)"/>
    <path id="Path_8" data-name="Path 8" class="cls-2" d="M838.916,537.433s23.576-13.348,23.353-17.669-10.4-16.795-27.684-15.9c0,0-4.723-7.556-9.6-1.238s3.128,10.238,3.128,10.238-8.7,16.047,5.614,24.841Z" transform="translate(2579.385 -939.997)"/>
    <circle id="Ellipse_3" data-name="Ellipse 3" class="cls-3" cx="4.525" cy="4.525" r="4.525" transform="translate(3424.18 -391.012)"/>
    <circle id="Ellipse_4" data-name="Ellipse 4" class="cls-3" cx="4.525" cy="4.525" r="4.525" transform="translate(3466.355 -393.187)"/>
    <rect id="Rectangle_6" data-name="Rectangle 6" class="cls-4" width="8.296" height="25.641" transform="translate(3446.153 -377.573) rotate(-2.953)"/>
    <circle id="Ellipse_5" data-name="Ellipse 5" class="cls-3" cx="4.525" cy="4.525" r="4.525" transform="translate(3452.018 -290.503)"/>
    <circle id="Ellipse_6" data-name="Ellipse 6" class="cls-3" cx="4.525" cy="4.525" r="4.525" transform="translate(3452.872 -273.934)"/>
    <circle id="Ellipse_7" data-name="Ellipse 7" class="cls-3" cx="4.525" cy="4.525" r="4.525" transform="translate(3453.727 -257.365)"/>
    <path id="Path_9" data-name="Path 9" class="cls-3" d="M873.425,599.51a45.042,45.042,0,0,1-21.74-4.626l.644-1.364c14.137,6.679,28.087,5.959,41.463-2.138l.782,1.29a45.046,45.046,0,0,1-21.149,6.838Z" transform="translate(2578.678 -942.278)"/>
    <circle id="Ellipse_8" data-name="Ellipse 8" class="cls-4" cx="3.771" cy="3.771" r="3.771" transform="translate(3479.859 -379.498)"/>
    <circle id="Ellipse_9" data-name="Ellipse 9" class="cls-4" cx="3.771" cy="3.771" r="3.771" transform="translate(3413.583 -376.079)"/>
  </g>
</svg>
