<svg xmlns="http://www.w3.org/2000/svg" xmlns:xlink="http://www.w3.org/1999/xlink" width="94" height="95" viewBox="0 0 94 95"><defs><linearGradient id="a" x1="0.5" x2="0.5" y2="1" gradientUnits="objectBoundingBox"><stop offset="0" stop-color="#f8574f"/><stop offset="1" stop-color="#671512"/></linearGradient><linearGradient id="b" x1="0.5" x2="0.5" y2="1" gradientUnits="objectBoundingBox"><stop offset="0" stop-color="#ec6bb1"/><stop offset="1" stop-color="#ab005e"/></linearGradient><linearGradient id="c" x1="0.5" x2="0.5" y2="1" gradientUnits="objectBoundingBox"><stop offset="0" stop-color="#b339b8"/><stop offset="1" stop-color="#5a1d5c"/></linearGradient><linearGradient id="d" x1="0.5" x2="0.5" y2="1" gradientUnits="objectBoundingBox"><stop offset="0" stop-color="#f8574f"/><stop offset="1" stop-color="#bf180f"/></linearGradient><linearGradient id="e" x1="0.5" x2="0.5" y2="1" gradientUnits="objectBoundingBox"><stop offset="0" stop-color="#ffea75"/><stop offset="1" stop-color="#fd0"/></linearGradient><linearGradient id="f" x1="1" y1="0.5" x2="0" y2="0.5" gradientUnits="objectBoundingBox"><stop offset="0" stop-color="#fff" stop-opacity="0"/><stop offset="1" stop-color="#fff" stop-opacity="0.231"/></linearGradient><linearGradient id="i" x1="0.025" y1="0.5" x2="0.982" y2="0.5" gradientUnits="objectBoundingBox"><stop offset="0" stop-color="#7ec5fc"/><stop offset="1" stop-color="#3a9ae9"/></linearGradient></defs><g transform="translate(-304 -38)"><g transform="translate(304.149 38.252)"><path d="M34.45,0A34.45,34.45,0,1,1,0,34.45,34.45,34.45,0,0,1,34.45,0Z" transform="translate(10.922 9.247)" fill="#fff" opacity="0.2"/><circle cx="44" cy="44" r="44" transform="translate(0.851 -0.252)" fill="#fff" opacity="0.1"/><rect width="27" height="57" rx="4" transform="translate(45.851 20.748)" fill="url(#a)"/><path d="M52.382,61.554H55.06a2.1,2.1,0,0,0,2.1-2.1V10.193a2.1,2.1,0,0,0-2.1-2.1H52.382A4.174,4.174,0,0,0,48.771,6H36.193A4.193,4.193,0,0,0,32,10.193V59.457a4.193,4.193,0,0,0,4.193,4.193H48.771a4.174,4.174,0,0,0,3.611-2.1Z" transform="translate(14.28 14.497)" fill="#a23231"/><path d="M7.637,18.867,3.818,14.675,0,18.867V2.1C0,.939.57,0,1.273,0H6.364c.7,0,1.273.939,1.273,2.1Z" transform="translate(75.629 54.039) rotate(90)" fill="url(#b)"/><rect width="9" height="51" rx="2" transform="translate(59.851 23.748)" fill="#e2c8bb"/><path d="M7.637,18.867,3.818,14.675,0,18.867V2.1C0,.939.57,0,1.273,0H6.364c.7,0,1.273.939,1.273,2.1Z" transform="translate(75.629 33.076) rotate(90)" fill="url(#c)"/><path d="M52.337,50.879V10H47.1A2.1,2.1,0,0,0,45,12.1V57.168a2.1,2.1,0,0,0,2.1,2.1h5.241a2.1,2.1,0,0,0,2.1-2.1V52.976A2.1,2.1,0,0,1,52.337,50.879Z" transform="translate(14.907 14.69)" fill="#fbf4e4"/><rect width="46" height="57" rx="4" transform="translate(18.851 20.748)" fill="url(#d)"/><path d="M0,0H22.967V10.808H0Z" transform="translate(32.537 33.565)" opacity="0.18"/><rect width="22" height="1" transform="translate(32.851 48.748)" opacity="0.21"/><rect width="22" height="2" transform="translate(32.851 50.748)" opacity="0.21"/><path d="M22.578,23.563,16.289,19.43,10,23.563V6H22.578Z" transform="translate(14.571 14.055)" fill="#f6a425"/><path d="M24.578,21.867l-6.289-4.193L12,21.867V5.1A2.1,2.1,0,0,1,14.1,3h8.385a2.1,2.1,0,0,1,2.1,2.1Z" transform="translate(13.317 14.353)" fill="url(#e)"/><path d="M-.149,85.076.21,80.8l5.516,8.578Z" fill="#217ae4"/><path d="M5.648,83.358l-.469-2.891L-.149,89.373Z" transform="translate(88)" fill="#217ae4"/><path d="M4,0H4A0,0,0,0,1,4,0V49a4,4,0,0,1-4,4H0a0,0,0,0,1,0,0V4A4,4,0,0,1,4,0Z" transform="translate(19.851 21.748)" fill="url(#f)"/><path d="M1.351,0h0a0,0,0,0,1,0,0V6.755a0,0,0,0,1,0,0h0A1.351,1.351,0,0,1,0,5.4V1.351A1.351,1.351,0,0,1,1.351,0Z" transform="translate(75.094 40.32) rotate(180)" fill="url(#f)"/><path d="M1.351,0h0a0,0,0,0,1,0,0V6.755a0,0,0,0,1,0,0h0A1.351,1.351,0,0,1,0,5.4V1.351A1.351,1.351,0,0,1,1.351,0Z" transform="translate(75.094 61.26) rotate(180)" fill="url(#f)"/><path d="M9.5,0h75a9.5,9.5,0,0,1,0,19H9.5a9.5,9.5,0,0,1,0-19Z" transform="translate(-0.149 75.748)" fill="#217ae4"/><path d="M9.457,0h74.3a9.457,9.457,0,0,1,0,18.914H9.457A9.457,9.457,0,0,1,9.457,0Z" transform="translate(0.114 72.744)" fill="url(#i)"/><g transform="translate(0.114 72.744)" fill="none" opacity="0.1"><path d="M9.457,0h74.3a9.457,9.457,0,0,1,0,18.914H9.457A9.457,9.457,0,0,1,9.457,0Z" stroke="none"/><path d="M 9.456954956054688 0.9999961853027344 C 4.793777465820313 0.9999961853027344 1 4.793770790100098 1 9.456957817077637 C 1 14.12014579772949 4.793777465820313 17.91391944885254 9.456954956054688 17.91391944885254 L 83.76162719726563 17.91391944885254 C 88.4248046875 17.91391944885254 92.21858215332031 14.12014579772949 92.21858215332031 9.456957817077637 C 92.21858215332031 4.793770790100098 88.4248046875 0.9999961853027344 83.76162719726563 0.9999961853027344 L 9.456954956054688 0.9999961853027344 M 9.456954956054688 -3.814697265625e-06 L 83.76162719726563 -3.814697265625e-06 C 88.98456573486328 -3.814697265625e-06 93.21858215332031 4.234020233154297 93.21858215332031 9.456957817077637 C 93.21858215332031 14.67989540100098 88.98456573486328 18.91391944885254 83.76162719726563 18.91391944885254 L 9.456954956054688 18.91391944885254 C 4.234031677246094 18.91391944885254 0 14.67989540100098 0 9.456957817077637 C 0 4.234020233154297 4.234031677246094 -3.814697265625e-06 9.456954956054688 -3.814697265625e-06 Z" stroke="none" fill="#45dfe0"/></g><ellipse cx="3.377" cy="1.351" rx="3.377" ry="1.351" transform="matrix(0.996, -0.087, 0.087, 0.996, 5.418, 74.512)" fill="#fff" opacity="0.48"/></g><g transform="translate(-3.623)"><g transform="translate(311.423 116.399)"><path d="M14.295,83.533a1.032,1.032,0,0,1,.535-.145,1.232,1.232,0,0,1,.79.28.86.86,0,0,1,.353.7.954.954,0,0,1-.109.427l-3.21,6.625a1.122,1.122,0,0,1-.474.505,1.4,1.4,0,0,1-1.362,0,1.122,1.122,0,0,1-.474-.505L7.133,84.8a.948.948,0,0,1-.1-.427.859.859,0,0,1,.365-.7,1.288,1.288,0,0,1,.815-.285,1.067,1.067,0,0,1,.542.145.952.952,0,0,1,.382.438l2.4,5.18,2.383-5.18A.965.965,0,0,1,14.295,83.533Z" transform="translate(-7.036 -83.339)" fill="#fff"/><path d="M15.924,91.6a3.691,3.691,0,0,1-1.489-1.532,5.446,5.446,0,0,1,0-4.657,3.662,3.662,0,0,1,1.489-1.527,4.638,4.638,0,0,1,2.28-.534,4.632,4.632,0,0,1,2.279.534,3.628,3.628,0,0,1,1.485,1.527,4.985,4.985,0,0,1,.516,2.329,4.919,4.919,0,0,1-.523,2.328A3.69,3.69,0,0,1,20.472,91.6a4.57,4.57,0,0,1-2.268.54A4.6,4.6,0,0,1,15.924,91.6Zm3.8-1.86a3.154,3.154,0,0,0,.547-2,3.1,3.1,0,0,0-.554-2,2.035,2.035,0,0,0-3.033-.005,3.939,3.939,0,0,0,0,4.006,2.031,2.031,0,0,0,3.04-.005Z" transform="translate(-4.623 -83.352)" fill="#fff"/><path d="M23.1,91.607a3.683,3.683,0,0,1-1.5-1.532,5.384,5.384,0,0,1,0-4.657,3.7,3.7,0,0,1,1.5-1.532,4.58,4.58,0,0,1,2.255-.534,4.628,4.628,0,0,1,2.711.813.947.947,0,0,1,.3.316.929.929,0,0,1,.091.439.983.983,0,0,1-.212.636.646.646,0,0,1-.517.263.93.93,0,0,1-.328-.055,2.063,2.063,0,0,1-.34-.176,3.4,3.4,0,0,0-.8-.366,2.827,2.827,0,0,0-.778-.109,1.953,1.953,0,0,0-1.61.651,3.973,3.973,0,0,0,0,3.964,1.953,1.953,0,0,0,1.61.651,2.18,2.18,0,0,0,.705-.116q.34-.116.875-.359.255-.132.377-.182a.785.785,0,0,1,.292-.049.649.649,0,0,1,.517.262.986.986,0,0,1,.212.638.934.934,0,0,1-.091.432.912.912,0,0,1-.3.322,4.619,4.619,0,0,1-2.711.815A4.566,4.566,0,0,1,23.1,91.607Z" transform="translate(-2.108 -83.352)" fill="#fff"/><path d="M35.75,91.1a.874.874,0,0,1-.323.681,1.1,1.1,0,0,1-.735.28.921.921,0,0,1-.511-.147.98.98,0,0,1-.366-.438l-.546-1.228H29.33l-.559,1.228a.967.967,0,0,1-.373.438.95.95,0,0,1-.515.147,1.142,1.142,0,0,1-.748-.28A.86.86,0,0,1,26.8,91.1a1.02,1.02,0,0,1,.109-.45l3.21-6.59a1.122,1.122,0,0,1,.467-.505,1.409,1.409,0,0,1,1.367,0,1.125,1.125,0,0,1,.476.505l3.21,6.59A1.058,1.058,0,0,1,35.75,91.1Zm-5.667-2.529h2.432L31.3,85.858Z" transform="translate(-0.099 -83.343)" fill="#fff"/><path d="M41.023,88.326a2.171,2.171,0,0,1,.4,1.331,2.1,2.1,0,0,1-.37,1.235A2.415,2.415,0,0,1,40,91.713a4.131,4.131,0,0,1-1.612.29H35.151a.934.934,0,0,1-1.034-1.032V84.465a.932.932,0,0,1,1.034-1.032h3.113a3.472,3.472,0,0,1,2.145.6,1.928,1.928,0,0,1,.8,1.623,1.975,1.975,0,0,1-.353,1.161,2,2,0,0,1-.985.736A2.189,2.189,0,0,1,41.023,88.326ZM36.293,86.8h1.593a1.7,1.7,0,0,0,.924-.2.69.69,0,0,0,.292-.62.75.75,0,0,0-.292-.657,1.624,1.624,0,0,0-.924-.205H36.293Zm2.765,3.3a1,1,0,0,0,0-1.4,1.633,1.633,0,0,0-.954-.212H36.293v1.822h1.812A1.634,1.634,0,0,0,39.059,90.1Z" transform="translate(2.469 -83.324)" fill="#fff"/><path d="M41.3,91.181a3.709,3.709,0,0,1-.967-2.772V84.481a1.1,1.1,0,1,1,2.189,0v4.012a2.177,2.177,0,0,0,.413,1.424,1.677,1.677,0,0,0,2.383,0,2.184,2.184,0,0,0,.413-1.424V84.481a1.024,1.024,0,0,1,1.094-1.093,1.1,1.1,0,0,1,.8.3,1.068,1.068,0,0,1,.3.8v3.927a3.682,3.682,0,0,1-.979,2.765,3.879,3.879,0,0,1-2.826.955A3.872,3.872,0,0,1,41.3,91.181Z" transform="translate(4.652 -83.339)" fill="#fff"/><path d="M55.513,91.1a.874.874,0,0,1-.323.681,1.1,1.1,0,0,1-.735.28.927.927,0,0,1-.511-.147.977.977,0,0,1-.365-.438l-.546-1.228H49.094l-.561,1.228a.965.965,0,0,1-.372.438.952.952,0,0,1-.516.147,1.142,1.142,0,0,1-.747-.28.858.858,0,0,1-.335-.681,1.022,1.022,0,0,1,.111-.45l3.209-6.59a1.137,1.137,0,0,1,.467-.505,1.411,1.411,0,0,1,1.369,0,1.122,1.122,0,0,1,.474.505l3.21,6.59A1.038,1.038,0,0,1,55.513,91.1Zm-5.666-2.529h2.432l-1.215-2.713Z" transform="translate(13.838 -83.343)" fill="#fff"/><path d="M61.31,91.2a.809.809,0,0,1-.322.65,1.156,1.156,0,0,1-.748.261,1.173,1.173,0,0,1-.547-.132,1.217,1.217,0,0,1-.439-.4l-1.581-2.31a1.249,1.249,0,0,0-.358-.358.83.83,0,0,0-.443-.116h-.79v2.178a1.1,1.1,0,0,1-.292.808,1.239,1.239,0,0,1-1.61,0,1.086,1.086,0,0,1-.3-.808V84.465a.932.932,0,0,1,1.034-1.032h3.051a3.506,3.506,0,0,1,2.341.674,2.433,2.433,0,0,1,.785,1.951,2.564,2.564,0,0,1-.536,1.648,2.625,2.625,0,0,1-1.506.907,1.653,1.653,0,0,1,.7.266,2.526,2.526,0,0,1,.589.621l.754,1.082A1.127,1.127,0,0,1,61.31,91.2Zm-2.632-4.318A.866.866,0,0,0,59,86.132a.9.9,0,0,0-.322-.774,1.852,1.852,0,0,0-1.065-.235H56.056v1.993h1.558A1.867,1.867,0,0,0,58.678,86.885Z" transform="translate(16.406 -83.324)" fill="#fff"/><path d="M66.409,83.378a1.024,1.024,0,0,1,.723.309.967.967,0,0,1,.322.713,1.008,1.008,0,0,1-.268.667l-2.553,2.955v2.968a1.061,1.061,0,0,1-.309.82,1.133,1.133,0,0,1-.8.285,1.17,1.17,0,0,1-.815-.285,1.05,1.05,0,0,1-.316-.82V88.023l-2.529-2.955a1.006,1.006,0,0,1-.28-.681.947.947,0,0,1,.316-.7,1.007,1.007,0,0,1,.719-.305.957.957,0,0,1,.74.365L63.513,86.3l2.152-2.553A.96.96,0,0,1,66.409,83.378Z" transform="translate(18.409 -83.343)" fill="#fff"/></g><path d="M-1.757-.25a.887.887,0,0,1-.656-.231.887.887,0,0,1-.231-.656v-6.8a.919.919,0,0,1,.255-.68A.936.936,0,0,1-1.7-8.875.936.936,0,0,1-1-8.62a.919.919,0,0,1,.255.68v6.147h3.11q.887,0,.887.777T2.361-.25Z" transform="translate(368.085 125.25)" fill="#fff"/></g></g></svg>