<svg xmlns="http://www.w3.org/2000/svg" xmlns:xlink="http://www.w3.org/1999/xlink" width="54" height="54" viewBox="0 0 54 54"><defs><radialGradient id="a" cx="0.361" cy="0.074" r="0.996" gradientTransform="matrix(0.332, 0.943, -0.927, 0.326, 0.301, -0.347)" gradientUnits="objectBoundingBox"><stop offset="0" stop-color="#fff072"/><stop offset="0.288" stop-color="#fad126"/><stop offset="0.66" stop-color="#fcbc13"/><stop offset="0.791" stop-color="#fbaa13"/><stop offset="0.87" stop-color="#ffae21"/><stop offset="0.937" stop-color="#fa9513"/><stop offset="1" stop-color="#f98c13"/></radialGradient></defs><g transform="translate(0.033 0.033)"><circle cx="27" cy="27" r="27" transform="translate(-0.033 -0.033)" fill="url(#a)"/><path d="M15.509,18.546,24.859,9.2a1.766,1.766,0,0,0-2.5-2.494L11.765,17.3a1.762,1.762,0,0,0-.051,2.435L22.35,30.389a1.766,1.766,0,0,0,2.5-2.494Z" transform="translate(6.126 7.096)" fill="#fff" stroke="#fff" stroke-width="0.7"/><path d="M53.521,23.236C53.5,36.062,42.3,46.623,28.045,47.243S1.5,38.324.11,25.558C3.149,37.491,15.67,45.471,29.2,44.1S52.966,32.443,52.974,20.2a13.756,13.756,0,0,0-.128-2.3,21.356,21.356,0,0,1,.675,5.336Z" transform="translate(0.376 6.566)" fill="#f98c13"/><ellipse cx="4.185" cy="2.092" rx="4.185" ry="2.092" transform="matrix(0.914, -0.407, 0.407, 0.914, 12.286, 5.532)" fill="#fff"/><path d="M53.521,23.236C53.5,36.062,42.3,46.623,28.045,47.243S1.5,38.324.11,25.558C3.149,37.491,15.67,45.471,29.2,44.1S52.966,32.443,52.974,20.2a13.756,13.756,0,0,0-.128-2.3,21.356,21.356,0,0,1,.675,5.336Z" transform="translate(0.376 6.566)" fill="#f98c13"/></g></svg>