<svg xmlns="http://www.w3.org/2000/svg" width="178" height="57.848" viewBox="0 0 178 57.848"><g transform="translate(0.283 0.215)"><path d="M18.01,0H159.693A18.01,18.01,0,0,1,177.7,18.01v18.01a18.01,18.01,0,0,1-18.01,18.01H18.01A18.01,18.01,0,0,1,0,36.021V18.01A18.01,18.01,0,0,1,18.01,0Z" transform="translate(0 3.602)" fill="#fc8238"/><rect width="178" height="54" rx="15" transform="translate(-0.283 -0.215)" fill="#fc0"/><path d="M8.4,0c4.642,0,8.4,2.688,8.4,6s-3.763,6-8.4,6S0,9.319,0,6,3.763,0,8.4,0Z" transform="matrix(0.914, -0.407, 0.407, 0.914, 4.288, 8.74)" fill="#fff" opacity="0.7"/></g></svg>