<svg id="Group_127" data-name="Group 127" xmlns="http://www.w3.org/2000/svg" width="851" height="393" viewBox="0 0 851 393">
  <rect id="Rectangle_118" data-name="Rectangle 118" width="851" height="393" fill="rgba(255,255,255,0)"/>
  <g id="pattern">
    <path id="Polygon_26" data-name="Polygon 26" d="M7.5,0,15,15H0Z" transform="translate(757 47)" fill="#fff" opacity="0.15"/>
    <path id="Polygon_32" data-name="Polygon 32" d="M7.5,0,15,15H0Z" transform="translate(473 132)" fill="#fff" opacity="0.15"/>
    <path id="Polygon_33" data-name="Polygon 33" d="M7.5,0,15,15H0Z" transform="translate(22 356)" fill="#fff" opacity="0.15"/>
    <path id="Polygon_34" data-name="Polygon 34" d="M7.5,0,15,15H0Z" transform="translate(126 32)" fill="#fff" opacity="0.15"/>
    <path id="Polygon_35" data-name="Polygon 35" d="M7.5,0,15,15H0Z" transform="translate(674 244)" fill="#fff" opacity="0.15"/>
    <path id="Polygon_27" data-name="Polygon 27" d="M4,0,8,8H0Z" transform="translate(670 83) rotate(180)" fill="#fff" opacity="0.15"/>
    <path id="Polygon_38" data-name="Polygon 38" d="M4,0,8,8H0Z" transform="translate(608 306) rotate(180)" fill="#fff" opacity="0.15"/>
    <path id="Polygon_39" data-name="Polygon 39" d="M4,0,8,8H0Z" transform="translate(391 375) rotate(180)" fill="#fff" opacity="0.15"/>
    <path id="Polygon_40" data-name="Polygon 40" d="M4,0,8,8H0Z" transform="translate(141 234) rotate(180)" fill="#fff" opacity="0.15"/>
    <path id="Polygon_31" data-name="Polygon 31" d="M4,0,8,8H0Z" transform="translate(753 338) rotate(180)" fill="#fff" opacity="0.15"/>
    <path id="Polygon_28" data-name="Polygon 28" d="M4,0,8,8H0Z" transform="translate(419 259) rotate(180)" fill="#fff" opacity="0.15"/>
    <path id="Polygon_37" data-name="Polygon 37" d="M4,0,8,8H0Z" transform="translate(831 224) rotate(180)" fill="#fff" opacity="0.15"/>
    <path id="Polygon_36" data-name="Polygon 36" d="M4,0,8,8H0Z" transform="translate(14 186) rotate(180)" fill="#fff" opacity="0.15"/>
    <path id="Polygon_29" data-name="Polygon 29" d="M4,0,8,8H0Z" transform="translate(45 47) rotate(180)" fill="#fff" opacity="0.15"/>
    <path id="Polygon_30" data-name="Polygon 30" d="M4,0,8,8H0Z" transform="translate(73 274) rotate(180)" fill="#fff" opacity="0.15"/>
    <g id="Ellipse_79" data-name="Ellipse 79" transform="translate(757 124)" fill="none" stroke="#fff" stroke-width="2" opacity="0.3">
      <circle cx="5" cy="5" r="5" stroke="none"/>
      <circle cx="5" cy="5" r="4" fill="none"/>
    </g>
    <g id="Ellipse_80" data-name="Ellipse 80" transform="translate(521 306)" fill="none" stroke="#fff" stroke-width="2" opacity="0.3">
      <circle cx="5" cy="5" r="5" stroke="none"/>
      <circle cx="5" cy="5" r="4" fill="none"/>
    </g>
    <g id="Ellipse_81" data-name="Ellipse 81" transform="translate(83 139)" fill="none" stroke="#fff" stroke-width="2" opacity="0.3">
      <circle cx="5" cy="5" r="5" stroke="none"/>
      <circle cx="5" cy="5" r="4" fill="none"/>
    </g>
    <g id="Ellipse_82" data-name="Ellipse 82" transform="translate(212 371)" fill="none" stroke="#fff" stroke-width="2" opacity="0.15">
      <circle cx="5" cy="5" r="5" stroke="none"/>
      <circle cx="5" cy="5" r="4" fill="none"/>
    </g>
    <g id="Rectangle_46" data-name="Rectangle 46" transform="translate(632.308 103.5) rotate(-45)" fill="none" stroke="#fff" stroke-width="2" opacity="0.23">
      <rect width="13" height="13" stroke="none"/>
      <rect x="1" y="1" width="11" height="11" fill="none"/>
    </g>
    <g id="Rectangle_47" data-name="Rectangle 47" transform="translate(512.308 52.5) rotate(-45)" fill="none" stroke="#fff" stroke-width="2" opacity="0.23">
      <rect width="13" height="13" stroke="none"/>
      <rect x="1" y="1" width="11" height="11" fill="none"/>
    </g>
    <g id="Rectangle_48" data-name="Rectangle 48" transform="translate(572.308 210.5) rotate(-45)" fill="none" stroke="#fff" stroke-width="2" opacity="0.23">
      <rect width="13" height="13" stroke="none"/>
      <rect x="1" y="1" width="11" height="11" fill="none"/>
    </g>
    <g id="Rectangle_49" data-name="Rectangle 49" transform="translate(595.136 381.328) rotate(-45)" fill="none" stroke="#fff" stroke-width="2" opacity="0.15">
      <rect width="9" height="9" stroke="none"/>
      <rect x="1" y="1" width="7" height="7" fill="none"/>
    </g>
    <g id="Rectangle_50" data-name="Rectangle 50" transform="translate(387.136 112.328) rotate(-45)" fill="none" stroke="#fff" stroke-width="2" opacity="0.23">
      <rect width="9" height="9" stroke="none"/>
      <rect x="1" y="1" width="7" height="7" fill="none"/>
    </g>
    <g id="Rectangle_51" data-name="Rectangle 51" transform="translate(113.136 309.328) rotate(-45)" fill="none" stroke="#fff" stroke-width="2" opacity="0.23">
      <rect width="9" height="9" stroke="none"/>
      <rect x="1" y="1" width="7" height="7" fill="none"/>
    </g>
  </g>
</svg>
