<svg xmlns="http://www.w3.org/2000/svg" xmlns:xlink="http://www.w3.org/1999/xlink" width="138" height="55.02" viewBox="0 0 138 55.02"><defs><linearGradient id="a" x1="0.5" x2="0.5" y2="1" gradientUnits="objectBoundingBox"><stop offset="0" stop-color="#fff072"/><stop offset="0.054" stop-color="#fad126"/><stop offset="0.87" stop-color="#fdb60d"/><stop offset="1" stop-color="#fd9c0b"/></linearGradient></defs><g transform="translate(-21 1520)"><text transform="translate(89 -1486)" fill="#fff" font-size="20" font-family="Nunito-Bold, Nunito" font-weight="700"><tspan x="-36.5" y="0">SELECT</tspan></text><rect width="138" height="55" rx="27.5" transform="translate(21 -1520)" fill="url(#a)"/><ellipse cx="7" cy="5" rx="7" ry="5" transform="matrix(0.914, -0.407, 0.407, 0.914, 29.572, -1510.721)" fill="#fff"/><path d="M138,28.61a27.48,27.48,0,0,1-27.5,27.5h-83A27.5,27.5,0,0,1,0,28.61c0-.5,0-1,.05-1.5a27.48,27.48,0,0,0,27.45,26h83a27.47,27.47,0,0,0,27.45-26C138,27.61,138,28.11,138,28.61Z" transform="translate(21 -1521.09)" fill="#f98c13"/></g></svg>