<svg xmlns="http://www.w3.org/2000/svg" xmlns:xlink="http://www.w3.org/1999/xlink" width="71.873" height="76.999" viewBox="0 0 71.873 76.999"><defs><filter id="a" x="2.855" y="50.824" width="62.878" height="26.176" filterUnits="userSpaceOnUse"><feOffset dy="3" input="SourceAlpha"/><feGaussianBlur stdDeviation="3" result="b"/><feFlood flood-opacity="0.161"/><feComposite operator="in" in2="b"/><feComposite in="SourceGraphic"/></filter><linearGradient id="c" x1="0.5" x2="0.5" y2="1" gradientUnits="objectBoundingBox"><stop offset="0" stop-color="#ff5f4a"/><stop offset="1" stop-color="#d83a25"/></linearGradient><filter id="d" x="2.855" y="0" width="62.878" height="73.595" filterUnits="userSpaceOnUse"><feOffset dy="3" input="SourceAlpha"/><feGaussianBlur stdDeviation="3" result="e"/><feFlood flood-opacity="0.161"/><feComposite operator="in" in2="e"/><feComposite in="SourceGraphic"/></filter><linearGradient id="f" x1="1" y1="0.5" x2="0" y2="0.5" gradientUnits="objectBoundingBox"><stop offset="0" stop-color="#fff" stop-opacity="0"/><stop offset="1" stop-color="#fff" stop-opacity="0.278"/></linearGradient></defs><g transform="translate(-10311.223 -2248)"><path d="M42,9H4.5a4.5,4.5,0,1,1,0-9H41.217a4.466,4.466,0,0,0-1.8,3.6A4.525,4.525,0,0,0,42,7.671V9Z" transform="translate(10323.891 2304)" fill="#efefef"/><g transform="matrix(1, 0, 0, 1, 10311.22, 2248)" filter="url(#a)"><path d="M44.878,8.176H4.56A4.558,4.558,0,0,1,1.785,0,4.558,4.558,0,0,0,5.5,7.2H43.649a4.59,4.59,0,0,0,.768.065h.461v.911Z" transform="translate(11.86 56.82)" fill="#dc402c"/></g><g transform="matrix(1, 0, 0, 1, 10311.22, 2248)" filter="url(#d)"><path d="M.007,55.6C0,55.541,0,55.486,0,55.431V2A2,2,0,0,1,2,0H42.878a2,2,0,0,1,2,2V51.83a4.123,4.123,0,0,0-.627-.048H4.08A4.087,4.087,0,0,0,.009,55.6Z" transform="translate(11.86 6)" fill="url(#c)"/></g><rect width="31" height="8" transform="translate(10329.891 2261)" opacity="0.1"/><rect width="27" height="5" transform="translate(10331.891 2274)" opacity="0.1"/><rect width="27" height="4" transform="translate(10331.891 2281)" opacity="0.1"/><path d="M2,0H5A1,1,0,0,1,6,1V49a0,0,0,0,1,0,0H1a1,1,0,0,1-1-1V2A2,2,0,0,1,2,0Z" transform="translate(10324.891 2255)" fill="url(#f)"/><path d="M5.107,11.075h0A6.958,6.958,0,0,0,0,5.666,8.92,8.92,0,0,0,2.908,3.62,8.5,8.5,0,0,0,4.989,0a7.079,7.079,0,0,0,5.059,5.78,8.894,8.894,0,0,0-2.98,2.077,8.583,8.583,0,0,0-1.962,3.219Z" transform="translate(10354.845 2291.354)" fill="#f8e237"/><path d="M6.862,18.921h0C6.211,14.47,3.518,10.843,0,9.68a12.454,12.454,0,0,0,3.907-3.5A15.852,15.852,0,0,0,6.7,0c.551,4.716,3.219,8.591,6.8,9.874a12.376,12.376,0,0,0-4,3.548,15.793,15.793,0,0,0-2.636,5.5Z" transform="translate(10369.595 2257.461)" fill="#f8e237"/><path d="M7.659,18.921h0A11.37,11.37,0,0,0,0,9.68a13.524,13.524,0,0,0,4.361-3.5A15.123,15.123,0,0,0,7.482,0C8.1,4.716,11.075,8.591,15.07,9.874A13.461,13.461,0,0,0,10.6,13.422a15.154,15.154,0,0,0-2.942,5.5Z" transform="translate(10311.223 2266.876)" fill="#f8e237"/></g></svg>