<svg xmlns="http://www.w3.org/2000/svg" xmlns:xlink="http://www.w3.org/1999/xlink" width="45" height="68.5" viewBox="0 0 45 68.5"><defs><linearGradient id="a" x1="0.5" x2="0.5" y2="1" gradientUnits="objectBoundingBox"><stop offset="0" stop-color="#88c9ff" stop-opacity="0.329"/><stop offset="1" stop-color="#c4e4ff"/></linearGradient><linearGradient id="b" x1="0.5" x2="0.5" y2="1" gradientUnits="objectBoundingBox"><stop offset="0" stop-color="#def0ff"/><stop offset="1" stop-color="#b2d9fc"/></linearGradient><linearGradient id="c" x1="0.5" x2="0.5" y2="1" gradientUnits="objectBoundingBox"><stop offset="0" stop-color="#fb4795"/><stop offset="1" stop-color="#bc35eb"/></linearGradient></defs><g transform="translate(-672 -217.5)"><rect width="38" height="41" rx="5" transform="translate(676 243)" fill="url(#a)"/><rect width="45" height="10" rx="2" transform="translate(672 237)" fill="url(#b)"/><path d="M38,45H10a5.006,5.006,0,0,1-5-5V28H43V40A5.006,5.006,0,0,1,38,45Z" transform="translate(671 241)" fill="url(#c)"/><line y2="27" transform="translate(680.5 252.5)" fill="none" stroke="#172d82" stroke-linecap="round" stroke-width="2"/><line x1="5" transform="translate(680.5 279.5)" fill="none" stroke="#172d82" stroke-linecap="round" stroke-width="2"/><line x1="5" transform="translate(680.5 274.5)" fill="none" stroke="#172d82" stroke-linecap="round" stroke-width="2"/><line x1="5" transform="translate(680.5 269.5)" fill="none" stroke="#172d82" stroke-linecap="round" stroke-width="2"/><line x1="5" transform="translate(680.5 264.5)" fill="none" stroke="#172d82" stroke-linecap="round" stroke-width="2"/><line x1="5" transform="translate(680.5 258.5)" fill="none" stroke="#172d82" stroke-linecap="round" stroke-width="2"/><line x1="5" transform="translate(680.5 252.5)" fill="none" stroke="#172d82" stroke-linecap="round" stroke-width="2"/><line y2="8" transform="translate(709.5 250.5)" fill="none" stroke="#fff" stroke-linecap="round" stroke-width="2"/><line y2="3" transform="translate(709.5 262.5)" fill="none" stroke="#fff" stroke-linecap="round" stroke-width="2"/><g transform="translate(3 3.072)"><line y2="1.75" transform="translate(684.964 215.428)" fill="none" stroke="#f8e237" stroke-linecap="round" stroke-width="2"/><line y2="1.679" transform="translate(684.964 220.75)" fill="none" stroke="#f8e237" stroke-linecap="round" stroke-width="2"/><line x2="1.75" transform="translate(686.75 218.964)" fill="none" stroke="#f8e237" stroke-linecap="round" stroke-width="2"/><line x2="1.679" transform="translate(681.5 218.964)" fill="none" stroke="#f8e237" stroke-linecap="round" stroke-width="2"/></g><g transform="translate(682 229)" fill="#fff" stroke="#ff5f4a" stroke-width="2"><circle cx="3.5" cy="3.5" r="3.5" stroke="none"/><circle cx="3.5" cy="3.5" r="2.5" fill="none"/></g><g transform="translate(675 223)" fill="#fff" stroke="#ff5f4a" stroke-width="2"><circle cx="3.5" cy="3.5" r="3.5" stroke="none"/><circle cx="3.5" cy="3.5" r="2.5" fill="none"/></g><circle cx="1.5" cy="1.5" r="1.5" transform="translate(698 279)" fill="#fff"/><circle cx="1.5" cy="1.5" r="1.5" transform="translate(703 273)" fill="#fff"/><circle cx="0.5" cy="0.5" r="0.5" transform="translate(710 280)" fill="#fff"/></g></svg>