<svg xmlns="http://www.w3.org/2000/svg" width="287" height="12.558" viewBox="0 0 287 12.558"><g transform="translate(-313 -222.516)"><path d="M4.368.112A6.4,6.4,0,0,1,2.359-.2,4.107,4.107,0,0,1,.826-1.05a.642.642,0,0,1-.21-.49.55.55,0,0,1,.112-.343A.328.328,0,0,1,.994-2.03a.677.677,0,0,1,.392.154A4.719,4.719,0,0,0,4.354-.868,3.142,3.142,0,0,0,6.2-1.33a1.523,1.523,0,0,0,.644-1.316,1.056,1.056,0,0,0-.308-.791,2.223,2.223,0,0,0-.812-.483A12.192,12.192,0,0,0,4.368-4.3a13.236,13.236,0,0,1-1.883-.56A2.931,2.931,0,0,1,1.3-5.7,2.157,2.157,0,0,1,.84-7.126,2.539,2.539,0,0,1,1.3-8.617,2.945,2.945,0,0,1,2.569-9.625a4.636,4.636,0,0,1,1.869-.357,5.418,5.418,0,0,1,1.827.3,3.845,3.845,0,0,1,1.421.861.682.682,0,0,1,.224.49.55.55,0,0,1-.112.343.328.328,0,0,1-.266.147.853.853,0,0,1-.406-.154,4.759,4.759,0,0,0-1.274-.784A3.978,3.978,0,0,0,4.438-9a2.958,2.958,0,0,0-1.806.483,1.592,1.592,0,0,0-.644,1.351,1.241,1.241,0,0,0,.567,1.113A5.719,5.719,0,0,0,4.3-5.4q1.274.308,2,.567a3,3,0,0,1,1.211.777,1.951,1.951,0,0,1,.483,1.386,2.422,2.422,0,0,1-.455,1.456,2.956,2.956,0,0,1-1.281.98A4.807,4.807,0,0,1,4.368.112Zm10.6-1.694a.345.345,0,0,1,.266.126.467.467,0,0,1,.112.322q0,.35-.49.644a4.238,4.238,0,0,1-1.064.441A4.292,4.292,0,0,1,12.7.1,3.334,3.334,0,0,1,10.2-.84a3.547,3.547,0,0,1-.917-2.59,4.065,4.065,0,0,1,.406-1.855,3.029,3.029,0,0,1,1.141-1.253A3.15,3.15,0,0,1,12.5-6.986a2.707,2.707,0,0,1,2.114.868A3.378,3.378,0,0,1,15.4-3.766a.6.6,0,0,1-.112.406.465.465,0,0,1-.364.126H10.416Q10.542-.826,12.7-.826a2.675,2.675,0,0,0,.938-.147,6.1,6.1,0,0,0,.84-.4A1.332,1.332,0,0,1,14.966-1.582ZM12.516-6.1a1.9,1.9,0,0,0-1.435.56,2.559,2.559,0,0,0-.637,1.582h3.962a2.425,2.425,0,0,0-.518-1.589A1.737,1.737,0,0,0,12.516-6.1ZM17.64.07a.589.589,0,0,1-.413-.147.531.531,0,0,1-.161-.413V-9.38a.531.531,0,0,1,.161-.413.589.589,0,0,1,.413-.147.57.57,0,0,1,.4.147.531.531,0,0,1,.161.413V-.49a.531.531,0,0,1-.161.413A.57.57,0,0,1,17.64.07Zm7.952-1.652a.345.345,0,0,1,.266.126.467.467,0,0,1,.112.322q0,.35-.49.644a4.238,4.238,0,0,1-1.064.441A4.292,4.292,0,0,1,23.324.1a3.334,3.334,0,0,1-2.5-.938,3.547,3.547,0,0,1-.917-2.59,4.065,4.065,0,0,1,.406-1.855,3.029,3.029,0,0,1,1.141-1.253,3.15,3.15,0,0,1,1.673-.448,2.707,2.707,0,0,1,2.114.868,3.378,3.378,0,0,1,.784,2.352.6.6,0,0,1-.112.406.465.465,0,0,1-.364.126H21.042q.126,2.408,2.282,2.408a2.675,2.675,0,0,0,.938-.147,6.1,6.1,0,0,0,.84-.4A1.332,1.332,0,0,1,25.592-1.582ZM23.142-6.1a1.9,1.9,0,0,0-1.435.56,2.559,2.559,0,0,0-.637,1.582h3.962a2.425,2.425,0,0,0-.518-1.589A1.737,1.737,0,0,0,23.142-6.1ZM30.506.1a3.255,3.255,0,0,1-1.687-.434,2.9,2.9,0,0,1-1.134-1.232,4.081,4.081,0,0,1-.4-1.848A4.051,4.051,0,0,1,27.7-5.278a3.051,3.051,0,0,1,1.155-1.26,3.239,3.239,0,0,1,1.708-.448,3.9,3.9,0,0,1,1.057.147,2.914,2.914,0,0,1,.917.427,1.243,1.243,0,0,1,.357.329.64.64,0,0,1,.1.357.486.486,0,0,1-.1.322.339.339,0,0,1-.273.126.472.472,0,0,1-.21-.056,1.348,1.348,0,0,1-.189-.112.961.961,0,0,0-.1-.07,4.5,4.5,0,0,0-.693-.378,2.056,2.056,0,0,0-.805-.14,1.938,1.938,0,0,0-1.589.693,2.958,2.958,0,0,0-.567,1.925,2.871,2.871,0,0,0,.567,1.9,1.965,1.965,0,0,0,1.589.672,2.163,2.163,0,0,0,.819-.14,3.774,3.774,0,0,0,.693-.378,3.3,3.3,0,0,1,.294-.168.555.555,0,0,1,.238-.07.325.325,0,0,1,.259.126.486.486,0,0,1,.1.322.58.58,0,0,1-.1.329,1.368,1.368,0,0,1-.364.329,3.331,3.331,0,0,1-.945.427A3.964,3.964,0,0,1,30.506.1Zm7.056-.924q.49.042.49.448a.4.4,0,0,1-.175.357.82.82,0,0,1-.525.091L36.974.042A2.375,2.375,0,0,1,35.322-.63a2.579,2.579,0,0,1-.532-1.778V-5.922h-.938a.537.537,0,0,1-.371-.119.4.4,0,0,1-.133-.315.441.441,0,0,1,.133-.336.518.518,0,0,1,.371-.126h.938V-8.4a.544.544,0,0,1,.154-.413.583.583,0,0,1,.42-.147.564.564,0,0,1,.406.147.544.544,0,0,1,.154.413v1.582h1.554a.5.5,0,0,1,.357.126.441.441,0,0,1,.133.336.4.4,0,0,1-.133.315.516.516,0,0,1-.357.119H35.924v3.57a1.618,1.618,0,0,0,.315,1.113,1.35,1.35,0,0,0,.945.385ZM47.7-6.608a.512.512,0,0,1,.49-.336.575.575,0,0,1,.378.14.437.437,0,0,1,.168.35.443.443,0,0,1-.056.224L44.744,2.254a.536.536,0,0,1-.2.238.505.505,0,0,1-.273.084.566.566,0,0,1-.371-.133.425.425,0,0,1-.161-.343.5.5,0,0,1,.056-.224l.98-2.114L42-6.23a.416.416,0,0,1-.056-.21.458.458,0,0,1,.189-.364.64.64,0,0,1,.413-.154.505.505,0,0,1,.273.084.536.536,0,0,1,.2.238l2.338,5.25ZM52.724.1a3.282,3.282,0,0,1-1.7-.434,2.892,2.892,0,0,1-1.134-1.239,4.158,4.158,0,0,1-.4-1.869,4.158,4.158,0,0,1,.4-1.869,2.892,2.892,0,0,1,1.134-1.239,3.282,3.282,0,0,1,1.7-.434,3.32,3.32,0,0,1,1.708.434,2.879,2.879,0,0,1,1.141,1.239,4.158,4.158,0,0,1,.4,1.869,4.158,4.158,0,0,1-.4,1.869A2.879,2.879,0,0,1,54.432-.336,3.32,3.32,0,0,1,52.724.1Zm0-.938A1.876,1.876,0,0,0,54.271-1.5a3.019,3.019,0,0,0,.539-1.939,3,3,0,0,0-.546-1.925,1.864,1.864,0,0,0-1.54-.679,1.864,1.864,0,0,0-1.54.679,3,3,0,0,0-.546,1.925,3.024,3.024,0,0,0,.539,1.932A1.868,1.868,0,0,0,52.724-.84ZM62.846-6.958a.544.544,0,0,1,.413.154.564.564,0,0,1,.147.406V-.476a.545.545,0,0,1-.147.392.544.544,0,0,1-.413.154.539.539,0,0,1-.4-.147A.521.521,0,0,1,62.3-.462v-.7a2.219,2.219,0,0,1-.9.938A2.654,2.654,0,0,1,60.088.1a2.352,2.352,0,0,1-1.834-.679,2.9,2.9,0,0,1-.616-2.009V-6.4a.549.549,0,0,1,.154-.406.568.568,0,0,1,.42-.154.544.544,0,0,1,.413.154.564.564,0,0,1,.147.406v3.78a2.034,2.034,0,0,0,.364,1.337,1.428,1.428,0,0,0,1.148.427,1.886,1.886,0,0,0,1.442-.581,2.148,2.148,0,0,0,.546-1.533V-6.4a.549.549,0,0,1,.154-.406A.568.568,0,0,1,62.846-6.958Zm6.048,0q.588-.042.588.476a.5.5,0,0,1-.126.357.67.67,0,0,1-.434.161l-.42.042a1.888,1.888,0,0,0-1.393.665,2.149,2.149,0,0,0-.455,1.365v3.4a.539.539,0,0,1-.154.42.58.58,0,0,1-.406.14.589.589,0,0,1-.413-.147A.531.531,0,0,1,65.52-.49V-6.4a.52.52,0,0,1,.168-.413.6.6,0,0,1,.406-.147.527.527,0,0,1,.378.147.526.526,0,0,1,.154.4v.784a2.126,2.126,0,0,1,.833-.938A2.819,2.819,0,0,1,68.7-6.944Zm8.33,6.132q.49.042.49.448a.4.4,0,0,1-.175.357.82.82,0,0,1-.525.091L76.636.042A2.375,2.375,0,0,1,74.984-.63a2.579,2.579,0,0,1-.532-1.778V-5.922h-.938a.537.537,0,0,1-.371-.119.4.4,0,0,1-.133-.315.441.441,0,0,1,.133-.336.518.518,0,0,1,.371-.126h.938V-8.4a.544.544,0,0,1,.154-.413.583.583,0,0,1,.42-.147.564.564,0,0,1,.406.147.544.544,0,0,1,.154.413v1.582H77.14a.5.5,0,0,1,.357.126.441.441,0,0,1,.133.336.4.4,0,0,1-.133.315.516.516,0,0,1-.357.119H75.586v3.57A1.618,1.618,0,0,0,75.9-1.239a1.35,1.35,0,0,0,.945.385Zm5.054-6.16a2.333,2.333,0,0,1,1.82.679,2.922,2.922,0,0,1,.616,2.023V-.49a.544.544,0,0,1-.154.413.564.564,0,0,1-.406.147.583.583,0,0,1-.42-.147A.544.544,0,0,1,83.58-.49V-4.256A2.036,2.036,0,0,0,83.209-5.6a1.475,1.475,0,0,0-1.183-.434,2,2,0,0,0-1.5.574,2.13,2.13,0,0,0-.56,1.554V-.49a.558.558,0,0,1-.147.413.558.558,0,0,1-.413.147.583.583,0,0,1-.42-.147.544.544,0,0,1-.154-.413v-8.9A.519.519,0,0,1,79-9.786a.573.573,0,0,1,.413-.154.558.558,0,0,1,.413.147.539.539,0,0,1,.147.4v3.668a2.271,2.271,0,0,1,.938-.938A2.863,2.863,0,0,1,82.278-6.986Zm9.786,5.4a.345.345,0,0,1,.266.126.467.467,0,0,1,.112.322q0,.35-.49.644a4.238,4.238,0,0,1-1.064.441A4.292,4.292,0,0,1,89.8.1,3.334,3.334,0,0,1,87.3-.84a3.547,3.547,0,0,1-.917-2.59,4.065,4.065,0,0,1,.406-1.855,3.029,3.029,0,0,1,1.141-1.253A3.15,3.15,0,0,1,89.6-6.986a2.707,2.707,0,0,1,2.114.868A3.378,3.378,0,0,1,92.5-3.766a.6.6,0,0,1-.112.406.465.465,0,0,1-.364.126H87.514Q87.64-.826,89.8-.826a2.675,2.675,0,0,0,.938-.147,6.1,6.1,0,0,0,.84-.4A1.332,1.332,0,0,1,92.064-1.582ZM89.614-6.1a1.9,1.9,0,0,0-1.435.56,2.559,2.559,0,0,0-.637,1.582H91.5a2.425,2.425,0,0,0-.518-1.589A1.737,1.737,0,0,0,89.614-6.1Zm12.138-.882q2.268,0,2.268,2.7V-.49a.544.544,0,0,1-.154.413.564.564,0,0,1-.406.147.589.589,0,0,1-.413-.147.531.531,0,0,1-.161-.413V-4.256a2.181,2.181,0,0,0-.336-1.358,1.264,1.264,0,0,0-1.05-.42,1.674,1.674,0,0,0-1.344.574,2.315,2.315,0,0,0-.49,1.554V-.49a.531.531,0,0,1-.161.413.589.589,0,0,1-.413.147.564.564,0,0,1-.406-.147.544.544,0,0,1-.154-.413V-4.256A2.181,2.181,0,0,0,98.2-5.614a1.281,1.281,0,0,0-1.064-.42A1.679,1.679,0,0,0,95.8-5.46a2.293,2.293,0,0,0-.5,1.554V-.49a.544.544,0,0,1-.154.413.564.564,0,0,1-.406.147.589.589,0,0,1-.413-.147.531.531,0,0,1-.161-.413V-6.4a.536.536,0,0,1,.161-.406.573.573,0,0,1,.413-.154.545.545,0,0,1,.392.147.526.526,0,0,1,.154.4v.672a2.215,2.215,0,0,1,.854-.924,2.434,2.434,0,0,1,1.26-.322,2,2,0,0,1,2.086,1.344,2.268,2.268,0,0,1,.9-.98A2.6,2.6,0,0,1,101.752-6.986Zm9.618,5.4a.345.345,0,0,1,.266.126.467.467,0,0,1,.112.322q0,.35-.49.644a4.238,4.238,0,0,1-1.064.441A4.292,4.292,0,0,1,109.1.1a3.334,3.334,0,0,1-2.5-.938,3.547,3.547,0,0,1-.917-2.59,4.065,4.065,0,0,1,.406-1.855,3.029,3.029,0,0,1,1.141-1.253,3.15,3.15,0,0,1,1.673-.448,2.707,2.707,0,0,1,2.114.868,3.378,3.378,0,0,1,.784,2.352.6.6,0,0,1-.112.406.465.465,0,0,1-.364.126H106.82q.126,2.408,2.282,2.408a2.675,2.675,0,0,0,.938-.147,6.1,6.1,0,0,0,.84-.4A1.332,1.332,0,0,1,111.37-1.582ZM108.92-6.1a1.9,1.9,0,0,0-1.435.56,2.559,2.559,0,0,0-.637,1.582h3.962a2.425,2.425,0,0,0-.518-1.589A1.737,1.737,0,0,0,108.92-6.1Z" transform="translate(401.25 232.498)" fill="#4bdbcd"/><line x1="78" transform="translate(313 228)" fill="none" stroke="#47dcd4" stroke-width="1"/><line x1="78" transform="translate(522 228)" fill="none" stroke="#4adbce" stroke-width="1"/></g></svg>