<svg xmlns="http://www.w3.org/2000/svg" xmlns:xlink="http://www.w3.org/1999/xlink" width="39.595" height="38.695" viewBox="0 0 39.595 38.695"><defs><linearGradient id="a" x1="0.5" x2="0.5" y2="1" gradientUnits="objectBoundingBox"><stop offset="0" stop-color="#f8e237"/><stop offset="0.569" stop-color="#ffae14"/><stop offset="0.891" stop-color="#ff8133"/><stop offset="1" stop-color="#ff5f4a"/></linearGradient><filter id="b" x="0" y="0" width="39.595" height="38.695" filterUnits="userSpaceOnUse"><feOffset dy="3" input="SourceAlpha"/><feGaussianBlur stdDeviation="3" result="c"/><feFlood flood-opacity="0.161"/><feComposite operator="in" in2="c"/><feComposite in="SourceGraphic"/></filter><linearGradient id="d" x1="0.082" y1="-0.117" x2="0.832" y2="0.97" gradientUnits="objectBoundingBox"><stop offset="0" stop-color="#fff" stop-opacity="0.169"/><stop offset="1" stop-color="#fff" stop-opacity="0.22"/></linearGradient><radialGradient id="e" cx="0.5" cy="0.5" r="0.5" xlink:href="#a"/></defs><g transform="translate(8.999 6)"><g transform="translate(0 0)"><g transform="matrix(1, 0, 0, 1, -9, -6)" filter="url(#b)"><path d="M21.539,8.312a1.145,1.145,0,0,0-.988-.789l-6.233-.566L11.853,1.188a1.148,1.148,0,0,0-2.111,0L7.278,6.957l-6.234.566A1.149,1.149,0,0,0,.392,9.531L5.1,13.663l-1.389,6.12a1.146,1.146,0,0,0,1.707,1.24L10.8,17.809l5.374,3.213a1.148,1.148,0,0,0,1.708-1.24l-1.389-6.12L21.2,9.532a1.148,1.148,0,0,0,.337-1.22Zm0,0" transform="translate(9 5.51)" fill="url(#a)"/></g><path d="M4.832,20.692a1.137,1.137,0,0,1-.67-.218,1.154,1.154,0,0,1-.449-1.185l1.361-6,1.23,1.078-1.392,6.12a1.155,1.155,0,0,0-.026.2H4.832ZM1.287,9.824l-.9-.786a1.148,1.148,0,0,1,.653-2.006l6.233-.568L9.744.7a1.149,1.149,0,0,1,2.111,0l.216.506c-.021,0-.043,0-.073,0a1.144,1.144,0,0,0-1.054.7L8.477,7.663l-6.234.568a1.151,1.151,0,0,0-.954,1.591ZM21.594,8.217h0l-6.076-.553-.484-1.134,5.518.5a1.136,1.136,0,0,1,.986.789,1.117,1.117,0,0,1,.056.395Z" transform="translate(0 0.001)" fill="url(#d)"/><path d="M12.527,20.693a1.143,1.143,0,0,1-.589-.163l-.012-.007A.863.863,0,0,0,12,20.474a1.146,1.146,0,0,0,.449-1.185l-1.392-6.12L15.77,9.04A1.156,1.156,0,0,0,16.1,7.82a1.137,1.137,0,0,0-.986-.789L8.883,6.464,6.42.7A1.165,1.165,0,0,0,5.963.169,1.15,1.15,0,0,1,7.62.7l2.463,5.768,6.234.568a1.15,1.15,0,0,1,.651,2.009l-4.713,4.129,1.392,6.12a1.152,1.152,0,0,1-1.12,1.4ZM.6,20.692a1.146,1.146,0,0,1-.6-.17l5.364-3.2.6.358L1.188,20.529A1.12,1.12,0,0,1,.6,20.692Z" transform="translate(4.235 0.001)" opacity="0.41" fill="url(#e)"/></g></g></svg>