<svg xmlns="http://www.w3.org/2000/svg" xmlns:xlink="http://www.w3.org/1999/xlink" width="76.001" height="65" viewBox="0 0 76.001 65"><defs><linearGradient id="a" x1="1" y1="0.5" x2="0.139" y2="1" gradientUnits="objectBoundingBox"><stop offset="0" stop-color="#ff5f4a"/><stop offset="1" stop-color="#b72815"/></linearGradient><linearGradient id="b" y1="0.5" x2="1" y2="0.5" gradientUnits="objectBoundingBox"><stop offset="0" stop-color="#ff3e92"/><stop offset="1" stop-color="#bc35eb"/></linearGradient><filter id="c" x="0" y="0" width="76.001" height="65" filterUnits="userSpaceOnUse"><feOffset dy="3" input="SourceAlpha"/><feGaussianBlur stdDeviation="3" result="d"/><feFlood flood-opacity="0.161"/><feComposite operator="in" in2="d"/><feComposite in="SourceGraphic"/></filter><linearGradient id="e" x1="0" y1="0.636" x2="1.152" y2="0.636" xlink:href="#a"/><linearGradient id="f" y1="0.5" x2="1" y2="0.5" gradientUnits="objectBoundingBox"><stop offset="0" stop-color="#fff" stop-opacity="0.231"/><stop offset="1" stop-color="#fff" stop-opacity="0"/></linearGradient><radialGradient id="g" cx="0.5" cy="0.5" r="0.5" gradientUnits="objectBoundingBox"><stop offset="0" stop-color="#45dfe0"/><stop offset="0.795" stop-color="#41dcdd"/><stop offset="1" stop-color="#20c5c7"/></radialGradient><linearGradient id="h" x1="0.636" y1="0.648" x2="0.094" y2="0.694" gradientUnits="objectBoundingBox"><stop offset="0" stop-color="#d4d4d4"/><stop offset="1" stop-color="#afafaf"/></linearGradient><linearGradient id="i" x1="0.66" y1="0.379" x2="0.259" y2="0.352" gradientUnits="objectBoundingBox"><stop offset="0" stop-color="#cf3a26"/><stop offset="1" stop-color="#b53524"/></linearGradient></defs><g transform="translate(6 -3)"><path d="M15,18V6H9A6,6,0,0,0,9,18Z" fill="url(#a)"/><g transform="matrix(1, 0, 0, 1, -6, 3)" filter="url(#c)"><path d="M55,9a52.767,52.767,0,0,0-15.641,2.371L26.6,15.332A59.334,59.334,0,0,1,9,18a6,6,0,0,1-6-6V50a6,6,0,0,0,6,6,59.345,59.345,0,0,0,17.6-2.668L39.36,49.371A52.837,52.837,0,0,1,50,47.237V21h5A6,6,0,1,0,55,9Z" transform="translate(6 -3)" fill="url(#b)"/></g><g transform="matrix(0.695, -0.719, 0.719, 0.695, -12.962, 33.315)"><path d="M13.8,28.783a16.01,16.01,0,0,1,1.867.223l.354-1.969a18.045,18.045,0,0,0-2.1-.25Z" fill="#fff"/><path d="M20.937,30.951A16,16,0,0,1,22.5,32L23.708,30.4a18.27,18.27,0,0,0-1.76-1.176Z" fill="#fff"/><path d="M9.7,27.031,10.05,29a15.961,15.961,0,0,1,1.869-.219l-.117-2a18.04,18.04,0,0,0-2.1.247Z" fill="#fff"/><path d="M5.965,27.737h2v2h-2Z" transform="matrix(0.965, -0.263, 0.263, 0.965, -7.305, 2.839)" fill="#fff"/><path d="M24.071,33.248a17.791,17.791,0,0,0,1.771,1.16l1-1.734a16,16,0,0,1-1.573-1.031Z" fill="#fff"/><path d="M17.5,29.446a15.922,15.922,0,0,1,1.764.651l.8-1.832a18.293,18.293,0,0,0-1.984-.733Z" fill="#fff"/><path d="M39.874,33.961h2v2h-2Z" transform="translate(-5.75 8.144) rotate(-10.658)" fill="#fff"/><path d="M43.806,33.224h2v2h-2Z" transform="translate(-5.547 8.857) rotate(-10.658)" fill="#fff"/><path d="M31.789,36.546a18.049,18.049,0,0,0,2.1.232l.1-2a16.057,16.057,0,0,1-1.87-.207Z" fill="#fff"/><path d="M27.736,35.354a17.959,17.959,0,0,0,1.992.715l.564-1.918a16.1,16.1,0,0,1-1.771-.637Z" fill="#fff"/><path d="M35.876,34.767l.133,1.995a17.827,17.827,0,0,0,2.1-.265l-.367-1.966a15.991,15.991,0,0,1-1.866.236Z" fill="#fff"/></g><path d="M45.974,17.414,44.56,16l-2.293,2.293L39.974,16,38.56,17.414l2.293,2.293L38.56,22l1.414,1.414,2.293-2.293,2.293,2.293L45.974,22l-2.293-2.293Z" transform="matrix(0.978, 0.208, -0.208, 0.978, 8.021, -8.357)" fill="#f8e237"/><path d="M55,21H50V59A11,11,0,0,0,61,48V15A6,6,0,0,1,55,21Z" fill="url(#e)"/><path d="M-11273-1928.5a6.612,6.612,0,0,1-3.543-1h.042v-32.718a6.618,6.618,0,0,0,3.5.974,68.335,68.335,0,0,0,15.5-1.776v32.747A68.48,68.48,0,0,1-11273-1928.5Z" transform="translate(11282 1981)" fill="url(#f)"/><g transform="translate(-11569 -2060)"><circle cx="11" cy="11" r="11" transform="translate(11567 2103)" fill="#ff5f4a"/><circle cx="11" cy="11" r="11" transform="translate(11566 2102)" fill="#f8e237"/><circle cx="9" cy="9" r="9" transform="translate(11568 2104)" fill="url(#g)"/><g transform="matrix(0.94, -0.342, 0.342, 0.94, 28.262, 4070.926)"><path d="M1.811,6.417H0V0L1.811,6.416Z" transform="translate(11521.791 2103.393)" fill="url(#h)"/><path d="M1.811,6.417H0V0L1.811,6.416Z" transform="translate(11521.811 2116.226) rotate(180)" fill="#fc5d48"/><path d="M0,6.413H0V0H1.811Z" transform="translate(11521.811 2109.809) rotate(180)" fill="#fff"/><path d="M0,6.413H0V0H1.811Z" transform="translate(11521.791 2109.809)" fill="url(#i)"/></g><circle cx="0.5" cy="0.5" r="0.5" transform="translate(11577 2120)" fill="#fff"/><circle cx="0.5" cy="0.5" r="0.5" transform="translate(11577 2105)" fill="#fff"/><circle cx="0.5" cy="0.5" r="0.5" transform="translate(11569 2113)" fill="#fff"/><circle cx="0.5" cy="0.5" r="0.5" transform="translate(11584 2113)" fill="#fff"/><circle cx="0.5" cy="0.5" r="0.5" transform="translate(11571 2107)" fill="#fff"/><circle cx="0.5" cy="0.5" r="0.5" transform="translate(11582 2118)" fill="#fff"/><circle cx="0.5" cy="0.5" r="0.5" transform="translate(11583 2108)" fill="#fff"/><circle cx="0.5" cy="0.5" r="0.5" transform="translate(11571 2118)" fill="#fff"/></g></g></svg>