<svg xmlns="http://www.w3.org/2000/svg" width="19" height="19" viewBox="0 0 19 19"><g transform="translate(-645 -570)"><circle cx="9.5" cy="9.5" r="9.5" transform="translate(645 570)" fill="#e62d2d"/><path d="M1.537-1.484A.932.932,0,0,1,.9-1.668a.737.737,0,0,1-.2-.571L.588-9.427a.832.832,0,0,1,.176-.589.83.83,0,0,1,.615-.185H2.714a.83.83,0,0,1,.615.185.832.832,0,0,1,.176.589L3.382-2.239a.737.737,0,0,1-.2.571.932.932,0,0,1-.641.185ZM1.748,1.75a1.9,1.9,0,0,1-.967-.193A.667.667,0,0,1,.465.942V.555A.669.669,0,0,1,.773-.069a1.966,1.966,0,0,1,.975-.185H2.31a1.941,1.941,0,0,1,.984.193.667.667,0,0,1,.316.615V.942a.667.667,0,0,1-.316.615,1.941,1.941,0,0,1-.984.193Z" transform="translate(652.535 584.2)" fill="#fff"/></g></svg>