<svg xmlns="http://www.w3.org/2000/svg" xmlns:xlink="http://www.w3.org/1999/xlink" width="61.769" height="57.075" viewBox="0 0 61.769 57.075"><defs><linearGradient id="a" x1="0.712" y1="0.104" x2="0.5" y2="1" gradientUnits="objectBoundingBox"><stop offset="0" stop-color="#fb4795"/><stop offset="0.531" stop-color="#cd3ad4"/><stop offset="1" stop-color="#bc35eb"/></linearGradient><linearGradient id="b" x1="0.5" x2="0.5" y2="1" gradientUnits="objectBoundingBox"><stop offset="0" stop-color="#7bfeff"/><stop offset="0.217" stop-color="#45dee0"/><stop offset="0.51" stop-color="#45d7e0"/><stop offset="1" stop-color="#45bbe0"/></linearGradient><linearGradient id="c" x1="0.5" x2="0.5" y2="1" gradientUnits="objectBoundingBox"><stop offset="0" stop-color="#f8e237"/><stop offset="1" stop-color="#ff5f4a"/></linearGradient><linearGradient id="d" x1="0.5" x2="0.832" y2="1.021" gradientUnits="objectBoundingBox"><stop offset="0" stop-color="#fb4795"/><stop offset="1" stop-color="#ff5f4a"/></linearGradient><linearGradient id="e" x1="0.5" x2="0.5" y2="1" gradientUnits="objectBoundingBox"><stop offset="0" stop-color="#ffee6b"/><stop offset="0.732" stop-color="#f8e137"/><stop offset="1" stop-color="#f8d837"/></linearGradient><linearGradient id="f" x1="0.633" x2="1" y2="0.5" gradientUnits="objectBoundingBox"><stop offset="0" stop-color="#f8e237"/><stop offset="0.51" stop-color="#fba83f"/><stop offset="1" stop-color="#ff5f4a"/></linearGradient><linearGradient id="g" x1="0.5" x2="0.5" y2="1" gradientUnits="objectBoundingBox"><stop offset="0" stop-color="#45dfe0"/><stop offset="0.494" stop-color="#72d377"/><stop offset="1" stop-color="#7ad163"/></linearGradient><linearGradient id="h" x1="0.673" y1="0.082" x2="0.327" y2="0.918" gradientUnits="objectBoundingBox"><stop offset="0" stop-color="#45dfe0"/><stop offset="0.46" stop-color="#6dd482"/><stop offset="1" stop-color="#7ad163"/></linearGradient><linearGradient id="i" x1="0.796" y1="0.102" x2="0.163" y2="0.857" gradientUnits="objectBoundingBox"><stop offset="0" stop-color="#45dfe0"/><stop offset="0.494" stop-color="#6ed47f"/><stop offset="1" stop-color="#7ad163"/></linearGradient><linearGradient id="j" x1="0.898" y1="0.225" x2="0.143" y2="0.775" gradientUnits="objectBoundingBox"><stop offset="0" stop-color="#45dfe0"/><stop offset="0.473" stop-color="#6ed47e"/><stop offset="1" stop-color="#7ad163"/></linearGradient><linearGradient id="k" x1="1" y1="0.265" x2="0.163" y2="0.735" gradientUnits="objectBoundingBox"><stop offset="0" stop-color="#45dfe0"/><stop offset="0.443" stop-color="#6cd585"/><stop offset="1" stop-color="#7ad163"/></linearGradient></defs><g transform="translate(-254.667 -230.31)"><g transform="translate(261.616 230.309)"><g transform="translate(2.208 11.792)"><path d="M10874.98,2142.25a11.655,11.655,0,0,0-.966,6.841c.689,3.665,1.654,6.923,0,8.877" transform="translate(-10869.327 -2141.974)" fill="none" stroke="#bc35eb" stroke-linecap="round" stroke-width="1.5"/><path d="M10870.335,2143s-2.068,3.8,0,6.9-1.586,6.064-1.586,6.064" transform="translate(-10868.749 -2143)" fill="none" stroke="#9d22c8" stroke-linecap="round" stroke-width="1.5"/><path d="M10873.847,2142.25a11.659,11.659,0,0,1,.965,6.841c-.688,3.665-1.654,6.923,0,8.877" transform="translate(-10862.816 -2141.974)" fill="none" stroke="#bc35eb" stroke-linecap="round" stroke-width="1.5"/><path d="M10869.383,2143s2.068,3.8,0,6.9,1.586,6.064,1.586,6.064" transform="translate(-10854.286 -2143)" fill="none" stroke="#9d22c8" stroke-linecap="round" stroke-width="1.5"/></g><path d="M10868.518,2143.412c-1.162-4.336,2.9-11.237,10.686-11.1s11.72,6.756,10.479,11.1-7.713.884-10.479.827S10869.68,2147.748,10868.518,2143.412Z" transform="translate(-10868.319 -2132.309)" fill="url(#a)"/><path d="M2,13.061h0A2.593,2.593,0,0,1,.2,11.1,8.379,8.379,0,0,1,1.979,4.134,10.631,10.631,0,0,1,10.658,0l.226,0c.108,0,.219.005.334.01A10.462,10.462,0,0,0,3.14,4.279,9.186,9.186,0,0,0,1.3,11.7,3.1,3.1,0,0,0,2,13.057Z" fill="#9d22c8"/><circle cx="1.5" cy="1.5" r="1.5" transform="translate(5.051 6.017)" fill="#172d82"/><circle cx="1.5" cy="1.5" r="1.5" transform="translate(14.051 6.017)" fill="#172d82"/><circle cx="0.5" cy="0.5" r="0.5" transform="translate(7.051 7.017)" fill="#fff"/><circle cx="0.5" cy="0.5" r="0.5" transform="translate(14.051 7.017)" fill="#fff"/><path d="M10884.25,2139.563a1.2,1.2,0,0,0,1.1.62,1.275,1.275,0,0,0,1.017-.62" transform="translate(-10874.045 -2130.459)" fill="none" stroke="#fff" stroke-linecap="round" stroke-width="0.5"/><ellipse cx="0.552" cy="1.655" rx="0.552" ry="1.655" transform="matrix(0.719, -0.695, 0.695, 0.719, 16.118, 2.484)" fill="#fff"/></g><g transform="translate(255 251.996)"><path d="M18.515,30.066c-6.129,0-10.875-1.622-14.106-4.819A14.073,14.073,0,0,1,.46,17.7,69.9,69.9,0,0,1,.1,6.578,5.517,5.517,0,0,1,10.449,3.046l16.633,25.6a9.4,9.4,0,0,1-3.755,1.121,40.813,40.813,0,0,1-4.811.3Z" transform="translate(4.605 0)" fill="url(#b)"/><path d="M1,0,2,6H0Z" transform="translate(-0.333 7.33) rotate(-90)" fill="url(#c)"/><g transform="translate(6.667 4.33)" fill="#172d82" stroke="#172d82" stroke-width="1"><circle cx="1" cy="1" r="1" stroke="none"/><circle cx="1" cy="1" r="0.5" fill="none"/></g><path d="M10.48,13.863h0c-3.477,0-6.168-.99-8-2.941A8.845,8.845,0,0,1,.24,6.315,42.487,42.487,0,0,1,.024,0H7.49l7.848,12.994a5.075,5.075,0,0,1-2.129.684A21.555,21.555,0,0,1,10.48,13.863Z" transform="matrix(0.985, -0.174, 0.174, 0.985, 11.815, 10.745)" fill="url(#d)"/><path d="M10877.665,2359.333a44.262,44.262,0,0,0,4.251,3.792c.865.692,2.083,1.373,3.449,2.413" transform="translate(-10849.846 -2333.592)" fill="none" stroke="#ff5f4a" stroke-width="3"/><path d="M10861.3,2362.4l-1.1,7.033h-4" transform="translate(-10842.491 -2334.544)" fill="none" stroke="#f8cb37" stroke-width="1"/><path d="M10861.3,2362.4l-1.1,7.033h-4" transform="translate(-10839.733 -2334.544)" fill="none" stroke="#f8e237" stroke-width="1"/></g><g transform="translate(279.267 245.411)"><path d="M8.29,21A8.29,8.29,0,0,1,1.783,7.574L5.958,0,8.4,4.421h8.4L19.5,0l4.426,7.226A8.29,8.29,0,0,1,17.71,21Z" transform="translate(0.4 -0.085)" fill="url(#e)"/><circle cx="1.5" cy="1.5" r="1.5" transform="translate(7.4 9.915)" fill="#172d82"/><circle cx="1.5" cy="1.5" r="1.5" transform="translate(16.4 9.915)" fill="#172d82"/><path d="M10455.6,2307.859v1.22s-.977.963-1.824.218" transform="translate(-10442.455 -2294)" fill="none" stroke="#bc35eb" stroke-width="0.5"/><path d="M10456,2309.219s.989,1.31,1.875.205" transform="translate(-10442.851 -2294.242)" fill="none" stroke="#bc35eb" stroke-width="0.5"/><circle cx="0.5" cy="0.5" r="0.5" transform="translate(9.4 10.915)" fill="#fff"/><circle cx="0.5" cy="0.5" r="0.5" transform="translate(16.4 10.915)" fill="#fff"/><path d="M0,0H13.97a21.233,21.233,0,0,1,5.987,8.922c1.673,5.341.7,12.444.7,12.444H0Z" transform="translate(6.574 20.549)" fill="#f8e237"/><path d="M10470.713,2335.6s9.041-1.291,7.4-7.513,2.465-8.8,2.465-8.8" transform="translate(-10445.474 -2296.036)" fill="none" stroke="#f8e237" stroke-linecap="round" stroke-width="3"/><g transform="translate(11.4 4.415)" fill="#fff"><path d="M 3.333600044250488 2.50059986114502 C 3.241569995880127 2.50059986114502 3.166700124740601 2.425729990005493 3.166700124740601 2.333699941635132 L 3.166700124740601 0.4999999403953552 L 3.500500202178955 0.4999999403953552 L 3.500500202178955 2.333699941635132 C 3.500500202178955 2.425729990005493 3.42563009262085 2.50059986114502 3.333600044250488 2.50059986114502 Z M 0.666900098323822 2.50059986114502 C 0.5748701095581055 2.50059986114502 0.5000001192092896 2.425729990005493 0.5000001192092896 2.333699941635132 L 0.5000001192092896 0.4999999403953552 L 0.8338000774383545 0.4999999403953552 L 0.8338000774383545 2.333699941635132 C 0.8338000774383545 2.425729990005493 0.7589300870895386 2.50059986114502 0.666900098323822 2.50059986114502 Z" stroke="none"/><path d="M 3.333600044250488 3.00059986114502 C 2.965870141983032 3.00059986114502 2.666700124740601 2.701429843902588 2.666700124740601 2.333699941635132 L 2.666700124740601 -6.942749308791463e-08 L 4.000500202178955 -6.942749308791463e-08 L 4.000500202178955 2.333699941635132 C 4.000500202178955 2.701429843902588 3.701330184936523 3.00059986114502 3.333600044250488 3.00059986114502 Z M 0.666900098323822 3.00059986114502 C 0.2991701066493988 3.00059986114502 1.010894763453507e-07 2.701429843902588 1.010894763453507e-07 2.333699941635132 L 1.010894763453507e-07 -6.942749308791463e-08 L 1.333800077438354 -6.942749308791463e-08 L 1.333800077438354 2.333699941635132 C 1.333800077438354 2.701429843902588 1.034630060195923 3.00059986114502 0.666900098323822 3.00059986114502 Z" stroke="none" fill="#ff5f4a"/></g><path d="M10907.03,2149.9l13.926-.241a8.893,8.893,0,0,1,1.861,1.9C10923.186,2152.287,10907.03,2149.9,10907.03,2149.9Z" transform="translate(-10900.378 -2129.078)" fill="#f8d137"/><line y2="13.236" transform="translate(10.479 28.127)" fill="none" stroke="#f8d137" stroke-width="1"/><ellipse cx="1" cy="0.5" rx="1" ry="0.5" transform="translate(12.4 12.915)" fill="#fb4795"/></g><g transform="translate(286.437 230.52)"><line x1="1.103" y1="3.309" transform="translate(3.309)" fill="none" stroke="#172d82" stroke-width="1"/><line x1="2.206" y1="1.103" transform="translate(0 3.309)" fill="none" stroke="#172d82" stroke-width="1"/><path d="M1.1,0l1.1,2.206H0Z" transform="translate(11.439 10.605) rotate(-173)" fill="#f8e237"/><path d="M1.1,0l1.1,2.206H0Z" transform="matrix(-0.966, -0.259, 0.259, -0.966, 17.877, 11.83)" fill="#f8e237"/><path d="M1.1,0l1.1,2.206H0Z" transform="matrix(-0.574, -0.819, 0.819, -0.574, 20.135, 13.118)" fill="#f8e237"/><path d="M1.1,0l1.1,2.206H0Z" transform="matrix(-0.017, -1, 1, -0.017, 20.426, 16.013)" fill="#f8e237"/><path d="M1.1,0l1.1,2.206H0Z" transform="matrix(0.208, -0.978, 0.978, 0.208, 20.201, 21.255)" fill="#f8e237"/><circle cx="4" cy="4" r="4" transform="translate(0.23 2.806)" fill="url(#f)"/><circle cx="4" cy="4" r="4" transform="translate(7.23 1.806)" fill="url(#g)"/><ellipse cx="3.5" cy="4" rx="3.5" ry="4" transform="translate(14.23 2.806)" fill="url(#h)"/><circle cx="4" cy="4" r="4" transform="translate(19.23 4.806)" fill="url(#i)"/><ellipse cx="4" cy="3.5" rx="4" ry="3.5" transform="translate(21.23 10.806)" fill="url(#j)"/><circle cx="4" cy="4" r="4" transform="translate(21.23 16.806)" fill="url(#k)"/><g transform="translate(1.23 4.806)" fill="#172d82" stroke="#172d82" stroke-width="1"><circle cx="1" cy="1" r="1" stroke="none"/><circle cx="1" cy="1" r="0.5" fill="none"/></g><circle cx="0.5" cy="0.5" r="0.5" transform="translate(1.23 4.806)" fill="#fff"/></g></g></svg>