<svg xmlns="http://www.w3.org/2000/svg" xmlns:xlink="http://www.w3.org/1999/xlink" width="92" height="69.854" viewBox="0 0 92 69.854"><defs><linearGradient id="a" x1="0.5" x2="0.5" y2="1" gradientUnits="objectBoundingBox"><stop offset="0" stop-color="#d5ffff"/><stop offset="1" stop-color="#fffce1"/></linearGradient><linearGradient id="b" x1="0.5" x2="0.5" y2="1" gradientUnits="objectBoundingBox"><stop offset="0" stop-color="#82cf51"/><stop offset="1" stop-color="#2ddb8a"/></linearGradient><linearGradient id="c" x1="0.422" y1="-0.061" x2="0.524" y2="0.614" gradientUnits="objectBoundingBox"><stop offset="0" stop-color="#fff" stop-opacity="0.302"/><stop offset="1" stop-color="#fff" stop-opacity="0"/></linearGradient><linearGradient id="d" x1="0.427" y1="0.49" x2="0.614" y2="0.835" gradientUnits="objectBoundingBox"><stop offset="0" stop-opacity="0"/><stop offset="1" stop-opacity="0.11"/></linearGradient><linearGradient id="e" x1="0.5" x2="0.5" y2="1" gradientUnits="objectBoundingBox"><stop offset="0" stop-color="#fb4795"/><stop offset="1" stop-color="#ff5f4a"/></linearGradient><linearGradient id="f" x1="0.5" x2="0.5" y2="1" gradientUnits="objectBoundingBox"><stop offset="0" stop-color="#fff" stop-opacity="0.761"/><stop offset="1" stop-color="#fff"/></linearGradient></defs><g transform="translate(-374 -222)"><g transform="translate(1 1)"><ellipse cx="36" cy="30.5" rx="36" ry="30.5" transform="translate(384 221)" fill="url(#a)"/><path d="M34.851,14H.016C.005,13.851,0,13.7,0,13.562A5.786,5.786,0,0,1,1.239,9.981a5.554,5.554,0,0,1,3.1-1.969A7.213,7.213,0,0,1,4.268,7,6.925,6.925,0,0,1,11.1,0a6.733,6.733,0,0,1,5.349,2.65A7.608,7.608,0,0,1,22.194,0a7.74,7.74,0,0,1,7.639,7.015A5.474,5.474,0,0,1,33.5,8.8a5.741,5.741,0,0,1,1.5,3.89A5.851,5.851,0,0,1,34.852,14Z" transform="translate(373 249)" fill="#45dfe0"/><path d="M34.851,14H.016C.005,13.851,0,13.7,0,13.562A5.786,5.786,0,0,1,1.239,9.981a5.554,5.554,0,0,1,3.1-1.969A7.213,7.213,0,0,1,4.268,7,6.925,6.925,0,0,1,11.1,0a6.733,6.733,0,0,1,5.349,2.65A7.608,7.608,0,0,1,22.194,0a7.74,7.74,0,0,1,7.639,7.015A5.474,5.474,0,0,1,33.5,8.8a5.741,5.741,0,0,1,1.5,3.89A5.851,5.851,0,0,1,34.852,14Z" transform="translate(430 238)" fill="#45dfe0"/><path d="M86.377,51.95H0L15.932,17.694a5,5,0,0,1,9.067,0L37.606,44.8,55.8,5.3a5,5,0,0,1,9.083,0Z" transform="translate(376.287 233.079)" fill="url(#b)"/><circle cx="8" cy="8" r="8" transform="translate(406 234)" fill="#f8e237"/><line y1="9" transform="translate(436.5 226.5)" fill="none" stroke="#172d82" stroke-width="1"/><path d="M2,0,4,4H0Z" transform="translate(441 226.5) rotate(90)" fill="#ff5f4a"/><path d="M22.715,26.5v-3a2.5,2.5,0,0,1-5,0v3a2.5,2.5,0,0,1-4.6,1.347l2.825-6.074a5,5,0,0,1,9.068,0l2.578,5.543a2.5,2.5,0,0,1-4.863-.816Zm40-9v-3a2.5,2.5,0,0,1-5,0v3a2.5,2.5,0,1,1-5,0V16.085l3.089-6.7a5,5,0,0,1,9.083,0l2.829,6.139V17.5a2.5,2.5,0,1,1-5,0Z" transform="translate(376.286 229)" fill="#fff"/><path d="M-10.594-.76l32.285.024L28.119,2.8-4.044,13.288Z" transform="translate(381.583 275.636) rotate(-65)" fill="url(#c)"/><path d="M-6.137,5.446,9.134-4.567,7.817,6.164l-7.47,3.4Z" transform="translate(423.353 276.428) rotate(83)" fill="url(#d)"/></g><g transform="translate(-5 -2)"><path d="M-10622-1876.016a1.845,1.845,0,0,1-2-1.629v-2.448c0-.684,3.97-1.8,6.368-2.295l1.383-2.625c1.062-1.7,1.718-1.989,3.376-1.989h5.25c1.655,0,3.093.219,3.748,1.989l.775,2.811c1.223.552,3.1,1.5,3.1,2.109v2.448a1.845,1.845,0,0,1-2,1.629Z" transform="translate(11053 2166.516)" fill="url(#e)"/><g transform="translate(434 287)" fill="#fff" stroke="#172d82" stroke-width="1"><circle cx="2.5" cy="2.5" r="2.5" stroke="none"/><circle cx="2.5" cy="2.5" r="2" fill="none"/></g><g transform="translate(445 287)" fill="#fff" stroke="#172d82" stroke-width="1"><circle cx="2.5" cy="2.5" r="2.5" stroke="none"/><circle cx="2.5" cy="2.5" r="2" fill="none"/></g><path d="M11060.156,2173c-.031-.125,1.094-2.75,1.875-3.094a8.289,8.289,0,0,1,3.313-.156c.063.125,0,3.25,0,3.25Z" transform="translate(-10624 -1889)" fill="url(#f)"/><path d="M11066.969,2173c.041-.125-.479-2.781-1.5-3.125a20.517,20.517,0,0,0-5.277-.125c-.082.125,0,3.25,0,3.25Z" transform="translate(-10618.001 -1889)" fill="url(#f)"/></g></g></svg>