<svg xmlns="http://www.w3.org/2000/svg" xmlns:xlink="http://www.w3.org/1999/xlink" width="69" height="69" viewBox="0 0 69 69">
  <defs>
    <linearGradient id="linear-gradient" x1="0.5" x2="0.5" y2="1" gradientUnits="objectBoundingBox">
      <stop offset="0" stop-color="#f8574f"/>
      <stop offset="1" stop-color="#671512"/>
    </linearGradient>
    <linearGradient id="linear-gradient-2" x1="0.5" x2="0.5" y2="1" gradientUnits="objectBoundingBox">
      <stop offset="0" stop-color="#ec6bb1"/>
      <stop offset="1" stop-color="#ab005e"/>
    </linearGradient>
    <linearGradient id="linear-gradient-3" x1="0.5" x2="0.5" y2="1" gradientUnits="objectBoundingBox">
      <stop offset="0" stop-color="#b339b8"/>
      <stop offset="1" stop-color="#5a1d5c"/>
    </linearGradient>
    <linearGradient id="linear-gradient-4" x1="0.5" x2="0.5" y2="1" gradientUnits="objectBoundingBox">
      <stop offset="0" stop-color="#f8574f"/>
      <stop offset="1" stop-color="#bf180f"/>
    </linearGradient>
    <linearGradient id="linear-gradient-5" x1="0.5" x2="0.5" y2="1" gradientUnits="objectBoundingBox">
      <stop offset="0" stop-color="#ffea75"/>
      <stop offset="1" stop-color="#fd0"/>
    </linearGradient>
    <linearGradient id="linear-gradient-6" x1="1" y1="0.5" x2="0" y2="0.5" gradientUnits="objectBoundingBox">
      <stop offset="0" stop-color="#fff" stop-opacity="0"/>
      <stop offset="1" stop-color="#fff" stop-opacity="0.231"/>
    </linearGradient>
    <linearGradient id="linear-gradient-9" x1="0.025" y1="0.5" x2="0.982" y2="0.5" gradientUnits="objectBoundingBox">
      <stop offset="0" stop-color="#7ec5fc"/>
      <stop offset="1" stop-color="#3a9ae9"/>
    </linearGradient>
  </defs>
  <g id="Vocabuary1" transform="translate(-136 -18)">
    <path id="Path_48" data-name="Path 48" d="M25.5,0A25.5,25.5,0,1,1,0,25.5,25.5,25.5,0,0,1,25.5,0Z" transform="translate(144 25)" fill="#fff" opacity="0.2"/>
    <circle id="Ellipse_107" data-name="Ellipse 107" cx="32.5" cy="32.5" r="32.5" transform="translate(137 18)" fill="#fff" opacity="0.1"/>
    <rect id="Rectangle_25" data-name="Rectangle 25" width="20" height="43" rx="4" transform="translate(170 33)" fill="url(#linear-gradient)"/>
    <path id="Path_10" data-name="Path 10" d="M47.087,47.121h1.982a1.552,1.552,0,0,0,1.552-1.552V9.1a1.552,1.552,0,0,0-1.552-1.552H47.087A3.089,3.089,0,0,0,44.414,6H35.1A3.1,3.1,0,0,0,32,9.1V45.569a3.1,3.1,0,0,0,3.1,3.1h9.31a3.089,3.089,0,0,0,2.673-1.552Z" transform="translate(138.172 27.328)" fill="#a23231"/>
    <path id="Path_19" data-name="Path 19" d="M5.653,13.966l-2.826-3.1L0,13.966V1.552C0,.695.422,0,.942,0H4.711c.52,0,.942.695.942,1.552Z" transform="translate(191.897 58.155) rotate(90)" fill="url(#linear-gradient-2)"/>
    <rect id="Rectangle_26" data-name="Rectangle 26" width="7" height="37" rx="2" transform="translate(180 36)" fill="#e2c8bb"/>
    <path id="Path_18" data-name="Path 18" d="M5.653,13.966l-2.826-3.1L0,13.966V1.552C0,.695.422,0,.942,0H4.711c.52,0,.942.695.942,1.552Z" transform="translate(191.897 42.638) rotate(90)" fill="url(#linear-gradient-3)"/>
    <path id="Path_11" data-name="Path 11" d="M50.431,40.259V10H46.552A1.552,1.552,0,0,0,45,11.552V44.914a1.552,1.552,0,0,0,1.552,1.552h3.879a1.552,1.552,0,0,0,1.552-1.552v-3.1A1.552,1.552,0,0,1,50.431,40.259Z" transform="translate(135.259 26.431)" fill="#fbf4e4"/>
    <rect id="Rectangle_27" data-name="Rectangle 27" width="34" height="43" rx="4" transform="translate(150 33)" fill="url(#linear-gradient-4)"/>
    <path id="Path_151" data-name="Path 151" d="M0,0H17V8H0Z" transform="translate(160 43)" opacity="0.18"/>
    <rect id="Rectangle_68" data-name="Rectangle 68" width="17" height="1" transform="translate(160 54)" opacity="0.21"/>
    <rect id="Rectangle_69" data-name="Rectangle 69" width="17" height="1" transform="translate(160 56)" opacity="0.21"/>
    <path id="Path_12" data-name="Path 12" d="M19.31,19l-4.655-3.059L10,19V6h9.31Z" transform="translate(144.103 27)" fill="#f6a425"/>
    <path id="Path_14" data-name="Path 14" d="M21.31,16.966l-4.655-3.1L12,16.966V4.552A1.552,1.552,0,0,1,13.552,3h6.207A1.552,1.552,0,0,1,21.31,4.552Z" transform="translate(142.655 28)" fill="url(#linear-gradient-5)"/>
    <path id="Rectangle_64" data-name="Rectangle 64" d="M2,0H2A0,0,0,0,1,2,0V37a2,2,0,0,1-2,2H0a0,0,0,0,1,0,0V2A2,2,0,0,1,2,0Z" transform="translate(151 34)" fill="url(#linear-gradient-6)"/>
    <path id="Rectangle_65" data-name="Rectangle 65" d="M1,0H1A0,0,0,0,1,1,0V5A0,0,0,0,1,1,5H1A1,1,0,0,1,0,4V1A1,1,0,0,1,1,0Z" transform="translate(191.5 48) rotate(180)" fill="url(#linear-gradient-6)"/>
    <path id="Rectangle_66" data-name="Rectangle 66" d="M1,0H1A0,0,0,0,1,1,0V5A0,0,0,0,1,1,5H1A1,1,0,0,1,0,4V1A1,1,0,0,1,1,0Z" transform="translate(191.5 63.5) rotate(180)" fill="url(#linear-gradient-6)"/>
    <rect id="Rectangle_70" data-name="Rectangle 70" width="69" height="14" rx="7" transform="translate(136 73)" fill="#217ae4"/>
    <path id="Path_51" data-name="Path 51" d="M7,0H62a7,7,0,0,1,0,14H7A7,7,0,0,1,7,0Z" transform="translate(136 72)" fill="url(#linear-gradient-9)"/>
    <g id="Path_52" data-name="Path 52" transform="translate(136 72)" fill="none" opacity="0.1">
      <path d="M7,0H62a7,7,0,0,1,0,14H7A7,7,0,0,1,7,0Z" stroke="none"/>
      <path d="M 7 1 C 3.69158935546875 1 1 3.691590309143066 1 7 C 1 10.30840969085693 3.69158935546875 13 7 13 L 62 13 C 65.30841064453125 13 68 10.30840969085693 68 7 C 68 3.691590309143066 65.30841064453125 1 62 1 L 7 1 M 7 0 L 62 0 C 65.86599731445313 0 69 3.134010314941406 69 7 C 69 10.86598968505859 65.86599731445313 14 62 14 L 7 14 C 3.134002685546875 14 0 10.86598968505859 0 7 C 0 3.134010314941406 3.134002685546875 0 7 0 Z" stroke="none" fill="#45dfe0"/>
    </g>
    <ellipse id="Ellipse_109" data-name="Ellipse 109" cx="2.5" cy="1" rx="2.5" ry="1" transform="matrix(0.996, -0.087, 0.087, 0.996, 139.926, 73.309)" fill="#fff" opacity="0.48"/>
    <g id="Group_151" data-name="Group 151" transform="translate(134.264 -7.352)">
      <path id="Path_142" data-name="Path 142" d="M12.409,83.5a.764.764,0,0,1,.4-.107.912.912,0,0,1,.585.207.636.636,0,0,1,.261.521.706.706,0,0,1-.081.316l-2.376,4.9a.831.831,0,0,1-.351.374,1.035,1.035,0,0,1-1.008,0,.831.831,0,0,1-.351-.374l-2.376-4.9a.7.7,0,0,1-.072-.316.636.636,0,0,1,.27-.517.953.953,0,0,1,.6-.211.79.79,0,0,1,.4.107.7.7,0,0,1,.283.324l1.773,3.834,1.764-3.834A.714.714,0,0,1,12.409,83.5Z" fill="#fff"/>
      <path id="Path_143" data-name="Path 143" d="M15.4,89.458a2.732,2.732,0,0,1-1.1-1.134,4.031,4.031,0,0,1,0-3.447,2.71,2.71,0,0,1,1.1-1.13,3.433,3.433,0,0,1,1.688-.4,3.429,3.429,0,0,1,1.687.4,2.686,2.686,0,0,1,1.1,1.13,3.69,3.69,0,0,1,.382,1.724,3.641,3.641,0,0,1-.387,1.723,2.732,2.732,0,0,1-1.1,1.134,3.743,3.743,0,0,1-3.367,0Zm2.813-1.377a2.334,2.334,0,0,0,.4-1.48,2.3,2.3,0,0,0-.41-1.477,1.506,1.506,0,0,0-2.245,0,2.916,2.916,0,0,0,0,2.965,1.5,1.5,0,0,0,2.25,0Z" fill="#fff"/>
      <path id="Path_144" data-name="Path 144" d="M22.575,89.462a2.726,2.726,0,0,1-1.107-1.134,3.985,3.985,0,0,1,0-3.447,2.738,2.738,0,0,1,1.107-1.134,3.39,3.39,0,0,1,1.669-.4,3.425,3.425,0,0,1,2.007.6.7.7,0,0,1,.221.234.688.688,0,0,1,.067.325.727.727,0,0,1-.157.471.478.478,0,0,1-.383.195.688.688,0,0,1-.243-.041,1.527,1.527,0,0,1-.252-.13,2.518,2.518,0,0,0-.594-.271,2.093,2.093,0,0,0-.576-.081,1.445,1.445,0,0,0-1.192.482,2.941,2.941,0,0,0,0,2.934,1.445,1.445,0,0,0,1.192.482,1.614,1.614,0,0,0,.522-.086q.252-.085.648-.266.189-.1.279-.135A.581.581,0,0,1,26,88.031a.48.48,0,0,1,.383.194.73.73,0,0,1,.157.472.692.692,0,0,1-.067.32.675.675,0,0,1-.221.238,3.419,3.419,0,0,1-2.007.6A3.38,3.38,0,0,1,22.575,89.462Z" fill="#fff"/>
      <path id="Path_145" data-name="Path 145" d="M33.425,89.094a.647.647,0,0,1-.239.5.813.813,0,0,1-.544.207.681.681,0,0,1-.378-.109.725.725,0,0,1-.271-.324l-.4-.909H28.673l-.414.909a.716.716,0,0,1-.276.324.7.7,0,0,1-.381.109.846.846,0,0,1-.554-.207.637.637,0,0,1-.247-.5.755.755,0,0,1,.081-.333l2.376-4.878a.831.831,0,0,1,.346-.374,1.043,1.043,0,0,1,1.012,0,.833.833,0,0,1,.352.374l2.376,4.878A.783.783,0,0,1,33.425,89.094ZM29.23,87.222h1.8l-.9-2.008Z" fill="#fff"/>
      <path id="Path_146" data-name="Path 146" d="M39.229,87.055a1.607,1.607,0,0,1,.3.985,1.552,1.552,0,0,1-.274.914,1.787,1.787,0,0,1-.783.608,3.058,3.058,0,0,1-1.193.215H34.882a.691.691,0,0,1-.765-.764V84.2a.69.69,0,0,1,.765-.764h2.3a2.57,2.57,0,0,1,1.588.445,1.427,1.427,0,0,1,.59,1.2,1.462,1.462,0,0,1-.261.859,1.477,1.477,0,0,1-.729.545A1.62,1.62,0,0,1,39.229,87.055Zm-3.5-1.129h1.179a1.261,1.261,0,0,0,.684-.145.51.51,0,0,0,.216-.459.555.555,0,0,0-.216-.486,1.2,1.2,0,0,0-.684-.152H35.728Zm2.047,2.443a.738.738,0,0,0,0-1.035,1.209,1.209,0,0,0-.706-.157H35.728v1.349h1.341A1.209,1.209,0,0,0,37.775,88.369Z" fill="#fff"/>
      <path id="Path_147" data-name="Path 147" d="M41.052,89.156a2.745,2.745,0,0,1-.716-2.052V84.2a.811.811,0,1,1,1.62,0v2.97a1.611,1.611,0,0,0,.306,1.054,1.241,1.241,0,0,0,1.764,0,1.617,1.617,0,0,0,.306-1.054V84.2a.758.758,0,0,1,.81-.809.815.815,0,0,1,.594.219.791.791,0,0,1,.225.59V87.1a2.725,2.725,0,0,1-.725,2.047,3.458,3.458,0,0,1-4.184,0Z" fill="#fff"/>
      <path id="Path_148" data-name="Path 148" d="M53.188,89.094a.647.647,0,0,1-.239.5.811.811,0,0,1-.544.207.686.686,0,0,1-.378-.109.723.723,0,0,1-.27-.324l-.4-.909H48.437l-.415.909a.714.714,0,0,1-.275.324.7.7,0,0,1-.382.109.845.845,0,0,1-.553-.207.635.635,0,0,1-.248-.5.756.756,0,0,1,.082-.333l2.375-4.878a.842.842,0,0,1,.346-.374,1.045,1.045,0,0,1,1.013,0,.831.831,0,0,1,.351.374l2.376,4.878A.768.768,0,0,1,53.188,89.094Zm-4.194-1.872h1.8l-.9-2.008Z" fill="#fff"/>
      <path id="Path_149" data-name="Path 149" d="M59.38,89.184a.6.6,0,0,1-.238.481.856.856,0,0,1-.554.193.868.868,0,0,1-.405-.1.9.9,0,0,1-.325-.3l-1.17-1.71a.924.924,0,0,0-.265-.265A.615.615,0,0,0,56.1,87.4H55.51v1.612a.817.817,0,0,1-.216.6.917.917,0,0,1-1.192,0,.8.8,0,0,1-.221-.6V84.2a.69.69,0,0,1,.765-.764H56.9a2.6,2.6,0,0,1,1.733.5,1.8,1.8,0,0,1,.581,1.444,1.9,1.9,0,0,1-.4,1.22,1.943,1.943,0,0,1-1.115.671,1.223,1.223,0,0,1,.518.2,1.87,1.87,0,0,1,.436.46l.558.8A.834.834,0,0,1,59.38,89.184Zm-1.948-3.2a.641.641,0,0,0,.238-.557.668.668,0,0,0-.238-.573,1.371,1.371,0,0,0-.788-.174H55.491v1.475h1.153A1.382,1.382,0,0,0,57.432,85.988Z" fill="#fff"/>
      <path id="Path_150" data-name="Path 150" d="M64.636,83.378a.758.758,0,0,1,.535.229.716.716,0,0,1,.238.528.746.746,0,0,1-.2.494l-1.89,2.187v2.2a.785.785,0,0,1-.229.607.838.838,0,0,1-.59.211.866.866,0,0,1-.6-.211.777.777,0,0,1-.234-.607v-2.2l-1.872-2.187a.744.744,0,0,1-.207-.5.7.7,0,0,1,.234-.521.745.745,0,0,1,.532-.226.708.708,0,0,1,.548.27l1.593,1.89,1.593-1.89A.711.711,0,0,1,64.636,83.378Z" fill="#fff"/>
    </g>
  </g>
</svg>
