<svg xmlns="http://www.w3.org/2000/svg" xmlns:xlink="http://www.w3.org/1999/xlink" width="63" height="63" viewBox="0 0 63 63"><defs><filter id="a" x="0" y="0" width="63" height="63" filterUnits="userSpaceOnUse"><feOffset dy="3" input="SourceAlpha"/><feGaussianBlur stdDeviation="3" result="b"/><feFlood flood-opacity="0.161"/><feComposite operator="in" in2="b"/><feComposite in="SourceGraphic"/></filter></defs><g transform="translate(-5534 -1310)"><ellipse cx="14.5" cy="15.5" rx="14.5" ry="15.5" transform="translate(5551 1322)" fill="#ff5f4a"/><g transform="matrix(1, 0, 0, 1, 5534, 1310)" filter="url(#a)"><path d="M25.875,3.375a22.5,22.5,0,1,0,22.5,22.5A22.5,22.5,0,0,0,25.875,3.375Zm5.7,30.645-5.7-5.7-5.7,5.7a1.729,1.729,0,1,1-2.445-2.445l5.7-5.7-5.7-5.7a1.729,1.729,0,0,1,2.445-2.445l5.7,5.7,5.7-5.7a1.729,1.729,0,1,1,2.445,2.445l-5.7,5.7,5.7,5.7a1.737,1.737,0,0,1,0,2.445A1.717,1.717,0,0,1,31.576,34.02Z" transform="translate(5.63 2.63)" fill="#f4f4f8"/></g></g></svg>