<svg xmlns="http://www.w3.org/2000/svg" xmlns:xlink="http://www.w3.org/1999/xlink" width="34.969" height="34.046" viewBox="0 0 34.969 34.046"><defs><linearGradient id="a" x1="0.337" y1="0.309" x2="0.826" y2="0.936" gradientUnits="objectBoundingBox"><stop offset="0" stop-color="#ffef75"/><stop offset="1" stop-color="#ffe200"/></linearGradient><linearGradient id="b" x1="0.67" y1="0.883" x2="0.276" y2="-0.369" gradientUnits="objectBoundingBox"><stop offset="0" stop-color="#ffab4a"/><stop offset="1" stop-color="#ffe200"/></linearGradient><linearGradient id="c" x1="0.337" y1="0.309" x2="0.826" y2="0.936" gradientUnits="objectBoundingBox"><stop offset="0" stop-color="#fff" stop-opacity="0.522"/><stop offset="1" stop-color="#ffe200"/></linearGradient><filter id="d" x="2.246" y="4.329" width="30.749" height="29.717" filterUnits="userSpaceOnUse"><feOffset dy="3" input="SourceAlpha"/><feGaussianBlur stdDeviation="1" result="e"/><feFlood flood-color="#ffd500"/><feComposite operator="in" in2="e"/><feComposite in="SourceGraphic"/></filter><linearGradient id="f" x1="0.5" x2="0.5" y2="1" gradientUnits="objectBoundingBox"><stop offset="0" stop-color="#ff8c00"/><stop offset="1" stop-color="#ffad45" stop-opacity="0"/></linearGradient></defs><path d="M34.878,13.155a1.855,1.855,0,0,0-1.6-1.278l-10.093-.916L19.194,1.619a1.858,1.858,0,0,0-3.418,0l-3.991,9.34L1.69,11.877A1.861,1.861,0,0,0,.635,15.129L8.264,21.82l-2.25,9.91a1.856,1.856,0,0,0,2.764,2.008l8.706-5.2,8.7,5.2a1.858,1.858,0,0,0,2.766-2.008L26.7,21.82l7.629-6.689a1.859,1.859,0,0,0,.545-1.976Zm-.827.154" transform="translate(0 -0.491)" fill="url(#a)"/><g transform="translate(0 0)"><path d="M6.738,20.706a1.859,1.859,0,0,1-.723-1.919l.1-.439a1.853,1.853,0,0,0,2.665.873l8.707-5.2,8.7,5.2a1.858,1.858,0,0,0,2.666-.874l.1.439a1.857,1.857,0,0,1-2.765,2.008l-8.7-5.2-8.707,5.2a1.844,1.844,0,0,1-2.041-.089ZM26.356,7.644l.352-.321,0-.019L34.333.614A1.853,1.853,0,0,0,34.794,0a1.886,1.886,0,0,1,.083.213,1.858,1.858,0,0,1-.545,1.975L27,8.615h0v0l-.32.287ZM7.948,8.611l0-.01L.635,2.187A1.854,1.854,0,0,1,.092.213,1.947,1.947,0,0,1,.175,0a1.838,1.838,0,0,0,.46.612L8.264,7.3l-.035.154L8.268,7.3l.328.287L8.268,8.865Z" transform="translate(0 12.452)" fill="url(#b)"/><g transform="matrix(1, 0, 0, 1, 0, 0)" filter="url(#d)"><path d="M24.684,9.454a1.313,1.313,0,0,0-1.132-.9L16.409,7.9,13.584,1.29a1.315,1.315,0,0,0-2.419,0L8.34,7.9,1.2,8.549a1.317,1.317,0,0,0-.747,2.3l5.4,4.735L4.257,22.6a1.313,1.313,0,0,0,1.956,1.421l6.162-3.683,6.159,3.683A1.315,1.315,0,0,0,20.491,22.6L18.9,15.586l5.4-4.734a1.316,1.316,0,0,0,.386-1.4Zm-.585.109" transform="translate(5.25 3.84)" fill="url(#c)"/></g><path d="M6.3,32.716h0a1.867,1.867,0,0,1-.288-1.476l2.25-9.91L.635,14.638A1.86,1.86,0,0,1,1.69,11.386l10.095-.917,3.99-9.34a1.859,1.859,0,0,1,3.419,0l2.48,5.8C17.92,13.164,8.907,28.15,6.3,32.715Z" transform="translate(0 0)" fill="#fff" opacity="0.16"/></g><path d="M-1.313-2.719,6.6,2.035l-.4,1.279L-1.313-1.153Z" transform="translate(18.808 29.191)" fill="url(#f)"/></svg>