<svg xmlns="http://www.w3.org/2000/svg" xmlns:xlink="http://www.w3.org/1999/xlink" width="178.462" height="57.267" viewBox="0 0 178.462 57.267"><defs><linearGradient id="a" x1="0.5" x2="0.5" y2="1" gradientUnits="objectBoundingBox"><stop offset="0" stop-color="#f1f868"/><stop offset="0.263" stop-color="#f6e845"/><stop offset="1" stop-color="#f8d137"/></linearGradient></defs><g transform="translate(0.375 -0.491)"><path d="M18.049,0H160.038a18.049,18.049,0,0,1,18.049,18.049V36.1a18.049,18.049,0,0,1-18.049,18.049H18.049A18.049,18.049,0,0,1,0,36.1V18.049A18.049,18.049,0,0,1,18.049,0Z" transform="translate(0 3.61)" fill="#ffb406"/><rect width="178" height="54" rx="15" transform="translate(-0.375 0.491)" fill="url(#a)"/><path d="M8.423,0c4.652,0,8.423,2.694,8.423,6.016s-3.771,6.016-8.423,6.016S0,9.339,0,6.016,3.771,0,8.423,0Z" transform="matrix(0.914, -0.407, 0.407, 0.914, 4.297, 8.759)" fill="#fff" opacity="0.7"/></g></svg>