<svg xmlns="http://www.w3.org/2000/svg" xmlns:xlink="http://www.w3.org/1999/xlink" width="98" height="98" viewBox="0 0 98 98"><defs><filter id="a" x="0" y="0" width="98" height="98" filterUnits="userSpaceOnUse"><feOffset dy="3" input="SourceAlpha"/><feGaussianBlur stdDeviation="3" result="b"/><feFlood flood-opacity="0.161"/><feComposite operator="in" in2="b"/><feComposite in="SourceGraphic"/></filter></defs><g transform="translate(-5534 -1310)"><ellipse cx="32" cy="33" rx="32" ry="33" transform="translate(5551 1322)" fill="#ff5f4a"/><g transform="matrix(1, 0, 0, 1, 5534, 1310)" filter="url(#a)"><path d="M43.375,3.375a40,40,0,1,0,40,40A39.994,39.994,0,0,0,43.375,3.375ZM53.51,57.856,43.375,47.721,33.24,57.856a3.073,3.073,0,1,1-4.346-4.346L39.029,43.375,28.894,33.24a3.073,3.073,0,1,1,4.346-4.346L43.375,39.029,53.51,28.894a3.073,3.073,0,0,1,4.346,4.346L47.721,43.375,57.856,53.51a3.088,3.088,0,0,1,0,4.346A3.053,3.053,0,0,1,53.51,57.856Z" transform="translate(5.63 2.63)" fill="#f4f4f8"/></g></g></svg>