<svg xmlns="http://www.w3.org/2000/svg" width="99.995" height="31.465" viewBox="0 0 99.995 31.465"><path d="M13.685.315a12.31,12.31,0,0,1-6.248-1.54,10.238,10.238,0,0,1-4.112-4.41,14.85,14.85,0,0,1-1.435-6.72,14.74,14.74,0,0,1,1.435-6.7A10.26,10.26,0,0,1,7.438-23.45a12.31,12.31,0,0,1,6.248-1.54,13.531,13.531,0,0,1,4.34.683,11.277,11.277,0,0,1,3.6,1.978,2.008,2.008,0,0,1,.63.735,2.278,2.278,0,0,1,.175.945,2.007,2.007,0,0,1-.42,1.3A1.261,1.261,0,0,1,21-18.83a2.588,2.588,0,0,1-1.435-.49,10.378,10.378,0,0,0-2.8-1.557,8.925,8.925,0,0,0-2.87-.437A6.726,6.726,0,0,0,8.383-19.04Q6.51-16.765,6.51-12.355q0,4.445,1.873,6.72A6.726,6.726,0,0,0,13.9-3.36a8.237,8.237,0,0,0,2.783-.455,13.348,13.348,0,0,0,2.887-1.54,4.9,4.9,0,0,1,.7-.35A1.961,1.961,0,0,1,21-5.845a1.261,1.261,0,0,1,1.015.525,2.007,2.007,0,0,1,.42,1.3,2.308,2.308,0,0,1-.175.928,1.96,1.96,0,0,1-.63.753,11.277,11.277,0,0,1-3.6,1.977A13.531,13.531,0,0,1,13.685.315Zm19.39-17.85q3.57,0,5.3,1.768T40.11-10.4v8.54a1.975,1.975,0,0,1-.56,1.488,2.12,2.12,0,0,1-1.54.543,2.048,2.048,0,0,1-1.487-.56,1.955,1.955,0,0,1-.577-1.47v-.77A4.567,4.567,0,0,1,34.072-.49a5.617,5.617,0,0,1-2.957.77A6.867,6.867,0,0,1,28-.42a5.541,5.541,0,0,1-2.2-1.925,4.864,4.864,0,0,1-.805-2.73,4.325,4.325,0,0,1,.962-2.975,5.784,5.784,0,0,1,3.132-1.575,28.526,28.526,0,0,1,5.985-.49h.875v-.805a3.584,3.584,0,0,0-.735-2.5,3.127,3.127,0,0,0-2.38-.788,7.552,7.552,0,0,0-2.065.3q-1.05.3-2.485.857a3.5,3.5,0,0,1-1.33.455,1.316,1.316,0,0,1-1.032-.455,1.73,1.73,0,0,1-.4-1.19,1.792,1.792,0,0,1,.3-1.033,2.824,2.824,0,0,1,1-.823,11.409,11.409,0,0,1,2.922-1.05A15.079,15.079,0,0,1,33.075-17.535ZM31.99-2.87a3.738,3.738,0,0,0,2.852-1.172,4.241,4.241,0,0,0,1.1-3.028v-.735h-.63a24.145,24.145,0,0,0-3.64.21,3.534,3.534,0,0,0-1.855.735,1.872,1.872,0,0,0-.56,1.435,2.374,2.374,0,0,0,.787,1.837A2.777,2.777,0,0,0,31.99-2.87Zm22.5-14.665a5.72,5.72,0,0,1,4.585,1.75,7.936,7.936,0,0,1,1.5,5.285v8.61a2.045,2.045,0,0,1-.577,1.54,2.191,2.191,0,0,1-1.592.56,2.254,2.254,0,0,1-1.61-.56,2.013,2.013,0,0,1-.6-1.54v-8.365a4.538,4.538,0,0,0-.752-2.905,2.892,2.892,0,0,0-2.362-.91,3.993,3.993,0,0,0-3.028,1.19A4.417,4.417,0,0,0,48.93-9.7V-1.89a2.013,2.013,0,0,1-.6,1.54,2.254,2.254,0,0,1-1.61.56,2.191,2.191,0,0,1-1.592-.56,2.045,2.045,0,0,1-.577-1.54V-15.435a1.925,1.925,0,0,1,.595-1.47,2.254,2.254,0,0,1,1.61-.56,2.085,2.085,0,0,1,1.487.542,1.855,1.855,0,0,1,.577,1.417v.945a5.919,5.919,0,0,1,2.345-2.205A7.057,7.057,0,0,1,54.495-17.535ZM79.31-24.85a2.333,2.333,0,0,1,1.61.56,1.873,1.873,0,0,1,.63,1.47V-1.89a1.968,1.968,0,0,1-.595,1.505,2.2,2.2,0,0,1-1.575.56,2.2,2.2,0,0,1-1.575-.56,1.968,1.968,0,0,1-.6-1.505v-.875a5.479,5.479,0,0,1-2.223,2.24A6.708,6.708,0,0,1,71.68.28,7.093,7.093,0,0,1,67.743-.84a7.427,7.427,0,0,1-2.695-3.168,10.946,10.946,0,0,1-.963-4.707,10.6,10.6,0,0,1,.963-4.655,7.29,7.29,0,0,1,2.677-3.08,7.239,7.239,0,0,1,3.955-1.085,6.85,6.85,0,0,1,3.29.77,5.342,5.342,0,0,1,2.2,2.17v-8.3a1.855,1.855,0,0,1,.578-1.417A2.183,2.183,0,0,1,79.31-24.85ZM72.835-3.115A3.891,3.891,0,0,0,76.072-4.55a6.457,6.457,0,0,0,1.138-4.1,6.381,6.381,0,0,0-1.138-4.078,3.873,3.873,0,0,0-3.2-1.417,3.984,3.984,0,0,0-3.255,1.4A6.176,6.176,0,0,0,68.46-8.715a6.539,6.539,0,0,0,1.155,4.13A3.864,3.864,0,0,0,72.835-3.115ZM98-16.205a2.026,2.026,0,0,1,.753-.927,1.9,1.9,0,0,1,1.033-.3,2.2,2.2,0,0,1,1.452.542,1.689,1.689,0,0,1,.647,1.347,1.8,1.8,0,0,1-.21.8L92.12,5.285a1.954,1.954,0,0,1-1.855,1.19,2.156,2.156,0,0,1-1.417-.507,1.59,1.59,0,0,1-.613-1.278,2.26,2.26,0,0,1,.21-.875l2.38-5.005-6.51-13.545a1.777,1.777,0,0,1-.175-.8,1.706,1.706,0,0,1,.683-1.365,2.387,2.387,0,0,1,1.557-.56,2.05,2.05,0,0,1,1.085.3,1.985,1.985,0,0,1,.77.928l4.9,10.815Z" transform="translate(-1.89 24.99)" fill="#fb64a6"/></svg>