<svg xmlns="http://www.w3.org/2000/svg" width="95.97" height="25.515" viewBox="0 0 95.97 25.515"><path d="M24.57-24.85a2.1,2.1,0,0,1,1.575.613,2.236,2.236,0,0,1,.6,1.628V-1.89a2.081,2.081,0,0,1-.56,1.54,1.988,1.988,0,0,1-1.47.56,1.872,1.872,0,0,1-1.435-.56,2.162,2.162,0,0,1-.525-1.54V-16.31L16.8-5.04A3.475,3.475,0,0,1,15.89-3.9a1.871,1.871,0,0,1-1.155.368,1.935,1.935,0,0,1-1.155-.35,3.218,3.218,0,0,1-.91-1.155L6.685-16.135V-1.89A2.133,2.133,0,0,1,6.143-.368,1.9,1.9,0,0,1,4.69.21,1.872,1.872,0,0,1,3.255-.35,2.162,2.162,0,0,1,2.73-1.89V-22.61a2.276,2.276,0,0,1,.578-1.628,2.038,2.038,0,0,1,1.558-.613A2.356,2.356,0,0,1,7-23.345L14.77-8.54l7.735-14.805A2.316,2.316,0,0,1,24.57-24.85ZM33.88.21a2.262,2.262,0,0,1-1.558-.543A1.971,1.971,0,0,1,31.71-1.89V-15.4a1.917,1.917,0,0,1,.612-1.54,2.309,2.309,0,0,1,1.558-.525,2.377,2.377,0,0,1,1.575.525,1.89,1.89,0,0,1,.63,1.54V-1.89a1.943,1.943,0,0,1-.63,1.558A2.328,2.328,0,0,1,33.88.21Zm0-20.79a2.674,2.674,0,0,1-1.89-.648,2.2,2.2,0,0,1-.7-1.7,2.15,2.15,0,0,1,.7-1.68,2.72,2.72,0,0,1,1.89-.63,2.734,2.734,0,0,1,1.872.63,2.125,2.125,0,0,1,.718,1.68,2.2,2.2,0,0,1-.7,1.7A2.674,2.674,0,0,1,33.88-20.58Zm16.275,3.115a1.884,1.884,0,0,1,1.435.385,1.709,1.709,0,0,1,.525,1.365,1.907,1.907,0,0,1-.455,1.4,2.8,2.8,0,0,1-1.645.6l-1.05.1a4.253,4.253,0,0,0-3.028,1.4,4.578,4.578,0,0,0-.962,2.975v7.35a1.943,1.943,0,0,1-.63,1.558A2.328,2.328,0,0,1,42.77.21a2.262,2.262,0,0,1-1.557-.543A1.971,1.971,0,0,1,40.6-1.89V-15.435a1.874,1.874,0,0,1,.612-1.505,2.258,2.258,0,0,1,1.522-.525,2.1,2.1,0,0,1,1.47.507,1.86,1.86,0,0,1,.56,1.452v1.4a5.18,5.18,0,0,1,1.978-2.38,6.063,6.063,0,0,1,2.923-.945Zm13.4,0A1.884,1.884,0,0,1,65-17.08a1.709,1.709,0,0,1,.525,1.365,1.907,1.907,0,0,1-.455,1.4,2.8,2.8,0,0,1-1.645.6l-1.05.1a4.253,4.253,0,0,0-3.028,1.4A4.578,4.578,0,0,0,58.38-9.24v7.35a1.943,1.943,0,0,1-.63,1.558A2.328,2.328,0,0,1,56.175.21a2.262,2.262,0,0,1-1.557-.543,1.971,1.971,0,0,1-.612-1.558V-15.435a1.874,1.874,0,0,1,.612-1.505,2.258,2.258,0,0,1,1.522-.525,2.1,2.1,0,0,1,1.47.507,1.86,1.86,0,0,1,.56,1.452v1.4a5.18,5.18,0,0,1,1.978-2.38,6.063,6.063,0,0,1,2.923-.945ZM74.865.28a9.417,9.417,0,0,1-4.6-1.085A7.507,7.507,0,0,1,67.2-3.92a9.876,9.876,0,0,1-1.085-4.725A9.773,9.773,0,0,1,67.2-13.352a7.533,7.533,0,0,1,3.063-3.1,9.417,9.417,0,0,1,4.6-1.085,9.417,9.417,0,0,1,4.6,1.085,7.423,7.423,0,0,1,3.045,3.1A9.9,9.9,0,0,1,83.58-8.645,10.009,10.009,0,0,1,82.513-3.92,7.4,7.4,0,0,1,79.468-.805,9.417,9.417,0,0,1,74.865.28Zm-.035-3.4a3.922,3.922,0,0,0,3.255-1.4,6.5,6.5,0,0,0,1.12-4.13,6.517,6.517,0,0,0-1.12-4.113,3.862,3.862,0,0,0-3.22-1.418,3.912,3.912,0,0,0-3.238,1.418A6.444,6.444,0,0,0,70.49-8.645a6.5,6.5,0,0,0,1.12,4.13A3.882,3.882,0,0,0,74.83-3.115Zm21.91-14.35a1.884,1.884,0,0,1,1.435.385,1.709,1.709,0,0,1,.525,1.365,1.907,1.907,0,0,1-.455,1.4,2.8,2.8,0,0,1-1.645.6l-1.05.1a4.253,4.253,0,0,0-3.027,1.4A4.578,4.578,0,0,0,91.56-9.24v7.35a1.943,1.943,0,0,1-.63,1.558A2.328,2.328,0,0,1,89.355.21,2.262,2.262,0,0,1,87.8-.333a1.971,1.971,0,0,1-.612-1.558V-15.435A1.874,1.874,0,0,1,87.8-16.94a2.258,2.258,0,0,1,1.523-.525,2.1,2.1,0,0,1,1.47.507,1.86,1.86,0,0,1,.56,1.452v1.4a5.18,5.18,0,0,1,1.978-2.38,6.063,6.063,0,0,1,2.922-.945Z" transform="translate(-2.73 25.235)" fill="#fb64a6"/></svg>