<svg xmlns="http://www.w3.org/2000/svg" width="90.09" height="25.13" viewBox="0 0 90.09 25.13"><path d="M10.745.175A2.246,2.246,0,0,1,9.083-.437,2.2,2.2,0,0,1,8.47-2.065v-18.9H2.1Q0-20.965,0-22.82t2.1-1.855H19.355q2.1,0,2.1,1.855t-2.1,1.855h-6.37v18.9a2.2,2.2,0,0,1-.613,1.628A2.2,2.2,0,0,1,10.745.175Zm18.06.1A9.417,9.417,0,0,1,24.2-.805,7.507,7.507,0,0,1,21.14-3.92a9.876,9.876,0,0,1-1.085-4.725,9.773,9.773,0,0,1,1.085-4.707,7.533,7.533,0,0,1,3.063-3.1,9.417,9.417,0,0,1,4.6-1.085,9.417,9.417,0,0,1,4.6,1.085,7.423,7.423,0,0,1,3.045,3.1A9.9,9.9,0,0,1,37.52-8.645,10.009,10.009,0,0,1,36.452-3.92,7.4,7.4,0,0,1,33.408-.805,9.417,9.417,0,0,1,28.805.28Zm-.035-3.4a3.922,3.922,0,0,0,3.255-1.4,6.5,6.5,0,0,0,1.12-4.13,6.517,6.517,0,0,0-1.12-4.113,3.862,3.862,0,0,0-3.22-1.418,3.912,3.912,0,0,0-3.237,1.418A6.444,6.444,0,0,0,24.43-8.645a6.5,6.5,0,0,0,1.12,4.13A3.882,3.882,0,0,0,28.77-3.115ZM48.93.28a9.417,9.417,0,0,1-4.6-1.085A7.507,7.507,0,0,1,41.265-3.92,9.876,9.876,0,0,1,40.18-8.645a9.773,9.773,0,0,1,1.085-4.707,7.533,7.533,0,0,1,3.063-3.1,9.417,9.417,0,0,1,4.6-1.085,9.417,9.417,0,0,1,4.6,1.085,7.423,7.423,0,0,1,3.045,3.1,9.9,9.9,0,0,1,1.067,4.707A10.009,10.009,0,0,1,56.577-3.92,7.4,7.4,0,0,1,53.533-.805,9.417,9.417,0,0,1,48.93.28Zm-.035-3.4a3.922,3.922,0,0,0,3.255-1.4,6.5,6.5,0,0,0,1.12-4.13,6.517,6.517,0,0,0-1.12-4.113,3.862,3.862,0,0,0-3.22-1.418,3.912,3.912,0,0,0-3.238,1.418,6.444,6.444,0,0,0-1.137,4.113,6.5,6.5,0,0,0,1.12,4.13A3.882,3.882,0,0,0,48.895-3.115Zm21.14.07q1.75.1,1.75,1.575A1.424,1.424,0,0,1,71.1-.193,3.256,3.256,0,0,1,69.16.175l-.945-.07q-5.88-.42-5.88-6.3v-7.63h-1.75a2.222,2.222,0,0,1-1.452-.42,1.5,1.5,0,0,1-.507-1.225,1.5,1.5,0,0,1,.507-1.225,2.222,2.222,0,0,1,1.452-.42h1.75v-3.22a1.968,1.968,0,0,1,.6-1.5,2.254,2.254,0,0,1,1.61-.56,2.2,2.2,0,0,1,1.575.56,1.968,1.968,0,0,1,.6,1.5v3.22h2.975a2.222,2.222,0,0,1,1.452.42,1.5,1.5,0,0,1,.507,1.225,1.5,1.5,0,0,1-.507,1.225,2.222,2.222,0,0,1-1.452.42H66.71V-5.88q0,2.59,2.38,2.765ZM84.07-17.535q6.02,0,6.02,7.035v8.61a2.045,2.045,0,0,1-.577,1.54A2.191,2.191,0,0,1,87.92.21a2.254,2.254,0,0,1-1.61-.56,2.013,2.013,0,0,1-.6-1.54V-10.5a4.05,4.05,0,0,0-.753-2.713A2.985,2.985,0,0,0,82.6-14.07a3.993,3.993,0,0,0-3.028,1.19A4.417,4.417,0,0,0,78.435-9.7V-1.89a2.013,2.013,0,0,1-.6,1.54,2.254,2.254,0,0,1-1.61.56,2.191,2.191,0,0,1-1.592-.56,2.045,2.045,0,0,1-.577-1.54V-22.82a1.9,1.9,0,0,1,.612-1.47,2.268,2.268,0,0,1,1.593-.56,2.293,2.293,0,0,1,1.575.525,1.815,1.815,0,0,1,.6,1.435v8.155a5.73,5.73,0,0,1,2.327-2.082A7.371,7.371,0,0,1,84.07-17.535Z" transform="translate(0 24.85)" fill="#fb64a6"/></svg>