<svg xmlns="http://www.w3.org/2000/svg" width="191.73" height="25.13" viewBox="0 0 191.73 25.13"><path d="M10.745.175A2.246,2.246,0,0,1,9.083-.437,2.2,2.2,0,0,1,8.47-2.065v-18.9H2.1Q0-20.965,0-22.82t2.1-1.855H19.355q2.1,0,2.1,1.855t-2.1,1.855h-6.37v18.9a2.2,2.2,0,0,1-.613,1.628A2.2,2.2,0,0,1,10.745.175Zm18.06.1A9.417,9.417,0,0,1,24.2-.805,7.507,7.507,0,0,1,21.14-3.92a9.876,9.876,0,0,1-1.085-4.725,9.773,9.773,0,0,1,1.085-4.707,7.533,7.533,0,0,1,3.063-3.1,9.417,9.417,0,0,1,4.6-1.085,9.417,9.417,0,0,1,4.6,1.085,7.423,7.423,0,0,1,3.045,3.1A9.9,9.9,0,0,1,37.52-8.645,10.009,10.009,0,0,1,36.452-3.92,7.4,7.4,0,0,1,33.408-.805,9.417,9.417,0,0,1,28.805.28Zm-.035-3.4a3.922,3.922,0,0,0,3.255-1.4,6.5,6.5,0,0,0,1.12-4.13,6.517,6.517,0,0,0-1.12-4.113,3.862,3.862,0,0,0-3.22-1.418,3.912,3.912,0,0,0-3.237,1.418A6.444,6.444,0,0,0,24.43-8.645a6.5,6.5,0,0,0,1.12,4.13A3.882,3.882,0,0,0,28.77-3.115ZM48.93.28a9.417,9.417,0,0,1-4.6-1.085A7.507,7.507,0,0,1,41.265-3.92,9.876,9.876,0,0,1,40.18-8.645a9.773,9.773,0,0,1,1.085-4.707,7.533,7.533,0,0,1,3.063-3.1,9.417,9.417,0,0,1,4.6-1.085,9.417,9.417,0,0,1,4.6,1.085,7.423,7.423,0,0,1,3.045,3.1,9.9,9.9,0,0,1,1.067,4.707A10.009,10.009,0,0,1,56.577-3.92,7.4,7.4,0,0,1,53.533-.805,9.417,9.417,0,0,1,48.93.28Zm-.035-3.4a3.922,3.922,0,0,0,3.255-1.4,6.5,6.5,0,0,0,1.12-4.13,6.517,6.517,0,0,0-1.12-4.113,3.862,3.862,0,0,0-3.22-1.418,3.912,3.912,0,0,0-3.238,1.418,6.444,6.444,0,0,0-1.137,4.113,6.5,6.5,0,0,0,1.12,4.13A3.882,3.882,0,0,0,48.895-3.115Zm21.14.07q1.75.1,1.75,1.575A1.424,1.424,0,0,1,71.1-.193,3.256,3.256,0,0,1,69.16.175l-.945-.07q-5.88-.42-5.88-6.3v-7.63h-1.75a2.222,2.222,0,0,1-1.452-.42,1.5,1.5,0,0,1-.507-1.225,1.5,1.5,0,0,1,.507-1.225,2.222,2.222,0,0,1,1.452-.42h1.75v-3.22a1.968,1.968,0,0,1,.6-1.5,2.254,2.254,0,0,1,1.61-.56,2.2,2.2,0,0,1,1.575.56,1.968,1.968,0,0,1,.6,1.5v3.22h2.975a2.222,2.222,0,0,1,1.452.42,1.5,1.5,0,0,1,.507,1.225,1.5,1.5,0,0,1-.507,1.225,2.222,2.222,0,0,1-1.452.42H66.71V-5.88q0,2.59,2.38,2.765ZM84.07-17.535q6.02,0,6.02,7.035v8.61a2.045,2.045,0,0,1-.577,1.54A2.191,2.191,0,0,1,87.92.21a2.254,2.254,0,0,1-1.61-.56,2.013,2.013,0,0,1-.6-1.54V-10.5a4.05,4.05,0,0,0-.753-2.713A2.985,2.985,0,0,0,82.6-14.07a3.993,3.993,0,0,0-3.028,1.19A4.417,4.417,0,0,0,78.435-9.7V-1.89a2.013,2.013,0,0,1-.6,1.54,2.254,2.254,0,0,1-1.61.56,2.191,2.191,0,0,1-1.592-.56,2.045,2.045,0,0,1-.577-1.54V-22.82a1.9,1.9,0,0,1,.612-1.47,2.268,2.268,0,0,1,1.593-.56,2.293,2.293,0,0,1,1.575.525,1.815,1.815,0,0,1,.6,1.435v8.155a5.73,5.73,0,0,1,2.327-2.082A7.371,7.371,0,0,1,84.07-17.535Zm29.785,0a7.239,7.239,0,0,1,3.955,1.085,7.29,7.29,0,0,1,2.677,3.08,10.6,10.6,0,0,1,.963,4.655,10.946,10.946,0,0,1-.963,4.707A7.427,7.427,0,0,1,117.792-.84,7.093,7.093,0,0,1,113.855.28a6.708,6.708,0,0,1-3.308-.805,5.479,5.479,0,0,1-2.222-2.24v.875a1.968,1.968,0,0,1-.6,1.505,2.2,2.2,0,0,1-1.575.56,2.142,2.142,0,0,1-1.558-.56,2,2,0,0,1-.577-1.505V-22.82a1.9,1.9,0,0,1,.612-1.47,2.268,2.268,0,0,1,1.593-.56,2.293,2.293,0,0,1,1.575.525,1.815,1.815,0,0,1,.6,1.435v8.26a5.233,5.233,0,0,1,2.205-2.153A6.9,6.9,0,0,1,113.855-17.535ZM112.7-3.115a3.864,3.864,0,0,0,3.22-1.47,6.539,6.539,0,0,0,1.155-4.13,6.243,6.243,0,0,0-1.137-4.025,3.933,3.933,0,0,0-3.238-1.4,3.912,3.912,0,0,0-3.238,1.417,6.381,6.381,0,0,0-1.137,4.078,6.457,6.457,0,0,0,1.137,4.1A3.891,3.891,0,0,0,112.7-3.115Zm21.91-14.35a1.884,1.884,0,0,1,1.435.385,1.709,1.709,0,0,1,.525,1.365,1.907,1.907,0,0,1-.455,1.4,2.8,2.8,0,0,1-1.645.6l-1.05.1a4.253,4.253,0,0,0-3.027,1.4,4.578,4.578,0,0,0-.963,2.975v7.35a1.943,1.943,0,0,1-.63,1.558,2.328,2.328,0,0,1-1.575.543,2.262,2.262,0,0,1-1.558-.543,1.971,1.971,0,0,1-.612-1.558V-15.435a1.874,1.874,0,0,1,.612-1.505,2.258,2.258,0,0,1,1.523-.525,2.1,2.1,0,0,1,1.47.507,1.86,1.86,0,0,1,.56,1.452v1.4a5.18,5.18,0,0,1,1.977-2.38,6.063,6.063,0,0,1,2.923-.945Zm17.36,0a2.254,2.254,0,0,1,1.61.56,1.968,1.968,0,0,1,.6,1.505V-1.82a1.9,1.9,0,0,1-.613,1.47,2.268,2.268,0,0,1-1.592.56,2.112,2.112,0,0,1-1.505-.525,1.872,1.872,0,0,1-.56-1.435v-.875a5.576,5.576,0,0,1-2.17,2.152,6.272,6.272,0,0,1-3.08.753q-6.3,0-6.3-7.07V-15.4a1.968,1.968,0,0,1,.6-1.505,2.2,2.2,0,0,1,1.575-.56,2.254,2.254,0,0,1,1.61.56,1.968,1.968,0,0,1,.6,1.505v8.645a4.13,4.13,0,0,0,.735,2.7,2.851,2.851,0,0,0,2.31.875A3.767,3.767,0,0,0,148.7-4.393a4.565,4.565,0,0,0,1.1-3.2V-15.4a1.968,1.968,0,0,1,.6-1.505A2.2,2.2,0,0,1,151.97-17.465ZM164.92.28a11.253,11.253,0,0,1-6.16-1.505,2.088,2.088,0,0,1-1.12-1.89,1.659,1.659,0,0,1,.385-1.138,1.211,1.211,0,0,1,.945-.437,3.866,3.866,0,0,1,1.645.56,15.322,15.322,0,0,0,2.048.8,8.339,8.339,0,0,0,2.363.28,4.493,4.493,0,0,0,2.293-.49A1.518,1.518,0,0,0,168.14-4.9a1.316,1.316,0,0,0-.333-.945,3.048,3.048,0,0,0-1.19-.648,25.024,25.024,0,0,0-2.607-.683,10.018,10.018,0,0,1-4.462-1.785,3.972,3.972,0,0,1-1.348-3.185,4.6,4.6,0,0,1,.91-2.783,5.9,5.9,0,0,1,2.5-1.925,9.117,9.117,0,0,1,3.622-.683,10.857,10.857,0,0,1,2.835.368,8.618,8.618,0,0,1,2.45,1.068,2.112,2.112,0,0,1,1.12,1.855,1.8,1.8,0,0,1-.385,1.172,1.176,1.176,0,0,1-.945.472,1.893,1.893,0,0,1-.753-.158,10.1,10.1,0,0,1-.927-.472,14.678,14.678,0,0,0-1.75-.788,5.459,5.459,0,0,0-1.82-.262,3.524,3.524,0,0,0-2.048.525,1.659,1.659,0,0,0-.753,1.435,1.456,1.456,0,0,0,.77,1.33,11.026,11.026,0,0,0,2.975.91,16.974,16.974,0,0,1,3.675,1.12,4.3,4.3,0,0,1,1.908,1.575,4.569,4.569,0,0,1,.577,2.415,4.488,4.488,0,0,1-1.977,3.815A8.779,8.779,0,0,1,164.92.28Zm20.79-17.815q6.02,0,6.02,7.035v8.61a2.045,2.045,0,0,1-.578,1.54,2.191,2.191,0,0,1-1.592.56,2.254,2.254,0,0,1-1.61-.56,2.013,2.013,0,0,1-.595-1.54V-10.5a4.05,4.05,0,0,0-.753-2.713,2.985,2.985,0,0,0-2.363-.858,3.993,3.993,0,0,0-3.027,1.19A4.417,4.417,0,0,0,180.075-9.7V-1.89a2.013,2.013,0,0,1-.595,1.54,2.254,2.254,0,0,1-1.61.56,2.191,2.191,0,0,1-1.593-.56,2.045,2.045,0,0,1-.577-1.54V-22.82a1.9,1.9,0,0,1,.613-1.47,2.268,2.268,0,0,1,1.592-.56,2.294,2.294,0,0,1,1.575.525,1.815,1.815,0,0,1,.595,1.435v8.155a5.73,5.73,0,0,1,2.327-2.082A7.371,7.371,0,0,1,185.71-17.535Z" transform="translate(0 24.85)" fill="#fb64a6"/></svg>