<svg xmlns="http://www.w3.org/2000/svg" width="178.087" height="54.148" viewBox="0 0 178.087 54.148"><path d="M18.049,0H160.038a18.049,18.049,0,0,1,18.049,18.049V36.1a18.049,18.049,0,0,1-18.049,18.049H18.049A18.049,18.049,0,0,1,0,36.1V18.049A18.049,18.049,0,0,1,18.049,0Z" transform="translate(0 0)" fill="#45dfe0"/><path d="M-65.3,0a1.156,1.156,0,0,1-.855-.3,1.13,1.13,0,0,1-.3-.836V-12.274a1.194,1.194,0,0,1,.332-.884,1.194,1.194,0,0,1,.884-.332,1.219,1.219,0,0,1,.9.332,1.194,1.194,0,0,1,.332.884v10.26h5.339q1.14,0,1.14,1.007T-58.672,0ZM-48.83-2.546a.639.639,0,0,1,.522.247,1.028,1.028,0,0,1,.2.665,1.152,1.152,0,0,1-.7.988,6.352,6.352,0,0,1-1.463.58,6.032,6.032,0,0,1-1.558.219A4.841,4.841,0,0,1-55.385-1.14,4.736,4.736,0,0,1-56.7-4.674a5.422,5.422,0,0,1,.57-2.527,4.145,4.145,0,0,1,1.605-1.71,4.547,4.547,0,0,1,2.347-.608,4.21,4.21,0,0,1,2.185.551A3.736,3.736,0,0,1-48.545-7.41a5.17,5.17,0,0,1,.513,2.375q0,.817-.722.817h-5.605a2.989,2.989,0,0,0,.741,1.928,2.494,2.494,0,0,0,1.824.618,3.459,3.459,0,0,0,1.073-.152,10.6,10.6,0,0,0,1.055-.418A2.1,2.1,0,0,1-48.83-2.546Zm-3.287-5.3a2.039,2.039,0,0,0-1.549.608,2.871,2.871,0,0,0-.694,1.748h4.294a2.709,2.709,0,0,0-.57-1.757A1.88,1.88,0,0,0-52.117-7.847Zm10.051-1.672a3.87,3.87,0,0,1,2.878.96,4.017,4.017,0,0,1,.941,2.917v4.636a1.072,1.072,0,0,1-.3.807,1.151,1.151,0,0,1-.836.294,1.112,1.112,0,0,1-.808-.3,1.061,1.061,0,0,1-.313-.8v-.418A2.479,2.479,0,0,1-41.524-.266,3.049,3.049,0,0,1-43.13.152a3.728,3.728,0,0,1-1.691-.38,3.008,3.008,0,0,1-1.2-1.045,2.64,2.64,0,0,1-.437-1.482,2.348,2.348,0,0,1,.522-1.615,3.14,3.14,0,0,1,1.7-.855,15.486,15.486,0,0,1,3.249-.266h.475v-.437a1.945,1.945,0,0,0-.4-1.359A1.7,1.7,0,0,0-42.2-7.714a4.1,4.1,0,0,0-1.121.161q-.57.162-1.349.466a1.9,1.9,0,0,1-.722.247.714.714,0,0,1-.561-.247.939.939,0,0,1-.218-.646.973.973,0,0,1,.161-.56,1.533,1.533,0,0,1,.542-.446,6.193,6.193,0,0,1,1.587-.57A8.186,8.186,0,0,1-42.066-9.519Zm-.589,7.961a2.029,2.029,0,0,0,1.549-.636,2.3,2.3,0,0,0,.6-1.644v-.4h-.342a13.107,13.107,0,0,0-1.976.114,1.918,1.918,0,0,0-1.007.4,1.016,1.016,0,0,0-.3.779,1.289,1.289,0,0,0,.427,1A1.508,1.508,0,0,0-42.655-1.558Zm13.3-7.239a1.163,1.163,0,0,1,.409-.513.99.99,0,0,1,.56-.171,1.2,1.2,0,0,1,.789.294.917.917,0,0,1,.351.732A1.012,1.012,0,0,1-27.36-8L-30.875-.646a1.251,1.251,0,0,1-.485.551,1.312,1.312,0,0,1-.694.19,1.379,1.379,0,0,1-.693-.19,1.217,1.217,0,0,1-.5-.551L-36.784-8a.965.965,0,0,1-.1-.437.926.926,0,0,1,.371-.741,1.3,1.3,0,0,1,.845-.3,1.06,1.06,0,0,1,1.007.665L-32-2.945Zm10.716,6.251a.639.639,0,0,1,.522.247,1.028,1.028,0,0,1,.2.665,1.152,1.152,0,0,1-.7.988,6.352,6.352,0,0,1-1.463.58,6.032,6.032,0,0,1-1.558.219A4.841,4.841,0,0,1-25.194-1.14,4.736,4.736,0,0,1-26.5-4.674a5.422,5.422,0,0,1,.57-2.527,4.145,4.145,0,0,1,1.605-1.71,4.547,4.547,0,0,1,2.347-.608,4.21,4.21,0,0,1,2.185.551A3.736,3.736,0,0,1-18.354-7.41a5.17,5.17,0,0,1,.513,2.375q0,.817-.722.817h-5.6a2.989,2.989,0,0,0,.741,1.928,2.494,2.494,0,0,0,1.824.618,3.459,3.459,0,0,0,1.073-.152,10.6,10.6,0,0,0,1.054-.418A2.1,2.1,0,0,1-18.639-2.546Zm-3.287-5.3a2.039,2.039,0,0,0-1.549.608,2.871,2.871,0,0,0-.694,1.748h4.294a2.709,2.709,0,0,0-.57-1.757A1.88,1.88,0,0,0-21.926-7.847Zm15.2-1.672a3.87,3.87,0,0,1,2.878.96,4.017,4.017,0,0,1,.941,2.917v4.636a1.072,1.072,0,0,1-.3.807,1.151,1.151,0,0,1-.836.294,1.112,1.112,0,0,1-.808-.3,1.061,1.061,0,0,1-.313-.8v-.418A2.479,2.479,0,0,1-6.184-.266,3.049,3.049,0,0,1-7.79.152a3.728,3.728,0,0,1-1.691-.38,3.008,3.008,0,0,1-1.2-1.045,2.64,2.64,0,0,1-.437-1.482,2.348,2.348,0,0,1,.523-1.615,3.14,3.14,0,0,1,1.7-.855,15.486,15.486,0,0,1,3.249-.266h.475v-.437a1.945,1.945,0,0,0-.4-1.359,1.7,1.7,0,0,0-1.292-.427,4.1,4.1,0,0,0-1.121.161q-.57.162-1.349.466a1.9,1.9,0,0,1-.722.247.714.714,0,0,1-.561-.247.939.939,0,0,1-.218-.646.973.973,0,0,1,.161-.56,1.533,1.533,0,0,1,.541-.446A6.193,6.193,0,0,1-8.54-9.31,8.186,8.186,0,0,1-6.726-9.519Zm-.589,7.961a2.029,2.029,0,0,0,1.548-.636,2.3,2.3,0,0,0,.6-1.644v-.4H-5.51a13.107,13.107,0,0,0-1.976.114,1.918,1.918,0,0,0-1.007.4,1.016,1.016,0,0,0-.3.779,1.289,1.289,0,0,0,.428,1A1.508,1.508,0,0,0-7.315-1.558Zm22.895.019a1.2,1.2,0,0,1,.228.665.891.891,0,0,1-.352.722,1.273,1.273,0,0,1-.827.285A1.245,1.245,0,0,1,14.05-.01a1.246,1.246,0,0,1-.465-.428L11.058-4.275a2.461,2.461,0,0,0-.808-.855,2.206,2.206,0,0,0-1.111-.247H7.277v4.256a1.24,1.24,0,0,1-.323.9A1.162,1.162,0,0,1,6.08.114,1.194,1.194,0,0,1,5.2-.219a1.219,1.219,0,0,1-.332-.9V-12.236a1.136,1.136,0,0,1,.313-.855,1.189,1.189,0,0,1,.864-.3h4.75a5.2,5.2,0,0,1,3.468,1.016,3.651,3.651,0,0,1,1.188,2.936,3.711,3.711,0,0,1-.884,2.555,4.182,4.182,0,0,1-2.5,1.283,2.4,2.4,0,0,1,.969.475,4.179,4.179,0,0,1,.817.95ZM10.45-7.258a3.218,3.218,0,0,0,2.033-.523,1.942,1.942,0,0,0,.646-1.605,1.91,1.91,0,0,0-.646-1.606,3.309,3.309,0,0,0-2.033-.5H7.258v4.237ZM25.213-2.546a.639.639,0,0,1,.522.247,1.028,1.028,0,0,1,.2.665,1.152,1.152,0,0,1-.7.988,6.352,6.352,0,0,1-1.463.58,6.032,6.032,0,0,1-1.558.219A4.841,4.841,0,0,1,18.658-1.14a4.736,4.736,0,0,1-1.311-3.534,5.422,5.422,0,0,1,.57-2.527,4.145,4.145,0,0,1,1.605-1.71,4.547,4.547,0,0,1,2.347-.608,4.21,4.21,0,0,1,2.185.551A3.736,3.736,0,0,1,25.5-7.41a5.17,5.17,0,0,1,.513,2.375q0,.817-.722.817h-5.6a2.989,2.989,0,0,0,.741,1.928,2.494,2.494,0,0,0,1.824.618,3.459,3.459,0,0,0,1.073-.152,10.6,10.6,0,0,0,1.054-.418A2.1,2.1,0,0,1,25.213-2.546Zm-3.287-5.3a2.039,2.039,0,0,0-1.549.608,2.871,2.871,0,0,0-.694,1.748h4.294a2.709,2.709,0,0,0-.57-1.757A1.88,1.88,0,0,0,21.926-7.847Zm12.35-.95a1.163,1.163,0,0,1,.409-.513.99.99,0,0,1,.56-.171,1.2,1.2,0,0,1,.789.294.917.917,0,0,1,.351.732A1.012,1.012,0,0,1,36.271-8L32.756-.646a1.251,1.251,0,0,1-.485.551,1.312,1.312,0,0,1-.694.19,1.379,1.379,0,0,1-.693-.19,1.217,1.217,0,0,1-.5-.551L26.847-8a.965.965,0,0,1-.095-.437.926.926,0,0,1,.37-.741,1.3,1.3,0,0,1,.846-.3,1.06,1.06,0,0,1,1.007.665l2.66,5.871ZM39.292.114a1.228,1.228,0,0,1-.846-.295,1.07,1.07,0,0,1-.333-.846V-8.36a1.04,1.04,0,0,1,.333-.836,1.253,1.253,0,0,1,.846-.285,1.29,1.29,0,0,1,.855.285,1.026,1.026,0,0,1,.342.836v7.334a1.055,1.055,0,0,1-.342.846A1.264,1.264,0,0,1,39.292.114Zm0-11.286a1.452,1.452,0,0,1-1.026-.352,1.2,1.2,0,0,1-.38-.921,1.167,1.167,0,0,1,.38-.912,1.477,1.477,0,0,1,1.026-.342,1.484,1.484,0,0,1,1.016.342,1.153,1.153,0,0,1,.389.912,1.2,1.2,0,0,1-.38.921A1.452,1.452,0,0,1,39.292-11.172Zm11,8.626a.639.639,0,0,1,.522.247,1.028,1.028,0,0,1,.2.665,1.152,1.152,0,0,1-.7.988,6.352,6.352,0,0,1-1.463.58,6.032,6.032,0,0,1-1.558.219A4.841,4.841,0,0,1,43.738-1.14a4.736,4.736,0,0,1-1.311-3.534A5.422,5.422,0,0,1,43-7.2,4.145,4.145,0,0,1,44.6-8.911a4.547,4.547,0,0,1,2.347-.608,4.21,4.21,0,0,1,2.185.551A3.736,3.736,0,0,1,50.578-7.41a5.17,5.17,0,0,1,.513,2.375q0,.817-.722.817H44.764a2.989,2.989,0,0,0,.741,1.928,2.494,2.494,0,0,0,1.824.618A3.459,3.459,0,0,0,48.4-1.824a10.6,10.6,0,0,0,1.055-.418A2.1,2.1,0,0,1,50.293-2.546Zm-3.287-5.3a2.039,2.039,0,0,0-1.549.608,2.871,2.871,0,0,0-.694,1.748h4.294a2.709,2.709,0,0,0-.57-1.757A1.88,1.88,0,0,0,47.006-7.847Zm18.43-.931a1.051,1.051,0,0,1,.39-.513.99.99,0,0,1,.561-.171,1.2,1.2,0,0,1,.788.295.917.917,0,0,1,.352.731.965.965,0,0,1-.1.437L64.3-.646a1.142,1.142,0,0,1-.465.551,1.312,1.312,0,0,1-.693.19,1.279,1.279,0,0,1-.675-.19A1.142,1.142,0,0,1,62-.646L59.736-6.08,57.551-.646a1.142,1.142,0,0,1-.465.551,1.312,1.312,0,0,1-.694.19,1.328,1.328,0,0,1-.684-.19,1.127,1.127,0,0,1-.475-.551L52.117-8a1.207,1.207,0,0,1-.095-.418.944.944,0,0,1,.38-.75,1.284,1.284,0,0,1,.836-.314,1.067,1.067,0,0,1,.589.171,1.03,1.03,0,0,1,.4.513L56.468-3l2.3-5.738a1.142,1.142,0,0,1,.437-.542,1.149,1.149,0,0,1,.627-.181,1.149,1.149,0,0,1,.627.181,1.142,1.142,0,0,1,.437.542l2.318,5.757Z" transform="translate(88.717 33.573)" fill="#fff"/></svg>