<svg xmlns="http://www.w3.org/2000/svg" width="35.844" height="34.348" viewBox="0 0 35.844 34.348"><g transform="translate(0 0)"><g transform="translate(0)"><path d="M35.749,13.471a1.9,1.9,0,0,0-1.64-1.31l-10.345-.939L19.673,1.647a1.9,1.9,0,0,0-3.5,0l-4.091,9.573-10.347.939A1.907,1.907,0,0,0,.651,15.495l7.82,6.858L6.165,32.51A1.9,1.9,0,0,0,9,34.568l8.924-5.333,8.92,5.333a1.9,1.9,0,0,0,2.835-2.058L27.371,22.353,35.19,15.5a1.906,1.906,0,0,0,.559-2.025Zm0,0" transform="translate(0.001 -0.491)" fill="#dbdee3"/><path d="M8.021,34.344a1.888,1.888,0,0,1-1.112-.362,1.915,1.915,0,0,1-.745-1.967l2.26-9.956,2.042,1.789L8.155,34.006a1.917,1.917,0,0,0-.043.336l-.021,0h-.07ZM2.136,16.3.651,15a1.905,1.905,0,0,1,1.083-3.33l10.345-.942,4.093-9.573a1.906,1.906,0,0,1,3.5,0l.358.84c-.035,0-.072,0-.121,0a1.9,1.9,0,0,0-1.75,1.155L14.07,12.719l-10.347.942A1.911,1.911,0,0,0,2.14,16.3Zm33.705-2.667h0l-10.085-.918-.8-1.883,9.159.834a1.886,1.886,0,0,1,1.637,1.31,1.855,1.855,0,0,1,.093.656Z" transform="translate(0 0.002)" fill="#dbdee3"/><path d="M20.791,34.345a1.9,1.9,0,0,1-.978-.271l-.019-.011a1.433,1.433,0,0,0,.121-.08,1.9,1.9,0,0,0,.745-1.967l-2.31-10.158L26.174,15a1.918,1.918,0,0,0,.554-2.025,1.888,1.888,0,0,0-1.637-1.31l-10.347-.942L10.656,1.155A1.933,1.933,0,0,0,9.9.281a1.908,1.908,0,0,1,2.75.874l4.087,9.573,10.347.942A1.908,1.908,0,0,1,28.163,15L20.34,21.857l2.31,10.158a1.912,1.912,0,0,1-1.859,2.33Zm-19.8,0a1.9,1.9,0,0,1-1-.282l8.9-5.319,1,.595L1.972,34.074A1.859,1.859,0,0,1,1,34.344Z" transform="translate(7.029 0.002)" fill="#dbdee3" opacity="0.41"/></g></g></svg>